<svg xmlns="http://www.w3.org/2000/svg" width="343.25" height="703.753" viewBox="0 0 343.25 703.753">
  <g id="グループ_426" data-name="グループ 426" transform="translate(-15.75 -216.65)">
    <rect id="長方形_48" data-name="長方形 48" width="247" height="589.893" transform="translate(64 272.74)" fill="#fff9e2"/>
    <g id="グループ_363" data-name="グループ 363" transform="translate(4439.052 1811.835)">
      <path id="長方形_216" data-name="長方形 216" d="M16,16V653.148H294.359V16H16M0,0H310.359V669.148H0Z" transform="translate(-4407.15 -1571.411)" fill="#ff9e17"/>
      <g id="グループ_316" data-name="グループ 316" transform="translate(-4419.095 -1583.14)">
        <path id="パス_1013" data-name="パス 1013" d="M38.169,25.116A16.366,16.366,0,1,1,21.8,8.838,16.322,16.322,0,0,1,38.169,25.116" transform="translate(-5.438 -8.838)" fill="#ff9e17"/>
        <path id="パス_1014" data-name="パス 1014" d="M35.614,23.191l-.976-2.982L26.648,22.8,31.6,16.048,29.058,14.2l-4.984,6.787v-8.4H20.921v8.4L15.938,14.2l-2.546,1.85L18.347,22.8l-7.99-2.588-.976,2.982,8.026,2.6-8.026,2.6.976,2.982,7.99-2.588-4.956,6.749,2.546,1.85L20.921,30.6V39h3.153V30.6l4.984,6.787,2.546-1.85-4.956-6.749,7.99,2.588.976-2.982-8.026-2.6Z" transform="translate(-6.132 -9.513)" fill="#134a26"/>
        <path id="パス_1015" data-name="パス 1015" d="M27.2,28.169a2.421,2.421,0,1,1-2.421-2.408A2.414,2.414,0,0,1,27.2,28.169" transform="translate(-8.416 -11.891)" fill="#fff"/>
      </g>
      <g id="グループ_320" data-name="グループ 320" transform="translate(-4371.976 -1583.14)">
        <path id="パス_1019" data-name="パス 1019" d="M80.218,18.415A10.58,10.58,0,1,1,69.637,7.891,10.552,10.552,0,0,1,80.218,18.415" transform="translate(-59.058 -7.891)" fill="#0049a9"/>
        <path id="パス_1020" data-name="パス 1020" d="M69.637,29.189A10.774,10.774,0,1,1,77.3,10.8a10.734,10.734,0,0,1,0,15.237A10.789,10.789,0,0,1,69.637,29.189Zm0-21.048A10.274,10.274,0,1,0,79.968,18.415,10.313,10.313,0,0,0,69.637,8.141Z" transform="translate(-59.058 -7.891)" fill="#ff9e17"/>
      </g>
      <g id="グループ_321" data-name="グループ 321" transform="translate(-4342.058 -1572.863)">
        <path id="パス_1021" data-name="パス 1021" d="M118.9,25.643a10.58,10.58,0,1,1-10.58-10.524A10.552,10.552,0,0,1,118.9,25.643" transform="translate(-97.742 -15.119)" fill="#fefeed"/>
        <path id="パス_1022" data-name="パス 1022" d="M108.321,14.869a10.788,10.788,0,0,1,7.658,3.155,10.734,10.734,0,0,1,0,15.237,10.87,10.87,0,0,1-15.315,0,10.735,10.735,0,0,1,0-15.237A10.787,10.787,0,0,1,108.321,14.869Zm0,21.048A10.274,10.274,0,1,0,97.992,25.643,10.314,10.314,0,0,0,108.321,35.917Z" transform="translate(-97.742 -15.119)" fill="#ff9e17"/>
        <path id="パス_1209" data-name="パス 1209" d="M5.914-2.187h.008a8.154,8.154,0,0,1,5.75,13.9A8.033,8.033,0,0,1,5.936,14.1H5.929A8.154,8.154,0,0,1,.179.2,8.033,8.033,0,0,1,5.914-2.187Zm.018,11.91a3.691,3.691,0,0,0,2.637-1.1A3.78,3.78,0,0,0,5.918,2.187h0a3.689,3.689,0,0,0-2.633,1.1A3.78,3.78,0,0,0,5.933,9.723Z" transform="matrix(0.174, -0.985, 0.985, 0.174, 3.688, 15.325)" fill="#982317"/>
      </g>
      <g id="グループ_270" data-name="グループ 270" transform="translate(-4111.792 -1411.721)">
        <path id="パス_1034" data-name="パス 1034" d="M543.775,30.859a10.552,10.552,0,0,1-10.58,10.524V30.859Z" transform="translate(-522.615 -20.335)" fill="#241f4a"/>
        <path id="パス_1035" data-name="パス 1035" d="M543.775,28.543a10.552,10.552,0,0,0-10.58-10.524V28.543Z" transform="translate(-522.615 -18.019)" fill="#1a4f27"/>
        <path id="パス_1036" data-name="パス 1036" d="M520.356,28.543a10.552,10.552,0,0,1,10.58-10.524V28.543Z" transform="translate(-520.356 -18.019)" fill="#241f4a"/>
        <path id="パス_1037" data-name="パス 1037" d="M520.356,30.859a10.552,10.552,0,0,0,10.58,10.524V30.859Z" transform="translate(-520.356 -20.335)" fill="#1a4f27"/>
        <path id="パス_1038" data-name="パス 1038" d="M530.935,17.769a10.788,10.788,0,0,1,7.658,3.155,10.734,10.734,0,0,1,0,15.237,10.87,10.87,0,0,1-15.315,0,10.735,10.735,0,0,1,0-15.237A10.787,10.787,0,0,1,530.935,17.769Zm0,21.048a10.274,10.274,0,1,0-10.329-10.274A10.314,10.314,0,0,0,530.935,38.817Z" transform="translate(-520.356 -18.019)" fill="#ff9e17"/>
      </g>
      <g id="グループ_271" data-name="グループ 271" transform="translate(-4112.338 -1381.8)">
        <path id="パス_1039" data-name="パス 1039" d="M575.046,29.865a10.58,10.58,0,1,1-10.58-10.524,10.552,10.552,0,0,1,10.58,10.524" transform="translate(-553.886 -19.341)" fill="#ffd599"/>
        <path id="パス_1040" data-name="パス 1040" d="M564.465,19.091a10.788,10.788,0,0,1,7.658,3.155,10.734,10.734,0,0,1,0,15.237,10.87,10.87,0,0,1-15.315,0,10.735,10.735,0,0,1,0-15.237A10.787,10.787,0,0,1,564.465,19.091Zm0,21.048a10.274,10.274,0,1,0-10.329-10.274A10.314,10.314,0,0,0,564.465,40.139Z" transform="translate(-553.886 -19.341)" fill="#ff9e17"/>
      </g>
      <g id="グループ_269" data-name="グループ 269" transform="translate(-4183.042 -1583.387)">
        <path id="パス_1041" data-name="パス 1041" d="M506.065,11.8a10.484,10.484,0,0,1,0,14.882l-7.481-7.441Z" transform="translate(-488.003 -8.716)" fill="#92221b"/>
        <path id="パス_1042" data-name="パス 1042" d="M504.467,11.121a10.62,10.62,0,0,0-14.962,0l7.481,7.441Z" transform="translate(-486.406 -8.038)" fill="#fff7e5"/>
        <path id="パス_1043" data-name="パス 1043" d="M488.843,26.681a10.484,10.484,0,0,1,0-14.882l7.481,7.441Z" transform="translate(-485.744 -8.716)" fill="#fff7e5"/>
        <path id="パス_1044" data-name="パス 1044" d="M489.505,28.319a10.62,10.62,0,0,0,14.962,0l-7.481-7.441Z" transform="translate(-486.406 -10.354)" fill="#92221b"/>
        <path id="パス_1045" data-name="パス 1045" d="M496.323,7.788a10.788,10.788,0,0,1,7.658,3.155,10.734,10.734,0,0,1,0,15.237,10.87,10.87,0,0,1-15.315,0,10.735,10.735,0,0,1,0-15.237A10.787,10.787,0,0,1,496.323,7.788Zm0,21.048a10.274,10.274,0,1,0-10.33-10.274A10.314,10.314,0,0,0,496.323,28.836Z" transform="translate(-485.744 -8.038)" fill="#ff9e17"/>
      </g>
      <g id="グループ_272" data-name="グループ 272" transform="translate(-4147.494 -1572.863)">
        <path id="パス_1052" data-name="パス 1052" d="M668.519,27.641a10.58,10.58,0,1,1-10.58-10.524,10.552,10.552,0,0,1,10.58,10.524" transform="translate(-647.359 -17.117)" fill="#fff7e5"/>
        <path id="パス_1053" data-name="パス 1053" d="M657.938,16.867a10.788,10.788,0,0,1,7.658,3.155,10.735,10.735,0,0,1,0,15.237,10.8,10.8,0,1,1-7.658-18.392Zm0,21.048a10.274,10.274,0,1,0-10.329-10.274A10.314,10.314,0,0,0,657.938,37.915Z" transform="translate(-647.359 -17.117)" fill="#ff9e17"/>
        <path id="線_4" data-name="線 4" d="M.25,20.782h-.5V0h.5Z" transform="translate(10.579 0.133)" fill="#ff9e17"/>
        <path id="線_5" data-name="線 5" d="M.124,10.608l-.249-.434L17.97-.217l.249.434Z" transform="translate(1.532 5.328)" fill="#ff9e17"/>
        <path id="線_6" data-name="線 6" d="M17.97,10.608-.124.217.125-.217,18.219,10.174Z" transform="translate(1.532 5.328)" fill="#ff9e17"/>
      </g>
      <g id="グループ_362" data-name="グループ 362" transform="translate(-4421.042 -1542.158)">
        <path id="パス_1054" data-name="パス 1054" d="M15.97,59.924A10.552,10.552,0,0,1,26.55,70.448H15.97Z" transform="translate(-5.39 -59.923)" fill="#241f4a"/>
        <path id="パス_1055" data-name="パス 1055" d="M13.71,59.924A10.552,10.552,0,0,0,3.13,70.448H13.71Z" transform="translate(-3.13 -59.923)" fill="#fefeed"/>
        <path id="パス_1056" data-name="パス 1056" d="M13.71,83.287A10.552,10.552,0,0,1,3.13,72.763H13.71Z" transform="translate(-3.13 -62.239)" fill="#241f4a"/>
        <path id="パス_1057" data-name="パス 1057" d="M15.97,83.287A10.552,10.552,0,0,0,26.55,72.763H15.97Z" transform="translate(-5.39 -62.239)" fill="#fefeed"/>
        <path id="パス_1058" data-name="パス 1058" d="M13.709,81.221a10.787,10.787,0,0,1-7.657-3.155,10.735,10.735,0,0,1,0-15.237,10.87,10.87,0,0,1,15.315,0,10.734,10.734,0,0,1,0,15.237A10.788,10.788,0,0,1,13.709,81.221Zm0-21.048A10.274,10.274,0,1,0,24.04,70.447,10.313,10.313,0,0,0,13.709,60.173Z" transform="translate(-3.13 -59.923)" fill="#ff9e17"/>
      </g>
      <g id="グループ_351" data-name="グループ 351" transform="translate(-4410.461 -1141.97)">
        <path id="パス_1061" data-name="パス 1061" d="M34.783,225.008A10.58,10.58,0,1,1,24.2,214.484a10.552,10.552,0,0,1,10.58,10.524" transform="translate(-13.623 -214.484)" fill="#0f4f28"/>
        <path id="パス_1062" data-name="パス 1062" d="M24.2,214.234a10.788,10.788,0,0,1,7.658,3.155,10.734,10.734,0,0,1,0,15.237,10.87,10.87,0,0,1-15.315,0,10.735,10.735,0,0,1,0-15.237A10.787,10.787,0,0,1,24.2,214.234Zm0,21.048a10.274,10.274,0,1,0-10.329-10.274A10.314,10.314,0,0,0,24.2,235.282Z" transform="translate(-13.623 -214.484)" fill="#ff9e17"/>
      </g>
      <g id="グループ_323" data-name="グループ 323" transform="translate(-4421.041 -1179.35)">
        <path id="パス_1063" data-name="パス 1063" d="M5.814,181.574a10.621,10.621,0,0,1,14.962,0l-7.48,7.441Z" transform="translate(-2.715 -178.491)" fill="#92221b"/>
        <path id="パス_1064" data-name="パス 1064" d="M5.152,182.252a10.484,10.484,0,0,0,0,14.882l7.482-7.441Z" transform="translate(-2.053 -179.17)" fill="#fff7e5"/>
        <path id="パス_1065" data-name="パス 1065" d="M20.776,198.772a10.621,10.621,0,0,1-14.962,0l7.481-7.441Z" transform="translate(-2.715 -180.808)" fill="#fff7e5"/>
        <path id="パス_1066" data-name="パス 1066" d="M22.374,197.134a10.484,10.484,0,0,0,0-14.882l-7.481,7.441Z" transform="translate(-4.312 -179.17)" fill="#92221b"/>
        <path id="パス_1067" data-name="パス 1067" d="M12.633,178.242a10.788,10.788,0,0,1,7.658,3.155,10.733,10.733,0,0,1,0,15.237,10.871,10.871,0,0,1-15.315,0,10.733,10.733,0,0,1,0-15.237A10.788,10.788,0,0,1,12.633,178.242Zm0,21.047A10.274,10.274,0,1,0,2.3,189.016,10.313,10.313,0,0,0,12.633,199.289Z" transform="translate(-2.053 -178.492)" fill="#ff9e17"/>
      </g>
      <g id="グループ_352" data-name="グループ 352" transform="translate(-4419.095 -1211.898)">
        <path id="パス_1068" data-name="パス 1068" d="M23.214,152.378a10.58,10.58,0,1,1-10.58-10.524,10.552,10.552,0,0,1,10.58,10.524" transform="translate(-2.054 -141.854)" fill="#fff7e5"/>
        <path id="パス_1069" data-name="パス 1069" d="M12.633,141.6a10.788,10.788,0,0,1,7.658,3.155,10.734,10.734,0,0,1,0,15.237,10.87,10.87,0,0,1-15.315,0,10.735,10.735,0,0,1,0-15.237A10.787,10.787,0,0,1,12.633,141.6Zm0,21.048A10.274,10.274,0,1,0,2.3,152.378,10.314,10.314,0,0,0,12.633,162.652Z" transform="translate(-2.054 -141.854)" fill="#ff9e17"/>
        <path id="線_7" data-name="線 7" d="M.25,20.782h-.5V0h.5Z" transform="translate(10.58 0.132)" fill="#ff9e17"/>
        <path id="線_8" data-name="線 8" d="M.125,10.608l-.249-.434L17.97-.217l.249.434Z" transform="translate(1.533 5.328)" fill="#ff9e17"/>
        <path id="線_9" data-name="線 9" d="M17.97,10.608-.125.217.124-.217,18.219,10.174Z" transform="translate(1.533 5.328)" fill="#ff9e17"/>
      </g>
      <g id="グループ_347" data-name="グループ 347" transform="translate(-4419.426 -994.938)">
        <path id="パス_1070" data-name="パス 1070" d="M24.436,433.515a10.58,10.58,0,1,1-10.58-10.524,10.552,10.552,0,0,1,10.58,10.524" transform="translate(-3.276 -422.991)" fill="#0049a9"/>
        <path id="パス_1071" data-name="パス 1071" d="M13.855,422.741a10.788,10.788,0,0,1,7.658,3.155,10.734,10.734,0,0,1,0,15.237,10.87,10.87,0,0,1-15.315,0,10.735,10.735,0,0,1,0-15.237A10.787,10.787,0,0,1,13.855,422.741Zm0,21.048A10.274,10.274,0,1,0,3.526,433.515,10.314,10.314,0,0,0,13.855,443.789Z" transform="translate(-3.276 -422.991)" fill="#ff9e17"/>
      </g>
      <g id="グループ_346" data-name="グループ 346" transform="translate(-4421.48 -1020.154)">
        <path id="パス_1072" data-name="パス 1072" d="M21.944,402.75a10.58,10.58,0,1,1-10.58-10.524,10.552,10.552,0,0,1,10.58,10.524" transform="translate(-0.784 -392.226)" fill="#fefeed"/>
        <path id="パス_1073" data-name="パス 1073" d="M11.363,391.976a10.788,10.788,0,0,1,7.658,3.155,10.734,10.734,0,0,1,0,15.237,10.87,10.87,0,0,1-15.315,0,10.735,10.735,0,0,1,0-15.237A10.787,10.787,0,0,1,11.363,391.976Zm0,21.048A10.274,10.274,0,1,0,1.034,402.75,10.314,10.314,0,0,0,11.363,413.024Z" transform="translate(-0.784 -392.226)" fill="#ff9e17"/>
        <path id="楕円形_7" data-name="楕円形 7" d="M5.956-2.187A8.111,8.111,0,1,1-2.187,5.924,8.136,8.136,0,0,1,5.956-2.187Zm0,11.848A3.737,3.737,0,1,0,2.187,5.924,3.757,3.757,0,0,0,5.956,9.661Z" transform="translate(4.624 4.6)" fill="#982317"/>
      </g>
      <g id="グループ_349" data-name="グループ 349" transform="translate(-4421.48 -1076.671)">
        <path id="パス_1074" data-name="パス 1074" d="M21.41,295.883a10.58,10.58,0,1,1-10.58-10.524,10.552,10.552,0,0,1,10.58,10.524" transform="translate(-0.25 -285.359)" fill="#fefeed"/>
        <path id="パス_1075" data-name="パス 1075" d="M10.829,285.109a10.788,10.788,0,0,1,7.658,3.155,10.734,10.734,0,0,1,0,15.237,10.87,10.87,0,0,1-15.315,0,10.735,10.735,0,0,1,0-15.237A10.787,10.787,0,0,1,10.829,285.109Zm0,21.048A10.274,10.274,0,1,0,.5,295.883,10.314,10.314,0,0,0,10.829,306.157Z" transform="translate(-0.25 -285.359)" fill="#ff9e17"/>
        <path id="パス_1192" data-name="パス 1192" d="M0,0,4.88.013,4.918,14.12l-4.88-.013Z" transform="translate(3.849 7.27) rotate(-45)" fill="#982317"/>
        <path id="パス_1193" data-name="パス 1193" d="M0,0,14.107.038l.013,4.88L.013,4.88Z" transform="translate(3.849 13.777) rotate(-45)" fill="#982317"/>
      </g>
      <g id="グループ_333" data-name="グループ 333" transform="translate(-4407.962 -1054.437)">
        <path id="パス_1076" data-name="パス 1076" d="M16.656,323.011a10.552,10.552,0,0,1,10.58-10.524v10.524Z" transform="translate(-16.655 -312.487)" fill="#241f4a"/>
        <path id="パス_1077" data-name="パス 1077" d="M16.656,325.327a10.552,10.552,0,0,0,10.58,10.524V325.327Z" transform="translate(-16.655 -314.803)" fill="#ffd599"/>
        <path id="パス_1078" data-name="パス 1078" d="M40.075,325.327a10.552,10.552,0,0,1-10.58,10.524V325.327Z" transform="translate(-18.915 -314.803)" fill="#241f4a"/>
        <path id="パス_1079" data-name="パス 1079" d="M40.075,323.011a10.552,10.552,0,0,0-10.58-10.524v10.524Z" transform="translate(-18.915 -312.487)" fill="#ffd599"/>
        <path id="パス_1080" data-name="パス 1080" d="M27.235,312.237a10.788,10.788,0,0,1,7.658,3.155,10.734,10.734,0,0,1,0,15.237,10.871,10.871,0,0,1-15.315,0,10.734,10.734,0,0,1,0-15.237A10.788,10.788,0,0,1,27.235,312.237Zm0,21.047A10.274,10.274,0,1,0,16.9,323.011,10.313,10.313,0,0,0,27.235,333.284Z" transform="translate(-16.655 -312.487)" fill="#ff9e17"/>
      </g>
      <g id="グループ_354" data-name="グループ 354" transform="translate(-4419.994 -1278.73)">
        <path id="パス_1081" data-name="パス 1081" d="M21.944,367.644a10.58,10.58,0,1,1-10.58-10.524,10.552,10.552,0,0,1,10.58,10.524" transform="translate(-0.784 -357.12)" fill="#ff9e17"/>
        <path id="パス_1194" data-name="パス 1194" d="M0,0,11.967.032,12,12,.032,11.967Z" transform="translate(2.096 10.524) rotate(-45)" fill="#fefeed"/>
      </g>
      <g id="グループ_350" data-name="グループ 350" transform="translate(-4416.292 -1107.686)">
        <path id="パス_1082" data-name="パス 1082" d="M27.706,259.377a10.58,10.58,0,1,1-10.58-10.524,10.552,10.552,0,0,1,10.58,10.524" transform="translate(-6.546 -248.853)" fill="#fefeed"/>
        <path id="パス_1083" data-name="パス 1083" d="M17.125,248.6a10.788,10.788,0,0,1,7.658,3.155,10.734,10.734,0,0,1,0,15.237,10.87,10.87,0,0,1-15.315,0,10.735,10.735,0,0,1,0-15.237A10.787,10.787,0,0,1,17.125,248.6Zm0,21.048A10.274,10.274,0,1,0,6.8,259.377,10.314,10.314,0,0,0,17.125,269.651Z" transform="translate(-6.546 -248.853)" fill="#ff9e17"/>
        <path id="パス_1208" data-name="パス 1208" d="M5.914-2.187h.008a8.154,8.154,0,0,1,5.75,13.9A8.033,8.033,0,0,1,5.937,14.1H5.929A8.154,8.154,0,0,1,.179.2,8.033,8.033,0,0,1,5.914-2.187Zm.019,11.91a3.691,3.691,0,0,0,2.637-1.1A3.78,3.78,0,0,0,5.917,2.187h0a3.688,3.688,0,0,0-2.633,1.1A3.78,3.78,0,0,0,5.933,9.723Z" transform="matrix(0.183, -0.983, 0.983, 0.183, 3.642, 15.259)" fill="#241f4a"/>
      </g>
      <g id="グループ_348" data-name="グループ 348" transform="translate(-4413.979 -967.234)">
        <path id="パス_1084" data-name="パス 1084" d="M31.046,467.317a10.58,10.58,0,1,1-10.58-10.524,10.552,10.552,0,0,1,10.58,10.524" transform="translate(-9.886 -456.793)" fill="#fff7e5"/>
        <path id="パス_1085" data-name="パス 1085" d="M20.465,456.543a10.788,10.788,0,0,1,7.658,3.155,10.734,10.734,0,0,1,0,15.237,10.87,10.87,0,0,1-15.315,0,10.735,10.735,0,0,1,0-15.237A10.787,10.787,0,0,1,20.465,456.543Zm0,21.048a10.274,10.274,0,1,0-10.329-10.274A10.314,10.314,0,0,0,20.465,477.59Z" transform="translate(-9.886 -456.793)" fill="#ff9e17"/>
        <path id="線_10" data-name="線 10" d="M.25,20.782h-.5V0h.5Z" transform="translate(10.579 0.133)" fill="#ff9e17"/>
        <path id="線_11" data-name="線 11" d="M.125,10.608l-.249-.434L17.97-.217l.249.434Z" transform="translate(1.532 5.328)" fill="#ff9e17"/>
        <path id="線_12" data-name="線 12" d="M17.97,10.608-.125.217.124-.217,18.219,10.174Z" transform="translate(1.532 5.328)" fill="#ff9e17"/>
      </g>
      <g id="グループ_344" data-name="グループ 344" transform="translate(-4303.869 -912.73)">
        <path id="パス_1088" data-name="パス 1088" d="M306.486,514.053a10.552,10.552,0,0,1-10.58,10.524V514.053Z" transform="translate(-285.326 -503.529)" fill="#241f4a"/>
        <path id="パス_1089" data-name="パス 1089" d="M306.486,511.737a10.552,10.552,0,0,0-10.58-10.524v10.524Z" transform="translate(-285.326 -501.213)" fill="#1a4f27"/>
        <path id="パス_1090" data-name="パス 1090" d="M283.067,511.737a10.552,10.552,0,0,1,10.58-10.524v10.524Z" transform="translate(-283.067 -501.213)" fill="#241f4a"/>
        <path id="パス_1091" data-name="パス 1091" d="M283.067,514.053a10.552,10.552,0,0,0,10.58,10.524V514.053Z" transform="translate(-283.067 -503.529)" fill="#1a4f27"/>
        <path id="パス_1092" data-name="パス 1092" d="M293.646,500.963a10.788,10.788,0,0,1,7.658,3.155,10.734,10.734,0,0,1,0,15.237,10.87,10.87,0,0,1-15.315,0,10.735,10.735,0,0,1,0-15.237A10.787,10.787,0,0,1,293.646,500.963Zm0,21.048a10.274,10.274,0,1,0-10.33-10.274A10.314,10.314,0,0,0,293.646,522.01Z" transform="translate(-283.067 -501.213)" fill="#ff9e17"/>
      </g>
      <g id="グループ_345" data-name="グループ 345" transform="translate(-4272.647 -924.861)">
        <path id="パス_1093" data-name="パス 1093" d="M337.677,512.915a10.58,10.58,0,1,1-10.58-10.524,10.552,10.552,0,0,1,10.58,10.524" transform="translate(-316.517 -502.391)" fill="#ffd599"/>
        <path id="パス_1094" data-name="パス 1094" d="M327.1,502.141a10.788,10.788,0,0,1,7.658,3.155,10.735,10.735,0,0,1,0,15.237,10.87,10.87,0,0,1-15.315,0,10.735,10.735,0,0,1,0-15.237A10.787,10.787,0,0,1,327.1,502.141Zm0,21.048a10.274,10.274,0,1,0-10.329-10.274A10.314,10.314,0,0,0,327.1,523.188Z" transform="translate(-316.517 -502.391)" fill="#ff9e17"/>
      </g>
      <g id="グループ_339" data-name="グループ 339" transform="translate(-4341.64 -924.861)">
        <path id="パス_1105" data-name="パス 1105" d="M110.9,503.8a10.58,10.58,0,1,1-10.58-10.524A10.552,10.552,0,0,1,110.9,503.8" transform="translate(-89.736 -493.275)" fill="#fefeed"/>
        <path id="パス_1106" data-name="パス 1106" d="M100.315,493.025a10.788,10.788,0,0,1,7.658,3.155,10.734,10.734,0,0,1,0,15.237,10.87,10.87,0,0,1-15.315,0,10.735,10.735,0,0,1,0-15.237A10.787,10.787,0,0,1,100.315,493.025Zm0,21.048A10.274,10.274,0,1,0,89.986,503.8,10.314,10.314,0,0,0,100.315,514.073Z" transform="translate(-89.736 -493.275)" fill="#ff9e17"/>
        <path id="パス_1196" data-name="パス 1196" d="M0,0,4.88.013,4.918,14.12l-4.88-.013Z" transform="translate(3.849 7.27) rotate(-45)" fill="#241f4a"/>
        <path id="パス_1197" data-name="パス 1197" d="M0,0,14.107.038l.013,4.88L.013,4.88Z" transform="translate(3.849 13.777) rotate(-45)" fill="#241f4a"/>
      </g>
      <g id="グループ_338" data-name="グループ 338" transform="translate(-4369.333 -912.787)">
        <path id="パス_1107" data-name="パス 1107" d="M77.288,518.531a10.58,10.58,0,1,1-10.58-10.524,10.552,10.552,0,0,1,10.58,10.524" transform="translate(-56.127 -508.007)" fill="#ff9e17"/>
        <path id="パス_1108" data-name="パス 1108" d="M68.967,508.007a10.552,10.552,0,0,1,10.58,10.524H68.967Z" transform="translate(-58.386 -508.007)" fill="#982317"/>
        <path id="パス_1109" data-name="パス 1109" d="M66.707,531.371a10.552,10.552,0,0,1-10.58-10.524h10.58Z" transform="translate(-56.127 -510.323)" fill="#982317"/>
      </g>
      <g id="グループ_340" data-name="グループ 340" transform="translate(-4238.928 -919.702)">
        <path id="パス_1121" data-name="パス 1121" d="M547.035,511.841a10.58,10.58,0,1,1-10.58-10.524,10.552,10.552,0,0,1,10.58,10.524" transform="translate(-525.875 -501.317)" fill="#fefeed"/>
        <path id="パス_1122" data-name="パス 1122" d="M536.454,501.067a10.788,10.788,0,0,1,7.658,3.155,10.734,10.734,0,0,1,0,15.237,10.87,10.87,0,0,1-15.315,0,10.735,10.735,0,0,1,0-15.237A10.787,10.787,0,0,1,536.454,501.067Zm0,21.048a10.274,10.274,0,1,0-10.33-10.274A10.314,10.314,0,0,0,536.454,522.115Z" transform="translate(-525.875 -501.317)" fill="#ff9e17"/>
        <path id="パス_1200" data-name="パス 1200" d="M0,0,4.88.013,4.918,14.12l-4.88-.013Z" transform="matrix(0.707, -0.707, 0.707, 0.707, 3.85, 7.27)" fill="#241f4a"/>
        <path id="パス_1201" data-name="パス 1201" d="M0,0,14.107.038l.013,4.88L.013,4.88Z" transform="translate(3.85 13.777) rotate(-45)" fill="#241f4a"/>
      </g>
      <g id="グループ_342" data-name="グループ 342" transform="translate(-4173.856 -925.24)">
        <path id="パス_1123" data-name="パス 1123" d="M638.949,509.672a10.58,10.58,0,1,1-10.58-10.524,10.552,10.552,0,0,1,10.58,10.524" transform="translate(-617.789 -499.148)" fill="#fefeed"/>
        <path id="パス_1124" data-name="パス 1124" d="M628.368,520.445a10.787,10.787,0,0,1-7.657-3.155,10.735,10.735,0,0,1,0-15.237,10.87,10.87,0,0,1,15.315,0,10.734,10.734,0,0,1,0,15.237A10.788,10.788,0,0,1,628.368,520.445Zm0-21.047a10.274,10.274,0,1,0,10.33,10.274A10.313,10.313,0,0,0,628.368,499.4Z" transform="translate(-617.789 -499.148)" fill="#ff9e17"/>
        <path id="楕円形_10" data-name="楕円形 10" d="M5.956-2.187A8.112,8.112,0,1,1-2.187,5.924,8.137,8.137,0,0,1,5.956-2.187Zm0,11.849A3.738,3.738,0,1,0,2.187,5.924,3.758,3.758,0,0,0,5.956,9.662Z" transform="translate(4.573 4.652) rotate(-0.503)" fill="#241f4a"/>
      </g>
      <g id="グループ_343" data-name="グループ 343" transform="translate(-4147.076 -916.325)">
        <path id="パス_1125" data-name="パス 1125" d="M671.448,520.549a10.58,10.58,0,1,1-10.58-10.524,10.552,10.552,0,0,1,10.58,10.524" transform="translate(-650.289 -510.025)" fill="#fff7e5"/>
        <path id="パス_1126" data-name="パス 1126" d="M660.868,509.775a10.788,10.788,0,0,1,7.658,3.155,10.734,10.734,0,0,1,0,15.237,10.842,10.842,0,0,1-18.487-7.619,10.676,10.676,0,0,1,3.172-7.619A10.787,10.787,0,0,1,660.868,509.775Zm0,21.048a10.274,10.274,0,1,0-10.329-10.274A10.314,10.314,0,0,0,660.868,530.822Z" transform="translate(-650.289 -510.025)" fill="#ff9e17"/>
        <path id="線_19" data-name="線 19" d="M.25,20.782h-.5V0h.5Z" transform="translate(10.58 0.133)" fill="#ff9e17"/>
        <path id="線_20" data-name="線 20" d="M.124,10.608l-.249-.434L17.97-.217l.249.434Z" transform="translate(1.533 5.328)" fill="#ff9e17"/>
        <path id="線_21" data-name="線 21" d="M17.97,10.608-.124.217.125-.217,18.219,10.174Z" transform="translate(1.533 5.328)" fill="#ff9e17"/>
      </g>
      <g id="グループ_341" data-name="グループ 341" transform="translate(-4205.208 -918.824)">
        <path id="パス_1127" data-name="パス 1127" d="M590.215,515.228a10.552,10.552,0,0,1-10.58,10.524V515.228Z" transform="translate(-569.055 -504.704)" fill="#241f4a"/>
        <path id="パス_1128" data-name="パス 1128" d="M590.215,512.912a10.552,10.552,0,0,0-10.58-10.524v10.524Z" transform="translate(-569.055 -502.388)" fill="#1a4f27"/>
        <path id="パス_1129" data-name="パス 1129" d="M566.795,512.912a10.552,10.552,0,0,1,10.58-10.524v10.524Z" transform="translate(-566.795 -502.388)" fill="#241f4a"/>
        <path id="パス_1130" data-name="パス 1130" d="M566.795,515.228a10.552,10.552,0,0,0,10.58,10.524V515.228Z" transform="translate(-566.795 -504.704)" fill="#1a4f27"/>
        <path id="パス_1131" data-name="パス 1131" d="M577.375,523.685a10.787,10.787,0,0,1-7.657-3.155,10.735,10.735,0,0,1,0-15.237,10.87,10.87,0,0,1,15.315,0,10.734,10.734,0,0,1,0,15.237A10.788,10.788,0,0,1,577.375,523.685Zm0-21.048a10.274,10.274,0,1,0,10.33,10.274A10.313,10.313,0,0,0,577.375,502.638Z" transform="translate(-566.795 -502.388)" fill="#ff9e17"/>
      </g>
      <g id="グループ_278" data-name="グループ 278" transform="translate(-4111.792 -1330.285)">
        <path id="パス_1143" data-name="パス 1143" d="M713.049,324.548a10.58,10.58,0,1,1-10.581-10.524,10.552,10.552,0,0,1,10.581,10.524" transform="translate(-691.889 -314.024)" fill="#ffd599"/>
        <path id="パス_1144" data-name="パス 1144" d="M702.468,313.774a10.789,10.789,0,0,1,7.658,3.155,10.734,10.734,0,0,1,0,15.237,10.8,10.8,0,1,1-7.658-18.392Zm0,21.048a10.274,10.274,0,1,0-10.329-10.274A10.314,10.314,0,0,0,702.468,334.822Z" transform="translate(-691.889 -314.024)" fill="#ff9e17"/>
        <path id="パス_1210" data-name="パス 1210" d="M5.949-2.187h0A8.144,8.144,0,0,1,14.1,5.926a8.036,8.036,0,0,1-2.385,5.739,8.152,8.152,0,0,1-13.9-5.742A8.036,8.036,0,0,1,.2.184,8.1,8.1,0,0,1,5.949-2.187Z" transform="translate(4.069 5.215) rotate(-5.655)" fill="#26244a"/>
      </g>
      <g id="グループ_277" data-name="グループ 277" transform="translate(-4102.854 -1439.89)">
        <path id="パス_1154" data-name="パス 1154" d="M720.287,199.116a10.621,10.621,0,0,1-14.962,0l7.481-7.441Z" transform="translate(-702.226 -181.152)" fill="#92221b"/>
        <path id="パス_1155" data-name="パス 1155" d="M721.885,197.478a10.484,10.484,0,0,0,0-14.883l-7.481,7.441Z" transform="translate(-703.824 -179.514)" fill="#fff7e5"/>
        <path id="パス_1156" data-name="パス 1156" d="M705.325,181.918a10.621,10.621,0,0,1,14.962,0l-7.481,7.441Z" transform="translate(-702.226 -178.835)" fill="#fff7e5"/>
        <path id="パス_1157" data-name="パス 1157" d="M704.663,182.6a10.484,10.484,0,0,0,0,14.883l7.481-7.441Z" transform="translate(-701.564 -179.514)" fill="#92221b"/>
        <path id="パス_1158" data-name="パス 1158" d="M712.144,200.133a10.788,10.788,0,0,1-7.658-3.155,10.733,10.733,0,0,1,0-15.237,10.871,10.871,0,0,1,15.315,0,10.733,10.733,0,0,1,0,15.237A10.788,10.788,0,0,1,712.144,200.133Zm0-21.047a10.274,10.274,0,1,0,10.33,10.273A10.313,10.313,0,0,0,712.144,179.086Z" transform="translate(-701.564 -178.836)" fill="#ff9e17"/>
      </g>
      <g id="グループ_276" data-name="グループ 276" transform="translate(-4101.211 -1472.473)">
        <path id="パス_1159" data-name="パス 1159" d="M724.684,149.728A10.58,10.58,0,1,1,714.1,139.2a10.552,10.552,0,0,1,10.58,10.524" transform="translate(-703.524 -139.204)" fill="#ff9e17"/>
        <path id="パス_1204" data-name="パス 1204" d="M0,0,11.967.032,12,12,.032,11.967Z" transform="translate(2.095 10.524) rotate(-45)" fill="#92221b"/>
      </g>
      <g id="グループ_274" data-name="グループ 274" transform="translate(-4101.759 -1530.99)">
        <path id="パス_1160" data-name="パス 1160" d="M724.22,76.5a10.58,10.58,0,1,1-10.58-10.524A10.552,10.552,0,0,1,724.22,76.5" transform="translate(-703.061 -65.979)" fill="#0f4f28"/>
        <path id="パス_1161" data-name="パス 1161" d="M713.64,65.729a10.788,10.788,0,0,1,7.658,3.155,10.734,10.734,0,0,1,0,15.237,10.87,10.87,0,0,1-15.315,0,10.735,10.735,0,0,1,0-15.237A10.787,10.787,0,0,1,713.64,65.729Zm0,21.048A10.274,10.274,0,1,0,703.311,76.5,10.314,10.314,0,0,0,713.64,86.777Z" transform="translate(-703.061 -65.979)" fill="#ff9e17"/>
      </g>
      <g id="グループ_275" data-name="グループ 275" transform="translate(-4106.006 -1504.747)">
        <path id="パス_1162" data-name="パス 1162" d="M721.806,109.546a10.58,10.58,0,1,1-10.581-10.524,10.553,10.553,0,0,1,10.581,10.524" transform="translate(-700.646 -99.022)" fill="#fefeed"/>
        <path id="パス_1163" data-name="パス 1163" d="M711.225,98.772a10.789,10.789,0,0,1,7.659,3.155,10.733,10.733,0,0,1,0,15.237,10.8,10.8,0,1,1-7.659-18.392Zm0,21.048A10.274,10.274,0,1,0,700.9,109.546,10.314,10.314,0,0,0,711.225,119.82Z" transform="translate(-700.646 -99.022)" fill="#ff9e17"/>
        <path id="パス_1205" data-name="パス 1205" d="M0,0,4.88.013,4.918,14.12l-4.88-.013Z" transform="translate(3.849 7.27) rotate(-45)" fill="#241f4a"/>
        <path id="パス_1206" data-name="パス 1206" d="M0,0,14.107.038l.013,4.88L.013,4.88Z" transform="translate(3.849 13.777) rotate(-45)" fill="#241f4a"/>
      </g>
      <g id="グループ_266" data-name="グループ 266" transform="translate(-4247.591 -1592.238)">
        <path id="パス_1164" data-name="パス 1164" d="M406.213,22.345a20.089,20.089,0,1,1-40.175,0,20.089,20.089,0,1,1,40.175,0" transform="translate(-356.777 -1.018)" fill="#ffe1b0"/>
        <path id="パス_1165" data-name="パス 1165" d="M386.126,1.77a20,20,0,0,1,7.916,1.617,20.256,20.256,0,0,1,6.464,4.41,20.716,20.716,0,0,1,0,29.1,20.256,20.256,0,0,1-6.464,4.41,20.182,20.182,0,0,1-15.833,0,20.256,20.256,0,0,1-6.464-4.41,20.716,20.716,0,0,1,0-29.1,20.256,20.256,0,0,1,6.464-4.41A20.006,20.006,0,0,1,386.126,1.77Zm0,40.655a20.081,20.081,0,1,0-19.84-20.079A19.983,19.983,0,0,0,386.126,42.425Z" transform="translate(-356.777 -1.018)" fill="#ff9e17"/>
        <path id="パス_1166" data-name="パス 1166" d="M406.718,35.564c-.508,2.311-2.441,3.854-4.318,3.446s-2.987-2.612-2.479-4.923,2.441-3.854,4.318-3.446,2.987,2.612,2.479,4.923" transform="translate(-365.868 -8.82)" fill="#1f1b4b"/>
        <path id="パス_1167" data-name="パス 1167" d="M382.475,31.176c-.508,2.311-2.441,3.854-4.318,3.446s-2.987-2.612-2.479-4.923,2.441-3.854,4.318-3.446,2.987,2.612,2.479,4.923" transform="translate(-359.339 -7.621)" fill="#1f1b4b"/>
        <path id="パス_1168" data-name="パス 1168" d="M408.333,45.1a2.661,2.661,0,1,1-2.629-2.252,2.463,2.463,0,0,1,2.629,2.252" transform="translate(-366.751 -12.172)" fill="#ffa798"/>
        <path id="パス_1169" data-name="パス 1169" d="M377.733,40.105a2.661,2.661,0,0,1-5.259,0,2.661,2.661,0,0,1,5.259,0" transform="translate(-358.51 -10.808)" fill="#ffa798"/>
        <path id="パス_1170" data-name="パス 1170" d="M390.018,39.507a.5.5,0,0,1-.385-.18c-.862-1.037-1.047-1.93-.565-2.73a4.034,4.034,0,0,1,2.5-1.43.5.5,0,0,1,.178.984h0a3.1,3.1,0,0,0-1.825.962c-.1.173-.35.58.477,1.575a.5.5,0,0,1-.384.82Z" transform="translate(-363.044 -10.209)" fill="#1f1b4b"/>
        <path id="パス_1171" data-name="パス 1171" d="M389.992,48.022a11.605,11.605,0,0,1-1.309-.074,8.469,8.469,0,0,1-6.3-3.963.5.5,0,0,1,.876-.482,6.905,6.905,0,0,0,1.333,1.574,7.444,7.444,0,0,0,4.2,1.878,9.684,9.684,0,0,0,6.465-1.452.5.5,0,1,1,.6.8A10.343,10.343,0,0,1,389.992,48.022Z" transform="translate(-361.298 -12.418)" fill="#1f1b4b"/>
        <path id="パス_1172" data-name="パス 1172" d="M368.983,13.1c-.148-.8.742,1.457,3.078,1.651,3.556.3,4.813-2.779,5.467-3.746.286-.423.541,4.394,4.172,4.955,4.106.634,5.338-2.116,5.953-2.9.268-.342.389,4.389,4.062,5.2,3.4.749,4.906-2.042,5.658-2.982.393-.491-1.151,6.15-.759,10.864.323,3.879,1.7,8.11,5.758,8.11a6.968,6.968,0,0,0,6.7-4.432c.527-1.128-1.685,1.233-4.245-2.738-1.279-1.984-1.247-5.218-1.436-7.187-.563-5.877-1.826-8.21-3.917-10.861-4.2-5.319-8.469-6.974-11.7-7.746A23.753,23.753,0,0,0,366.4,6.694c-6.61,5.942-5.137,14.644-11.783,13.14-2.137-.483-1.071,1.637-.193,2.957,1.054,1.583,3.526,4.728,8.164,3.356,5.2-1.538,6.9-10.361,6.4-13.051" transform="translate(-353.364 -0.642)" fill="#1f1b4b"/>
        <path id="パス_1173" data-name="パス 1173" d="M382.253.394a24.044,24.044,0,0,1,5.583.645c2.994.716,7.477,2.307,11.837,7.834a16.4,16.4,0,0,1,2.568,4.284,24.777,24.777,0,0,1,1.4,6.707c.034.357.061.756.09,1.177.131,1.927.293,4.325,1.308,5.9s2.072,2.327,3.249,2.327a4.325,4.325,0,0,0,.459-.029c.1-.01.177-.018.249-.018a.4.4,0,0,1,.352.161.555.555,0,0,1-.049.537,8.467,8.467,0,0,1-1.877,2.715,7.137,7.137,0,0,1-5.053,1.86,4.959,4.959,0,0,1-4.494-2.724,13.531,13.531,0,0,1-1.511-5.613A44.141,44.141,0,0,1,396.988,17c.05-.349.1-.69.137-.973a5.371,5.371,0,0,1-4.3,2.6,5.432,5.432,0,0,1-1.164-.132c-2.928-.644-3.7-3.6-4.026-4.856l-.024-.094-.007.011a5.306,5.306,0,0,1-4.736,2.742,7.94,7.94,0,0,1-1.206-.1c-2.852-.441-3.726-3.34-4.1-4.577l-.042-.14-.068.116c-.7,1.194-2.015,3.416-4.917,3.416-.161,0-.328-.007-.495-.021a4.272,4.272,0,0,1-2.747-1.395,17.475,17.475,0,0,1-1.14,6.54,13.535,13.535,0,0,1-2.113,3.854,6.924,6.924,0,0,1-3.386,2.391,8.036,8.036,0,0,1-2.272.348,6.42,6.42,0,0,1-4.023-1.407,10.01,10.01,0,0,1-2.146-2.4c-.657-.987-1.362-2.307-1-2.992a.873.873,0,0,1,.85-.42,2.768,2.768,0,0,1,.6.076,6.185,6.185,0,0,0,1.352.166c2.577,0,3.54-2.147,4.872-5.118a22.587,22.587,0,0,1,5.339-8.13,23.616,23.616,0,0,1,8.012-4.769A24.17,24.17,0,0,1,382.253.394Zm26.036,29.368c-1.359,0-2.558-.835-3.666-2.554-1.083-1.681-1.251-4.15-1.386-6.134-.028-.418-.055-.813-.089-1.163-.54-5.644-1.677-7.957-3.865-10.731a19.973,19.973,0,0,0-11.563-7.659A23.547,23.547,0,0,0,382.253.89a23.143,23.143,0,0,0-15.691,5.988,21.865,21.865,0,0,0-5.218,7.964c-1.356,3.023-2.426,5.411-5.325,5.411a6.679,6.679,0,0,1-1.461-.178,2.28,2.28,0,0,0-.49-.064c-.327,0-.391.119-.412.158-.185.345.2,1.319.971,2.483,1.6,2.411,3.488,3.583,5.756,3.583a7.541,7.541,0,0,0,2.132-.328c2.906-.86,4.489-4.092,5.174-5.942a15.478,15.478,0,0,0,1.052-6.827.432.432,0,0,1,.046-.37.263.263,0,0,1,.2-.095c.144,0,.224.091.4.291a4.04,4.04,0,0,0,2.693,1.533c.153.013.306.019.453.019,2.619,0,3.791-1.986,4.49-3.172.112-.189.208-.353.3-.485a.292.292,0,0,1,.241-.135h0c.246,0,.313.221.474.753.375,1.246,1.157,3.837,3.7,4.23a7.443,7.443,0,0,0,1.131.091,4.867,4.867,0,0,0,4.324-2.523c.1-.147.185-.274.265-.376a.28.28,0,0,1,.223-.113h0c.246,0,.3.212.435.724.305,1.172,1.021,3.918,3.653,4.5a4.936,4.936,0,0,0,1.057.12c2.157,0,3.342-1.633,4.05-2.608.114-.157.212-.292.3-.407a.287.287,0,0,1,.228-.119h0a.264.264,0,0,1,.2.092c.125.144.115.292-.128,1.978a43.749,43.749,0,0,0-.618,9.047,13.238,13.238,0,0,0,1.446,5.406A4.492,4.492,0,0,0,402.372,34a6.722,6.722,0,0,0,6.471-4.27l-.043,0A4.743,4.743,0,0,1,408.289,29.763Z" transform="translate(-353.364 -0.642)" fill="#ff9e17"/>
      </g>
      <g id="グループ_267" data-name="グループ 267" transform="translate(-4312.14 -1594.935)">
        <path id="パス_1174" data-name="パス 1174" d="M289.7,37.836a3.3,3.3,0,0,1-4.483,1.132,3.267,3.267,0,0,1-1.811-4.233,3.3,3.3,0,0,1,4.483-1.133,3.266,3.266,0,0,1,1.811,4.233" transform="translate(-283.137 -6.332)" fill="#ffe1b0"/>
        <path id="パス_1175" data-name="パス 1175" d="M286.971,39.643a4.248,4.248,0,0,1-1.865-.443,4.024,4.024,0,0,1-2.056-2.27,3,3,0,0,1,.128-2.31,3.233,3.233,0,0,1,2.964-1.692,4.249,4.249,0,0,1,1.865.443,4.022,4.022,0,0,1,2.055,2.269,3,3,0,0,1-.127,2.311A3.232,3.232,0,0,1,286.971,39.643Zm-.829-6.2a2.721,2.721,0,0,0-2.5,1.406,2.484,2.484,0,0,0-.1,1.914,3.5,3.5,0,0,0,1.794,1.972,3.728,3.728,0,0,0,1.636.389,2.72,2.72,0,0,0,2.5-1.405,2.485,2.485,0,0,0,.1-1.915,3.5,3.5,0,0,0-1.794-1.971A3.729,3.729,0,0,0,286.142,33.445Z" transform="translate(-283.137 -6.332)" fill="#ff9e17"/>
        <path id="パス_1176" data-name="パス 1176" d="M343.386,28.733a3.3,3.3,0,0,0,4.581.634,3.263,3.263,0,0,0,1.33-4.406,3.3,3.3,0,0,0-4.581-.634,3.263,3.263,0,0,0-1.33,4.406" transform="translate(-293.924 -4.58)" fill="#ffe1b0"/>
        <path id="パス_1177" data-name="パス 1177" d="M345.874,30.253h0a3.168,3.168,0,0,1-2.705-1.38,3,3,0,0,1-.383-2.285,4.017,4.017,0,0,1,1.79-2.48,4.153,4.153,0,0,1,2.232-.669,3.167,3.167,0,0,1,2.705,1.38A3,3,0,0,1,349.9,27.1a4.017,4.017,0,0,1-1.791,2.48A4.153,4.153,0,0,1,345.874,30.253Zm.934-6.3a3.637,3.637,0,0,0-1.954.588,3.5,3.5,0,0,0-1.564,2.154,2.487,2.487,0,0,0,.312,1.894,2.62,2.62,0,0,0,2.271,1.143h0a3.637,3.637,0,0,0,1.954-.588,3.5,3.5,0,0,0,1.564-2.154,2.487,2.487,0,0,0-.312-1.894A2.62,2.62,0,0,0,346.809,23.957Z" transform="translate(-293.924 -4.58)" fill="#ff9e17"/>
        <path id="パス_1178" data-name="パス 1178" d="M287.309,24.006c0,12.9,10.7,23.364,23.89,23.364s23.891-10.461,23.891-23.364S324.394.642,311.2.642s-23.89,10.461-23.89,23.364" transform="translate(-283.89 -0.322)" fill="#ffe1b0"/>
        <path id="パス_1179" data-name="パス 1179" d="M311.2,47.629a24.46,24.46,0,0,1-9.4-1.856,24.106,24.106,0,0,1-7.676-5.061,23.523,23.523,0,0,1-5.176-7.509,23.223,23.223,0,0,1,0-18.394A23.523,23.523,0,0,1,294.126,7.3,24.106,24.106,0,0,1,301.8,2.239a24.726,24.726,0,0,1,18.8,0A24.106,24.106,0,0,1,328.274,7.3a23.522,23.522,0,0,1,5.177,7.509,23.223,23.223,0,0,1,0,18.394,23.522,23.522,0,0,1-5.177,7.509,24.106,24.106,0,0,1-7.676,5.061A24.462,24.462,0,0,1,311.2,47.629ZM311.2.9c-13.031,0-23.632,10.365-23.632,23.106s10.6,23.106,23.632,23.106,23.633-10.365,23.633-23.106S324.23.9,311.2.9Z" transform="translate(-283.89 -0.322)" fill="#ff9e17"/>
        <path id="パス_1180" data-name="パス 1180" d="M300.022,35.034c.57,2.593,2.738,4.323,4.844,3.865s3.351-2.93,2.781-5.523-2.738-4.323-4.844-3.865-3.351,2.93-2.781,5.523" transform="translate(-286.157 -5.64)" fill="#1f1b4b"/>
        <path id="パス_1181" data-name="パス 1181" d="M326.777,30.322c.57,2.593,2.738,4.323,4.844,3.865s3.351-2.93,2.781-5.523-2.738-4.323-4.844-3.865-3.351,2.93-2.781,5.523" transform="translate(-290.98 -4.77)" fill="#1f1b4b"/>
        <path id="パス_1182" data-name="パス 1182" d="M300.407,45.921a2.985,2.985,0,1,0,2.949-2.527,2.762,2.762,0,0,0-2.949,2.527" transform="translate(-286.251 -8.217)" fill="#ffa798"/>
        <path id="パス_1183" data-name="パス 1183" d="M332.077,39.819a2.985,2.985,0,0,0,5.9,0,2.985,2.985,0,0,0-5.9,0" transform="translate(-291.96 -7.09)" fill="#ffa798"/>
        <path id="パス_1184" data-name="パス 1184" d="M319.417,39.355a.5.5,0,0,1-.384-.82c.654-.786.841-1.4.556-1.813a2.1,2.1,0,0,0-1.788-.755.5.5,0,0,1-.1-1,3.077,3.077,0,0,1,2.713,1.187c.567.831.361,1.846-.613,3.017A.5.5,0,0,1,319.417,39.355Z" transform="translate(-289.378 -6.752)" fill="#1f1b4b"/>
        <path id="パス_1185" data-name="パス 1185" d="M315.642,47.652a11.534,11.534,0,0,1-6.547-1.918.5.5,0,0,1,.6-.8,8.8,8.8,0,0,0,2,1.011,11.542,11.542,0,0,0,5.3.629,8.534,8.534,0,0,0,6.252-3.9.5.5,0,0,1,.876.482,8.594,8.594,0,0,1-1.681,2.012,9.524,9.524,0,0,1-5.335,2.4A12.972,12.972,0,0,1,315.642,47.652Z" transform="translate(-287.871 -8.129)" fill="#1f1b4b"/>
        <path id="パス_1186" data-name="パス 1186" d="M287.716,28.379a23.068,23.068,0,0,1-.543-4.553c0-13.021,10.87-23.576,24.28-23.576a23.634,23.634,0,0,1,23.315,19.983l-.345-.164c-4.666-2.059-6.219-9.542-6.454-8.871-.451,1.285-2.032,4.342-5.1,4.612-4.242.373-6.3-5.061-6.525-4.386-.357,1.068-.39,4.945-5.039,5.651-4.931.748-6.233-4.316-6.318-3.746-.306,2.061-1.486,5.336-4.435,6.034a4.948,4.948,0,0,1-5.992-2.551c-.375-.654-.4-.561-.715.562-.307,1.081-2.2,9.389-5.89,10.924Z" transform="translate(-283.865 -0.25)" fill="#1f1b4b"/>
        <path id="パス_1187" data-name="パス 1187" d="M287.716,28.629a.25.25,0,0,1-.246-.2,23.426,23.426,0,0,1-.548-4.6,23.093,23.093,0,0,1,1.929-9.277,23.72,23.72,0,0,1,5.258-7.574,24.5,24.5,0,0,1,7.8-5.1A25,25,0,0,1,311.453,0a23.768,23.768,0,0,1,8.553,1.566,23.344,23.344,0,0,1,7.081,4.293,24.6,24.6,0,0,1,7.928,14.333.25.25,0,0,1-.354.268l-.342-.162c-3.524-1.557-5.32-6.127-6.087-8.079-.069-.174-.138-.352-.2-.5-.5,1.164-2.055,4.071-5.144,4.342-.146.013-.293.019-.437.019-2.931,0-4.783-2.624-5.674-3.885-.094-.132-.193-.274-.278-.387-.021.093-.042.195-.065.3-.311,1.488-.958,4.584-5.095,5.212a6.751,6.751,0,0,1-1.008.078,5.281,5.281,0,0,1-3.724-1.476,7.963,7.963,0,0,1-1.481-1.966c-.5,2.427-1.908,5.03-4.521,5.649a7.347,7.347,0,0,1-1.681.21,5.1,5.1,0,0,1-4.586-2.88c-.015-.026-.041-.072-.071-.122-.051.153-.112.369-.175.592l-.01.036c-.023.083-.058.213-.1.379a38.879,38.879,0,0,1-1.826,5.513c-1.221,2.821-2.6,4.569-4.108,5.195l-.014.005-.234.082A.25.25,0,0,1,287.716,28.629ZM311.453.5c-13.25,0-24.029,10.464-24.029,23.326a22.1,22.1,0,0,0,.482,4.218c2.156-.939,4.037-4.421,5.591-10.351.044-.168.079-.3.1-.389l.01-.036c.093-.328.161-.564.222-.728.048-.126.147-.389.4-.389.237,0,.372.236.542.534a4.578,4.578,0,0,0,4.152,2.629,6.848,6.848,0,0,0,1.566-.2c3.335-.789,4.122-4.993,4.245-5.827a.279.279,0,0,1,.272-.259c.185,0,.254.128.441.472.505.929,1.846,3.4,4.882,3.395a6.25,6.25,0,0,0,.933-.073c3.793-.576,4.37-3.336,4.679-4.819a6.453,6.453,0,0,1,.16-.664.312.312,0,0,1,.3-.229c.229,0,.381.215.786.79.842,1.192,2.593,3.673,5.264,3.673.13,0,.262-.006.394-.017,3.338-.293,4.739-4.021,4.887-4.445a.291.291,0,0,1,.274-.21c.249,0,.334.217.692,1.129.738,1.878,2.458,6.254,5.738,7.765A23.465,23.465,0,0,0,311.453.5Z" transform="translate(-283.865 -0.25)" fill="#ff9e17"/>
      </g>
      <g id="グループ_317" data-name="グループ 317" transform="translate(-4418.676 -927.833)">
        <path id="パス_1013-2" data-name="パス 1013" d="M38.169,25.116A16.366,16.366,0,1,1,21.8,8.838,16.322,16.322,0,0,1,38.169,25.116" transform="translate(-5.438 -8.838)" fill="#ff9e17"/>
        <path id="パス_1014-2" data-name="パス 1014" d="M35.614,23.191l-.976-2.982L26.648,22.8,31.6,16.048,29.058,14.2l-4.984,6.787v-8.4H20.921v8.4L15.938,14.2l-2.546,1.85L18.347,22.8l-7.99-2.588-.976,2.982,8.026,2.6-8.026,2.6.976,2.982,7.99-2.588-4.956,6.749,2.546,1.85L20.921,30.6V39h3.153V30.6l4.984,6.787,2.546-1.85-4.956-6.749,7.99,2.588.976-2.982-8.026-2.6Z" transform="translate(-6.132 -9.513)" fill="#134a26"/>
        <path id="パス_1015-2" data-name="パス 1015" d="M27.2,28.169a2.421,2.421,0,1,1-2.421-2.408A2.414,2.414,0,0,1,27.2,28.169" transform="translate(-8.416 -11.891)" fill="#fff"/>
      </g>
      <g id="グループ_318" data-name="グループ 318" transform="translate(-4117.577 -1583.14)">
        <path id="パス_1013-3" data-name="パス 1013" d="M38.169,25.116A16.366,16.366,0,1,1,21.8,8.838,16.322,16.322,0,0,1,38.169,25.116" transform="translate(-5.438 -8.838)" fill="#ff9e17"/>
        <path id="パス_1014-3" data-name="パス 1014" d="M35.614,23.191l-.976-2.982L26.648,22.8,31.6,16.048,29.058,14.2l-4.984,6.787v-8.4H20.921v8.4L15.938,14.2l-2.546,1.85L18.347,22.8l-7.99-2.588-.976,2.982,8.026,2.6-8.026,2.6.976,2.982,7.99-2.588-4.956,6.749,2.546,1.85L20.921,30.6V39h3.153V30.6l4.984,6.787,2.546-1.85-4.956-6.749,7.99,2.588.976-2.982-8.026-2.6Z" transform="translate(-6.132 -9.513)" fill="#134a26"/>
        <path id="パス_1015-3" data-name="パス 1015" d="M27.2,28.169a2.421,2.421,0,1,1-2.421-2.408A2.414,2.414,0,0,1,27.2,28.169" transform="translate(-8.416 -11.891)" fill="#fff"/>
      </g>
      <g id="グループ_319" data-name="グループ 319" transform="translate(-4117.159 -927.833)">
        <path id="パス_1013-4" data-name="パス 1013" d="M38.169,25.116A16.366,16.366,0,1,1,21.8,8.838,16.322,16.322,0,0,1,38.169,25.116" transform="translate(-5.438 -8.838)" fill="#ff9e17"/>
        <path id="パス_1014-4" data-name="パス 1014" d="M35.614,23.191l-.976-2.982L26.648,22.8,31.6,16.048,29.058,14.2l-4.984,6.787v-8.4H20.921v8.4L15.938,14.2l-2.546,1.85L18.347,22.8l-7.99-2.588-.976,2.982,8.026,2.6-8.026,2.6.976,2.982,7.99-2.588-4.956,6.749,2.546,1.85L20.921,30.6V39h3.153V30.6l4.984,6.787,2.546-1.85-4.956-6.749,7.99,2.588.976-2.982-8.026-2.6Z" transform="translate(-6.132 -9.513)" fill="#134a26"/>
        <path id="パス_1015-4" data-name="パス 1015" d="M27.2,28.169a2.421,2.421,0,1,1-2.421-2.408A2.414,2.414,0,0,1,27.2,28.169" transform="translate(-8.416 -11.891)" fill="#fff"/>
      </g>
      <g id="グループ_322" data-name="グループ 322" transform="translate(-4106.005 -1354.555)">
        <path id="パス_1052-2" data-name="パス 1052" d="M668.519,27.641a10.58,10.58,0,1,1-10.58-10.524,10.552,10.552,0,0,1,10.58,10.524" transform="translate(-647.359 -17.117)" fill="#fff7e5"/>
        <path id="パス_1053-2" data-name="パス 1053" d="M657.938,16.867a10.788,10.788,0,0,1,7.658,3.155,10.735,10.735,0,0,1,0,15.237,10.8,10.8,0,1,1-7.658-18.392Zm0,21.048a10.274,10.274,0,1,0-10.329-10.274A10.314,10.314,0,0,0,657.938,37.915Z" transform="translate(-647.359 -17.117)" fill="#ff9e17"/>
        <path id="線_4-2" data-name="線 4" d="M.25,20.782h-.5V0h.5Z" transform="translate(10.579 0.133)" fill="#ff9e17"/>
        <path id="線_5-2" data-name="線 5" d="M.124,10.608l-.249-.434L17.97-.217l.249.434Z" transform="translate(1.532 5.328)" fill="#ff9e17"/>
        <path id="線_6-2" data-name="線 6" d="M17.97,10.608-.124.217.125-.217,18.219,10.174Z" transform="translate(1.532 5.328)" fill="#ff9e17"/>
      </g>
      <g id="グループ_324" data-name="グループ 324" transform="translate(-4106.005 -1287.853)">
        <path id="パス_1063-2" data-name="パス 1063" d="M5.814,181.574a10.621,10.621,0,0,1,14.962,0l-7.48,7.441Z" transform="translate(-2.715 -178.491)" fill="#92221b"/>
        <path id="パス_1064-2" data-name="パス 1064" d="M5.152,182.252a10.484,10.484,0,0,0,0,14.882l7.482-7.441Z" transform="translate(-2.053 -179.17)" fill="#fff7e5"/>
        <path id="パス_1065-2" data-name="パス 1065" d="M20.776,198.772a10.621,10.621,0,0,1-14.962,0l7.481-7.441Z" transform="translate(-2.715 -180.808)" fill="#fff7e5"/>
        <path id="パス_1066-2" data-name="パス 1066" d="M22.374,197.134a10.484,10.484,0,0,0,0-14.882l-7.481,7.441Z" transform="translate(-4.312 -179.17)" fill="#92221b"/>
        <path id="パス_1067-2" data-name="パス 1067" d="M12.633,178.242a10.788,10.788,0,0,1,7.658,3.155,10.733,10.733,0,0,1,0,15.237,10.871,10.871,0,0,1-15.315,0,10.733,10.733,0,0,1,0-15.237A10.788,10.788,0,0,1,12.633,178.242Zm0,21.047A10.274,10.274,0,1,0,2.3,189.016,10.313,10.313,0,0,0,12.633,199.289Z" transform="translate(-2.053 -178.492)" fill="#ff9e17"/>
      </g>
      <g id="グループ_325" data-name="グループ 325" transform="translate(-4102.854 -1258.188)">
        <path id="パス_1160-2" data-name="パス 1160" d="M724.22,76.5a10.58,10.58,0,1,1-10.58-10.524A10.552,10.552,0,0,1,724.22,76.5" transform="translate(-703.061 -65.979)" fill="#0f4f28"/>
        <path id="パス_1161-2" data-name="パス 1161" d="M713.64,65.729a10.788,10.788,0,0,1,7.658,3.155,10.734,10.734,0,0,1,0,15.237,10.87,10.87,0,0,1-15.315,0,10.735,10.735,0,0,1,0-15.237A10.787,10.787,0,0,1,713.64,65.729Zm0,21.048A10.274,10.274,0,1,0,703.311,76.5,10.314,10.314,0,0,0,713.64,86.777Z" transform="translate(-703.061 -65.979)" fill="#ff9e17"/>
      </g>
      <g id="グループ_326" data-name="グループ 326" transform="translate(-4106.006 -1232.437)">
        <path id="パス_1162-2" data-name="パス 1162" d="M721.806,109.546a10.58,10.58,0,1,1-10.581-10.524,10.553,10.553,0,0,1,10.581,10.524" transform="translate(-700.646 -99.022)" fill="#fefeed"/>
        <path id="パス_1163-2" data-name="パス 1163" d="M711.225,98.772a10.789,10.789,0,0,1,7.659,3.155,10.733,10.733,0,0,1,0,15.237,10.8,10.8,0,1,1-7.659-18.392Zm0,21.048A10.274,10.274,0,1,0,700.9,109.546,10.314,10.314,0,0,0,711.225,119.82Z" transform="translate(-700.646 -99.022)" fill="#ff9e17"/>
        <path id="パス_1205-2" data-name="パス 1205" d="M0,0,4.88.013,4.918,14.12l-4.88-.013Z" transform="translate(3.849 7.27) rotate(-45)" fill="#241f4a"/>
        <path id="パス_1206-2" data-name="パス 1206" d="M0,0,14.107.038l.013,4.88L.013,4.88Z" transform="translate(3.849 13.777) rotate(-45)" fill="#241f4a"/>
      </g>
      <g id="グループ_327" data-name="グループ 327" transform="translate(-4102.854 -1200.163)">
        <path id="パス_1159-2" data-name="パス 1159" d="M724.684,149.728A10.58,10.58,0,1,1,714.1,139.2a10.552,10.552,0,0,1,10.58,10.524" transform="translate(-703.524 -139.204)" fill="#ff9e17"/>
        <path id="パス_1204-2" data-name="パス 1204" d="M0,0,11.967.032,12,12,.032,11.967Z" transform="translate(2.095 10.524) rotate(-45)" fill="#92221b"/>
      </g>
      <g id="グループ_328" data-name="グループ 328" transform="translate(-4103.95 -1166.205)">
        <path id="パス_1154-2" data-name="パス 1154" d="M720.287,199.116a10.621,10.621,0,0,1-14.962,0l7.481-7.441Z" transform="translate(-702.226 -181.152)" fill="#92221b"/>
        <path id="パス_1155-2" data-name="パス 1155" d="M721.885,197.478a10.484,10.484,0,0,0,0-14.883l-7.481,7.441Z" transform="translate(-703.824 -179.514)" fill="#fff7e5"/>
        <path id="パス_1156-2" data-name="パス 1156" d="M705.325,181.918a10.621,10.621,0,0,1,14.962,0l-7.481,7.441Z" transform="translate(-702.226 -178.835)" fill="#fff7e5"/>
        <path id="パス_1157-2" data-name="パス 1157" d="M704.663,182.6a10.484,10.484,0,0,0,0,14.883l7.481-7.441Z" transform="translate(-701.564 -179.514)" fill="#92221b"/>
        <path id="パス_1158-2" data-name="パス 1158" d="M712.144,200.133a10.788,10.788,0,0,1-7.658-3.155,10.733,10.733,0,0,1,0-15.237,10.871,10.871,0,0,1,15.315,0,10.733,10.733,0,0,1,0,15.237A10.788,10.788,0,0,1,712.144,200.133Zm0-21.047a10.274,10.274,0,1,0,10.33,10.273A10.313,10.313,0,0,0,712.144,179.086Z" transform="translate(-701.564 -178.836)" fill="#ff9e17"/>
      </g>
      <g id="グループ_329" data-name="グループ 329" transform="translate(-4111.75 -1137.488)">
        <path id="パス_1034-2" data-name="パス 1034" d="M543.775,30.859a10.552,10.552,0,0,1-10.58,10.524V30.859Z" transform="translate(-522.615 -20.335)" fill="#241f4a"/>
        <path id="パス_1035-2" data-name="パス 1035" d="M543.775,28.543a10.552,10.552,0,0,0-10.58-10.524V28.543Z" transform="translate(-522.615 -18.019)" fill="#1a4f27"/>
        <path id="パス_1036-2" data-name="パス 1036" d="M520.356,28.543a10.552,10.552,0,0,1,10.58-10.524V28.543Z" transform="translate(-520.356 -18.019)" fill="#241f4a"/>
        <path id="パス_1037-2" data-name="パス 1037" d="M520.356,30.859a10.552,10.552,0,0,0,10.58,10.524V30.859Z" transform="translate(-520.356 -20.335)" fill="#1a4f27"/>
        <path id="パス_1038-2" data-name="パス 1038" d="M530.935,17.769a10.788,10.788,0,0,1,7.658,3.155,10.734,10.734,0,0,1,0,15.237,10.87,10.87,0,0,1-15.315,0,10.735,10.735,0,0,1,0-15.237A10.787,10.787,0,0,1,530.935,17.769Zm0,21.048a10.274,10.274,0,1,0-10.329-10.274A10.314,10.314,0,0,0,530.935,38.817Z" transform="translate(-520.356 -18.019)" fill="#ff9e17"/>
      </g>
      <g id="グループ_330" data-name="グループ 330" transform="translate(-4113.435 -1110.852)">
        <path id="パス_1039-2" data-name="パス 1039" d="M575.046,29.865a10.58,10.58,0,1,1-10.58-10.524,10.552,10.552,0,0,1,10.58,10.524" transform="translate(-553.886 -19.341)" fill="#ffd599"/>
        <path id="パス_1040-2" data-name="パス 1040" d="M564.465,19.091a10.788,10.788,0,0,1,7.658,3.155,10.734,10.734,0,0,1,0,15.237,10.87,10.87,0,0,1-15.315,0,10.735,10.735,0,0,1,0-15.237A10.787,10.787,0,0,1,564.465,19.091Zm0,21.048a10.274,10.274,0,1,0-10.329-10.274A10.314,10.314,0,0,0,564.465,40.139Z" transform="translate(-553.886 -19.341)" fill="#ff9e17"/>
      </g>
      <g id="グループ_331" data-name="グループ 331" transform="translate(-4106.005 -1080.323)">
        <path id="パス_1052-3" data-name="パス 1052" d="M668.519,27.641a10.58,10.58,0,1,1-10.58-10.524,10.552,10.552,0,0,1,10.58,10.524" transform="translate(-647.359 -17.117)" fill="#fff7e5"/>
        <path id="パス_1053-3" data-name="パス 1053" d="M657.938,16.867a10.788,10.788,0,0,1,7.658,3.155,10.735,10.735,0,0,1,0,15.237,10.8,10.8,0,1,1-7.658-18.392Zm0,21.048a10.274,10.274,0,1,0-10.329-10.274A10.314,10.314,0,0,0,657.938,37.915Z" transform="translate(-647.359 -17.117)" fill="#ff9e17"/>
        <path id="線_4-3" data-name="線 4" d="M.25,20.782h-.5V0h.5Z" transform="translate(10.579 0.133)" fill="#ff9e17"/>
        <path id="線_5-3" data-name="線 5" d="M.124,10.608l-.249-.434L17.97-.217l.249.434Z" transform="translate(1.532 5.328)" fill="#ff9e17"/>
        <path id="線_6-3" data-name="線 6" d="M17.97,10.608-.124.217.125-.217,18.219,10.174Z" transform="translate(1.532 5.328)" fill="#ff9e17"/>
      </g>
      <g id="グループ_332" data-name="グループ 332" transform="translate(-4114.53 -1056.053)">
        <path id="パス_1143-2" data-name="パス 1143" d="M713.049,324.548a10.58,10.58,0,1,1-10.581-10.524,10.552,10.552,0,0,1,10.581,10.524" transform="translate(-691.889 -314.024)" fill="#ffd599"/>
        <path id="パス_1144-2" data-name="パス 1144" d="M702.468,313.774a10.789,10.789,0,0,1,7.658,3.155,10.734,10.734,0,0,1,0,15.237,10.8,10.8,0,1,1-7.658-18.392Zm0,21.048a10.274,10.274,0,1,0-10.329-10.274A10.314,10.314,0,0,0,702.468,334.822Z" transform="translate(-691.889 -314.024)" fill="#ff9e17"/>
        <path id="パス_1210-2" data-name="パス 1210" d="M5.949-2.187h0A8.144,8.144,0,0,1,14.1,5.926a8.036,8.036,0,0,1-2.385,5.739,8.152,8.152,0,0,1-13.9-5.742A8.036,8.036,0,0,1,.2.184,8.1,8.1,0,0,1,5.949-2.187Z" transform="translate(4.069 5.215) rotate(-5.655)" fill="#26244a"/>
      </g>
      <g id="グループ_334" data-name="グループ 334" transform="translate(-4119.593 -1024.823)">
        <path id="パス_1076-2" data-name="パス 1076" d="M16.656,323.011a10.552,10.552,0,0,1,10.58-10.524v10.524Z" transform="translate(-16.655 -312.487)" fill="#241f4a"/>
        <path id="パス_1077-2" data-name="パス 1077" d="M16.656,325.327a10.552,10.552,0,0,0,10.58,10.524V325.327Z" transform="translate(-16.655 -314.803)" fill="#ffd599"/>
        <path id="パス_1078-2" data-name="パス 1078" d="M40.075,325.327a10.552,10.552,0,0,1-10.58,10.524V325.327Z" transform="translate(-18.915 -314.803)" fill="#241f4a"/>
        <path id="パス_1079-2" data-name="パス 1079" d="M40.075,323.011a10.552,10.552,0,0,0-10.58-10.524v10.524Z" transform="translate(-18.915 -312.487)" fill="#ffd599"/>
        <path id="パス_1080-2" data-name="パス 1080" d="M27.235,312.237a10.788,10.788,0,0,1,7.658,3.155,10.734,10.734,0,0,1,0,15.237,10.871,10.871,0,0,1-15.315,0,10.734,10.734,0,0,1,0-15.237A10.788,10.788,0,0,1,27.235,312.237Zm0,21.047A10.274,10.274,0,1,0,16.9,323.011,10.313,10.313,0,0,0,27.235,333.284Z" transform="translate(-16.655 -312.487)" fill="#ff9e17"/>
      </g>
      <g id="グループ_336" data-name="グループ 336" transform="translate(-4103.95 -998.743)">
        <path id="パス_1116" data-name="パス 1116" d="M503.73,517.266a10.552,10.552,0,0,1-10.58-10.524h10.58Z" transform="translate(-493.15 -496.219)" fill="#241f4a"/>
        <path id="パス_1117" data-name="パス 1117" d="M505.99,517.266a10.552,10.552,0,0,0,10.58-10.524H505.99Z" transform="translate(-495.41 -496.219)" fill="#92221b"/>
        <path id="パス_1118" data-name="パス 1118" d="M505.99,493.9a10.552,10.552,0,0,1,10.58,10.524H505.99Z" transform="translate(-495.41 -493.903)" fill="#241f4a"/>
        <path id="パス_1119" data-name="パス 1119" d="M503.73,493.9a10.552,10.552,0,0,0-10.58,10.524h10.58Z" transform="translate(-493.15 -493.903)" fill="#92221b"/>
        <path id="パス_1120" data-name="パス 1120" d="M503.73,515.2a10.788,10.788,0,0,1-7.658-3.155,10.734,10.734,0,0,1,0-15.237,10.871,10.871,0,0,1,15.315,0,10.734,10.734,0,0,1,0,15.237A10.788,10.788,0,0,1,503.73,515.2Zm0-21.047a10.274,10.274,0,1,0,10.33,10.273A10.313,10.313,0,0,0,503.73,494.153Z" transform="translate(-493.15 -493.903)" fill="#ff9e17"/>
      </g>
      <g id="グループ_337" data-name="グループ 337" transform="translate(-4112.338 -971.342)">
        <path id="パス_1162-3" data-name="パス 1162" d="M721.806,109.546a10.58,10.58,0,1,1-10.581-10.524,10.553,10.553,0,0,1,10.581,10.524" transform="translate(-700.646 -99.022)" fill="#fefeed"/>
        <path id="パス_1163-3" data-name="パス 1163" d="M711.225,98.772a10.789,10.789,0,0,1,7.659,3.155,10.733,10.733,0,0,1,0,15.237,10.8,10.8,0,1,1-7.659-18.392Zm0,21.048A10.274,10.274,0,1,0,700.9,109.546,10.314,10.314,0,0,0,711.225,119.82Z" transform="translate(-700.646 -99.022)" fill="#ff9e17"/>
        <path id="パス_1205-3" data-name="パス 1205" d="M0,0,4.88.013,4.918,14.12l-4.88-.013Z" transform="translate(3.849 7.27) rotate(-45)" fill="#241f4a"/>
        <path id="パス_1206-3" data-name="パス 1206" d="M0,0,14.107.038l.013,4.88L.013,4.88Z" transform="translate(3.849 13.777) rotate(-45)" fill="#241f4a"/>
      </g>
      <g id="グループ_353" data-name="グループ 353" transform="translate(-4413.979 -1244.446)">
        <path id="パス_1082-2" data-name="パス 1082" d="M27.706,259.377a10.58,10.58,0,1,1-10.58-10.524,10.552,10.552,0,0,1,10.58,10.524" transform="translate(-6.546 -248.853)" fill="#fefeed"/>
        <path id="パス_1083-2" data-name="パス 1083" d="M17.125,248.6a10.788,10.788,0,0,1,7.658,3.155,10.734,10.734,0,0,1,0,15.237,10.87,10.87,0,0,1-15.315,0,10.735,10.735,0,0,1,0-15.237A10.787,10.787,0,0,1,17.125,248.6Zm0,21.048A10.274,10.274,0,1,0,6.8,259.377,10.314,10.314,0,0,0,17.125,269.651Z" transform="translate(-6.546 -248.853)" fill="#ff9e17"/>
        <path id="パス_1208-2" data-name="パス 1208" d="M5.914-2.187h.008a8.154,8.154,0,0,1,5.75,13.9A8.033,8.033,0,0,1,5.937,14.1H5.929A8.154,8.154,0,0,1,.179.2,8.033,8.033,0,0,1,5.914-2.187Zm.019,11.91a3.691,3.691,0,0,0,2.637-1.1A3.78,3.78,0,0,0,5.917,2.187h0a3.688,3.688,0,0,0-2.633,1.1A3.78,3.78,0,0,0,5.933,9.723Z" transform="matrix(0.183, -0.983, 0.983, 0.183, 3.642, 15.259)" fill="#241f4a"/>
      </g>
      <g id="グループ_355" data-name="グループ 355" transform="translate(-4412.033 -1407.899)">
        <path id="パス_1061-2" data-name="パス 1061" d="M34.783,225.008A10.58,10.58,0,1,1,24.2,214.484a10.552,10.552,0,0,1,10.58,10.524" transform="translate(-13.623 -214.484)" fill="#0f4f28"/>
        <path id="パス_1062-2" data-name="パス 1062" d="M24.2,214.234a10.788,10.788,0,0,1,7.658,3.155,10.734,10.734,0,0,1,0,15.237,10.87,10.87,0,0,1-15.315,0,10.735,10.735,0,0,1,0-15.237A10.787,10.787,0,0,1,24.2,214.234Zm0,21.048a10.274,10.274,0,1,0-10.329-10.274A10.314,10.314,0,0,0,24.2,235.282Z" transform="translate(-13.623 -214.484)" fill="#ff9e17"/>
      </g>
      <g id="グループ_356" data-name="グループ 356" transform="translate(-4421.567 -1442.872)">
        <path id="パス_1063-3" data-name="パス 1063" d="M5.814,181.574a10.621,10.621,0,0,1,14.962,0l-7.48,7.441Z" transform="translate(-2.715 -178.491)" fill="#92221b"/>
        <path id="パス_1064-3" data-name="パス 1064" d="M5.152,182.252a10.484,10.484,0,0,0,0,14.882l7.482-7.441Z" transform="translate(-2.053 -179.17)" fill="#fff7e5"/>
        <path id="パス_1065-3" data-name="パス 1065" d="M20.776,198.772a10.621,10.621,0,0,1-14.962,0l7.481-7.441Z" transform="translate(-2.715 -180.808)" fill="#fff7e5"/>
        <path id="パス_1066-3" data-name="パス 1066" d="M22.374,197.134a10.484,10.484,0,0,0,0-14.882l-7.481,7.441Z" transform="translate(-4.312 -179.17)" fill="#92221b"/>
        <path id="パス_1067-3" data-name="パス 1067" d="M12.633,178.242a10.788,10.788,0,0,1,7.658,3.155,10.733,10.733,0,0,1,0,15.237,10.871,10.871,0,0,1-15.315,0,10.733,10.733,0,0,1,0-15.237A10.788,10.788,0,0,1,12.633,178.242Zm0,21.047A10.274,10.274,0,1,0,2.3,189.016,10.313,10.313,0,0,0,12.633,199.289Z" transform="translate(-2.053 -178.492)" fill="#ff9e17"/>
      </g>
      <g id="グループ_357" data-name="グループ 357" transform="translate(-4421.566 -1472.901)">
        <path id="パス_1068-2" data-name="パス 1068" d="M23.214,152.378a10.58,10.58,0,1,1-10.58-10.524,10.552,10.552,0,0,1,10.58,10.524" transform="translate(-2.054 -141.854)" fill="#fff7e5"/>
        <path id="パス_1069-2" data-name="パス 1069" d="M12.633,141.6a10.788,10.788,0,0,1,7.658,3.155,10.734,10.734,0,0,1,0,15.237,10.87,10.87,0,0,1-15.315,0,10.735,10.735,0,0,1,0-15.237A10.787,10.787,0,0,1,12.633,141.6Zm0,21.048A10.274,10.274,0,1,0,2.3,152.378,10.314,10.314,0,0,0,12.633,162.652Z" transform="translate(-2.054 -141.854)" fill="#ff9e17"/>
        <path id="線_7-2" data-name="線 7" d="M.25,20.782h-.5V0h.5Z" transform="translate(10.58 0.132)" fill="#ff9e17"/>
        <path id="線_8-2" data-name="線 8" d="M.125,10.608l-.249-.434L17.97-.217l.249.434Z" transform="translate(1.533 5.328)" fill="#ff9e17"/>
        <path id="線_9-2" data-name="線 9" d="M17.97,10.608-.125.217.124-.217,18.219,10.174Z" transform="translate(1.533 5.328)" fill="#ff9e17"/>
      </g>
      <g id="グループ_358" data-name="グループ 358" transform="translate(-4423.052 -1344.335)">
        <path id="パス_1074-2" data-name="パス 1074" d="M21.41,295.883a10.58,10.58,0,1,1-10.58-10.524,10.552,10.552,0,0,1,10.58,10.524" transform="translate(-0.25 -285.359)" fill="#fefeed"/>
        <path id="パス_1075-2" data-name="パス 1075" d="M10.829,285.109a10.788,10.788,0,0,1,7.658,3.155,10.734,10.734,0,0,1,0,15.237,10.87,10.87,0,0,1-15.315,0,10.735,10.735,0,0,1,0-15.237A10.787,10.787,0,0,1,10.829,285.109Zm0,21.048A10.274,10.274,0,1,0,.5,295.883,10.314,10.314,0,0,0,10.829,306.157Z" transform="translate(-0.25 -285.359)" fill="#ff9e17"/>
        <path id="パス_1192-2" data-name="パス 1192" d="M0,0,4.88.013,4.918,14.12l-4.88-.013Z" transform="translate(3.849 7.27) rotate(-45)" fill="#982317"/>
        <path id="パス_1193-2" data-name="パス 1193" d="M0,0,14.107.038l.013,4.88L.013,4.88Z" transform="translate(3.849 13.777) rotate(-45)" fill="#982317"/>
      </g>
      <g id="グループ_359" data-name="グループ 359" transform="translate(-4409.534 -1322.1)">
        <path id="パス_1076-3" data-name="パス 1076" d="M16.656,323.011a10.552,10.552,0,0,1,10.58-10.524v10.524Z" transform="translate(-16.655 -312.487)" fill="#241f4a"/>
        <path id="パス_1077-3" data-name="パス 1077" d="M16.656,325.327a10.552,10.552,0,0,0,10.58,10.524V325.327Z" transform="translate(-16.655 -314.803)" fill="#ffd599"/>
        <path id="パス_1078-3" data-name="パス 1078" d="M40.075,325.327a10.552,10.552,0,0,1-10.58,10.524V325.327Z" transform="translate(-18.915 -314.803)" fill="#241f4a"/>
        <path id="パス_1079-3" data-name="パス 1079" d="M40.075,323.011a10.552,10.552,0,0,0-10.58-10.524v10.524Z" transform="translate(-18.915 -312.487)" fill="#ffd599"/>
        <path id="パス_1080-3" data-name="パス 1080" d="M27.235,312.237a10.788,10.788,0,0,1,7.658,3.155,10.734,10.734,0,0,1,0,15.237,10.871,10.871,0,0,1-15.315,0,10.734,10.734,0,0,1,0-15.237A10.788,10.788,0,0,1,27.235,312.237Zm0,21.047A10.274,10.274,0,1,0,16.9,323.011,10.313,10.313,0,0,0,27.235,333.284Z" transform="translate(-16.655 -312.487)" fill="#ff9e17"/>
      </g>
      <g id="グループ_360" data-name="グループ 360" transform="translate(-4417.864 -1375.35)">
        <path id="パス_1082-3" data-name="パス 1082" d="M27.706,259.377a10.58,10.58,0,1,1-10.58-10.524,10.552,10.552,0,0,1,10.58,10.524" transform="translate(-6.546 -248.853)" fill="#fefeed"/>
        <path id="パス_1083-3" data-name="パス 1083" d="M17.125,248.6a10.788,10.788,0,0,1,7.658,3.155,10.734,10.734,0,0,1,0,15.237,10.87,10.87,0,0,1-15.315,0,10.735,10.735,0,0,1,0-15.237A10.787,10.787,0,0,1,17.125,248.6Zm0,21.048A10.274,10.274,0,1,0,6.8,259.377,10.314,10.314,0,0,0,17.125,269.651Z" transform="translate(-6.546 -248.853)" fill="#ff9e17"/>
        <path id="パス_1208-3" data-name="パス 1208" d="M5.914-2.187h.008a8.154,8.154,0,0,1,5.75,13.9A8.033,8.033,0,0,1,5.937,14.1H5.929A8.154,8.154,0,0,1,.179.2,8.033,8.033,0,0,1,5.914-2.187Zm.019,11.91a3.691,3.691,0,0,0,2.637-1.1A3.78,3.78,0,0,0,5.917,2.187h0a3.688,3.688,0,0,0-2.633,1.1A3.78,3.78,0,0,0,5.933,9.723Z" transform="matrix(0.183, -0.983, 0.983, 0.183, 3.642, 15.259)" fill="#241f4a"/>
      </g>
      <g id="グループ_361" data-name="グループ 361" transform="translate(-4414.881 -1507.184)">
        <path id="パス_1082-4" data-name="パス 1082" d="M27.706,259.377a10.58,10.58,0,1,1-10.58-10.524,10.552,10.552,0,0,1,10.58,10.524" transform="translate(-6.546 -248.853)" fill="#fefeed"/>
        <path id="パス_1083-4" data-name="パス 1083" d="M17.125,248.6a10.788,10.788,0,0,1,7.658,3.155,10.734,10.734,0,0,1,0,15.237,10.87,10.87,0,0,1-15.315,0,10.735,10.735,0,0,1,0-15.237A10.787,10.787,0,0,1,17.125,248.6Zm0,21.048A10.274,10.274,0,1,0,6.8,259.377,10.314,10.314,0,0,0,17.125,269.651Z" transform="translate(-6.546 -248.853)" fill="#ff9e17"/>
        <path id="パス_1208-4" data-name="パス 1208" d="M5.914-2.187h.008a8.154,8.154,0,0,1,5.75,13.9A8.033,8.033,0,0,1,5.937,14.1H5.929A8.154,8.154,0,0,1,.179.2,8.033,8.033,0,0,1,5.914-2.187Zm.019,11.91a3.691,3.691,0,0,0,2.637-1.1A3.78,3.78,0,0,0,5.917,2.187h0a3.688,3.688,0,0,0-2.633,1.1A3.78,3.78,0,0,0,5.933,9.723Z" transform="matrix(0.183, -0.983, 0.983, 0.183, 3.642, 15.259)" fill="#241f4a"/>
      </g>
    </g>
  </g>
</svg>
