<svg xmlns="http://www.w3.org/2000/svg" width="869.557" height="633.998" viewBox="0 0 869.557 633.998">
  <g id="グループ_434" data-name="グループ 434" transform="translate(-505.615 -151.152)">
    <path id="パス_1006" data-name="パス 1006" d="M823.895,592.5H37.212V40.972H823.895ZM841.721,23.241H19.386V610.23H841.721Z" transform="translate(511.615 155.403)" fill="#ff9e17"/>
    <path id="パス_1007" data-name="パス 1007" d="M51.822,515.926A23.621,23.621,0,1,1,28.2,492.432a23.557,23.557,0,0,1,23.62,23.494" transform="translate(508.813 241.233)" fill="#ff9e17"/>
    <path id="パス_1008" data-name="パス 1008" d="M46.386,511.489l-1.409-4.3-11.531,3.736,7.152-9.741-3.675-2.67-7.193,9.8v-12.13H25.18v12.13l-7.193-9.8-3.675,2.67,7.152,9.741L9.934,507.185l-1.409,4.3,11.584,3.754L8.524,519l1.409,4.3,11.531-3.736L14.313,529.3l3.675,2.67,7.193-9.8v12.13h4.55v-12.13l7.193,9.8L40.6,529.3l-7.152-9.741L44.977,523.3l1.409-4.3L34.8,515.242Z" transform="translate(509.559 241.918)" fill="#134a26"/>
    <path id="パス_1009" data-name="パス 1009" d="M28.492,512.83A3.494,3.494,0,1,1,25,509.355a3.484,3.484,0,0,1,3.494,3.475" transform="translate(512.016 244.329)" fill="#fff"/>
    <path id="パス_1010" data-name="パス 1010" d="M732.924,515.926a23.621,23.621,0,1,1-23.62-23.494,23.557,23.557,0,0,1,23.62,23.494" transform="translate(637.731 241.233)" fill="#ff9e17"/>
    <path id="パス_1011" data-name="パス 1011" d="M727.488,511.489l-1.409-4.3-11.531,3.736,7.152-9.741-3.675-2.67-7.193,9.8v-12.13h-4.55v12.13l-7.193-9.8-3.675,2.67,7.152,9.741-11.531-3.736-1.409,4.3,11.584,3.754L689.626,519l1.409,4.3,11.531-3.736-7.152,9.741,3.675,2.67,7.193-9.8v12.13h4.55v-12.13l7.193,9.8,3.675-2.67-7.152-9.741,11.531,3.736,1.409-4.3L715.9,515.242Z" transform="translate(638.478 241.918)" fill="#134a26"/>
    <path id="パス_1012" data-name="パス 1012" d="M709.594,512.83a3.494,3.494,0,1,1-3.494-3.475,3.484,3.484,0,0,1,3.494,3.475" transform="translate(640.935 244.329)" fill="#fff"/>
    <path id="パス_1013" data-name="パス 1013" d="M52.679,32.332A23.621,23.621,0,1,1,29.058,8.838a23.557,23.557,0,0,1,23.62,23.494" transform="translate(508.975 152.769)" fill="#ff9e17"/>
    <path id="パス_1014" data-name="パス 1014" d="M47.243,27.894l-1.409-4.3L34.3,27.326l7.152-9.741-3.675-2.67-7.193,9.8V12.581h-4.55v12.13l-7.193-9.8-3.675,2.67,7.152,9.741L10.79,23.591l-1.409,4.3,11.584,3.753L9.381,35.4l1.409,4.3,11.531-3.736L15.169,45.71l3.675,2.67,7.193-9.8v12.13h4.55V38.584l7.193,9.8,3.675-2.67L34.3,35.969,45.834,39.7l1.409-4.3L35.659,31.648Z" transform="translate(509.721 153.453)" fill="#134a26"/>
    <path id="パス_1015" data-name="パス 1015" d="M29.349,29.236a3.494,3.494,0,1,1-3.494-3.475,3.484,3.484,0,0,1,3.494,3.475" transform="translate(512.178 155.865)" fill="#fff"/>
    <path id="パス_1016" data-name="パス 1016" d="M732.924,32.332A23.621,23.621,0,1,1,709.3,8.838a23.557,23.557,0,0,1,23.62,23.494" transform="translate(637.731 152.769)" fill="#ff9e17"/>
    <path id="パス_1017" data-name="パス 1017" d="M727.488,27.894l-1.409-4.3-11.531,3.736,7.152-9.741-3.675-2.67-7.193,9.8V12.581h-4.55v12.13l-7.193-9.8-3.675,2.67,7.152,9.741-11.531-3.736-1.409,4.3,11.584,3.753L689.626,35.4l1.409,4.3,11.531-3.736-7.152,9.741,3.675,2.67,7.193-9.8v12.13h4.55V38.584l7.193,9.8,3.675-2.67-7.152-9.741L726.079,39.7l1.409-4.3L715.9,31.648Z" transform="translate(638.478 153.453)" fill="#134a26"/>
    <path id="パス_1018" data-name="パス 1018" d="M709.594,29.236a3.494,3.494,0,1,1-3.494-3.475,3.484,3.484,0,0,1,3.494,3.475" transform="translate(640.935 155.865)" fill="#fff"/>
    <path id="パス_1019" data-name="パス 1019" d="M89.6,23.08A15.27,15.27,0,1,1,74.326,7.891,15.23,15.23,0,0,1,89.6,23.08" transform="translate(519.124 152.595)" fill="#0049a9"/>
    <path id="パス_1020" data-name="パス 1020" d="M74.326,38.519A15.456,15.456,0,0,1,63.354,34a15.383,15.383,0,0,1,0-21.834,15.577,15.577,0,0,1,21.948,0A15.382,15.382,0,0,1,85.3,34,15.462,15.462,0,0,1,74.326,38.519Zm0-30.378A14.939,14.939,0,1,0,89.348,23.08,15,15,0,0,0,74.326,8.141Z" transform="translate(519.124 152.595)" fill="#ff9e17"/>
    <path id="パス_1021" data-name="パス 1021" d="M128.282,30.308a15.27,15.27,0,1,1-15.27-15.189,15.23,15.23,0,0,1,15.27,15.189" transform="translate(526.446 153.918)" fill="#fefeed"/>
    <path id="パス_1022" data-name="パス 1022" d="M113.011,14.869a15.46,15.46,0,0,1,10.974,4.522,15.382,15.382,0,0,1,0,21.834,15.577,15.577,0,0,1-21.948,0,15.382,15.382,0,0,1,0-21.834A15.458,15.458,0,0,1,113.011,14.869Zm0,30.378A14.939,14.939,0,1,0,97.992,30.308,15,15,0,0,0,113.011,45.247Z" transform="translate(526.446 153.918)" fill="#ff9e17"/>
    <path id="パス_1209" data-name="パス 1209" d="M8.536-2.187h.01A10.662,10.662,0,0,1,16.143.98a10.812,10.812,0,0,1,.014,15.237,10.631,10.631,0,0,1-7.59,3.16h-.01a10.662,10.662,0,0,1-7.6-3.167A10.812,10.812,0,0,1,.946.973,10.631,10.631,0,0,1,8.536-2.187ZM8.567,15a6.287,6.287,0,0,0,4.488-1.869A6.425,6.425,0,0,0,8.542,2.187H8.536A6.287,6.287,0,0,0,4.048,4.056,6.425,6.425,0,0,0,8.561,15Z" transform="matrix(0.174, -0.985, 0.985, 0.174, 629.51, 191.156)" fill="#982317"/>
    <path id="パス_1023" data-name="パス 1023" d="M202.2,19.4A15.27,15.27,0,1,1,186.928,4.21,15.229,15.229,0,0,1,202.2,19.4" transform="translate(540.437 151.922)" fill="#fefeed"/>
    <path id="パス_1024" data-name="パス 1024" d="M186.928,3.96A15.46,15.46,0,0,1,197.9,8.482a15.382,15.382,0,0,1,0,21.834,15.577,15.577,0,0,1-21.948,0,15.382,15.382,0,0,1,0-21.834A15.458,15.458,0,0,1,186.928,3.96Zm0,30.378A14.939,14.939,0,1,0,171.909,19.4,15,15,0,0,0,186.928,34.338Z" transform="translate(540.437 151.922)" fill="#ff9e17"/>
    <path id="パス_1188" data-name="パス 1188" d="M0,0,7.043.019,7.1,20.379.054,20.36Z" transform="translate(717.651 166.625) rotate(-45)" fill="#982317"/>
    <path id="パス_1189" data-name="パス 1189" d="M0,0,20.36.054,20.379,7.1.019,7.043Z" transform="translate(717.652 176.016) rotate(-45)" fill="#982317"/>
    <path id="パス_1025" data-name="パス 1025" d="M157.23,20.388A15.23,15.23,0,0,1,172.5,35.577H157.23Z" transform="translate(537.706 154.882)" fill="#241f4a"/>
    <path id="パス_1026" data-name="パス 1026" d="M159.66,20.388a15.23,15.23,0,0,0-15.27,15.189h15.27Z" transform="translate(535.275 154.882)" fill="#ffd599"/>
    <path id="パス_1027" data-name="パス 1027" d="M159.66,48.416a15.23,15.23,0,0,1-15.27-15.189h15.27Z" transform="translate(535.275 157.23)" fill="#241f4a"/>
    <path id="パス_1028" data-name="パス 1028" d="M157.23,48.416A15.23,15.23,0,0,0,172.5,33.227H157.23Z" transform="translate(537.706 157.23)" fill="#ffd599"/>
    <path id="パス_1029" data-name="パス 1029" d="M159.66,20.138a15.46,15.46,0,0,1,10.974,4.522,15.382,15.382,0,0,1,0,21.834,15.577,15.577,0,0,1-21.948,0,15.382,15.382,0,0,1,0-21.834A15.458,15.458,0,0,1,159.66,20.138Zm0,30.378a14.939,14.939,0,1,0-15.019-14.939A15,15,0,0,0,159.66,50.516Z" transform="translate(535.276 154.882)" fill="#ff9e17"/>
    <path id="パス_1030" data-name="パス 1030" d="M238.321,25.59A15.27,15.27,0,1,1,223.051,10.4a15.23,15.23,0,0,1,15.27,15.189" transform="translate(547.274 153.055)" fill="#fefeed"/>
    <path id="パス_1031" data-name="パス 1031" d="M223.051,10.151a15.46,15.46,0,0,1,10.974,4.522,15.382,15.382,0,0,1,0,21.834,15.577,15.577,0,0,1-21.948,0,15.382,15.382,0,0,1,0-21.834A15.458,15.458,0,0,1,223.051,10.151Zm0,30.378A14.939,14.939,0,1,0,208.032,25.59,15,15,0,0,0,223.051,40.529Z" transform="translate(547.274 153.055)" fill="#ff9e17"/>
    <path id="パス_1190" data-name="パス 1190" d="M8.522-2.187h.023A10.8,10.8,0,0,1,19.306,8.6,10.716,10.716,0,0,1,8.6,19.361H8.573A10.8,10.8,0,0,1-2.187,8.573,10.716,10.716,0,0,1,8.522-2.187ZM8.6,14.987A6.342,6.342,0,0,0,14.932,8.61a6.436,6.436,0,0,0-6.4-6.423H8.522A6.342,6.342,0,0,0,2.187,8.564a6.436,6.436,0,0,0,6.4,6.423Z" transform="translate(758.817 182.46) rotate(-63.435)" fill="#26244a"/>
    <path id="パス_1032" data-name="パス 1032" d="M272.718,32.818a15.27,15.27,0,1,1-15.27-15.189,15.23,15.23,0,0,1,15.27,15.189" transform="translate(553.785 154.377)" fill="#0f4f28"/>
    <path id="パス_1033" data-name="パス 1033" d="M257.448,48.257a15.458,15.458,0,0,1-10.973-4.522,15.382,15.382,0,0,1,0-21.834,15.577,15.577,0,0,1,21.948,0,15.382,15.382,0,0,1,0,21.834A15.46,15.46,0,0,1,257.448,48.257Zm0-30.378a14.939,14.939,0,1,0,15.02,14.939A15,15,0,0,0,257.448,17.879Z" transform="translate(553.785 154.377)" fill="#ff9e17"/>
    <path id="パス_1034" data-name="パス 1034" d="M548.465,30.859a15.229,15.229,0,0,1-15.27,15.189V30.859Z" transform="translate(608.869 156.797)" fill="#241f4a"/>
    <path id="パス_1035" data-name="パス 1035" d="M548.465,33.208a15.229,15.229,0,0,0-15.27-15.189V33.208Z" transform="translate(608.869 154.448)" fill="#1a4f27"/>
    <path id="パス_1036" data-name="パス 1036" d="M520.356,33.208a15.229,15.229,0,0,1,15.27-15.189V33.208Z" transform="translate(606.438 154.448)" fill="#241f4a"/>
    <path id="パス_1037" data-name="パス 1037" d="M520.356,30.859a15.229,15.229,0,0,0,15.27,15.189V30.859Z" transform="translate(606.438 156.797)" fill="#1a4f27"/>
    <path id="パス_1038" data-name="パス 1038" d="M535.625,17.769A15.46,15.46,0,0,1,546.6,22.291a15.382,15.382,0,0,1,0,21.834,15.577,15.577,0,0,1-21.948,0,15.382,15.382,0,0,1,0-21.834A15.458,15.458,0,0,1,535.625,17.769Zm0,30.378a14.939,14.939,0,1,0-15.019-14.939A15,15,0,0,0,535.625,48.147Z" transform="translate(606.438 154.448)" fill="#ff9e17"/>
    <path id="パス_1039" data-name="パス 1039" d="M584.425,34.53a15.27,15.27,0,1,1-15.27-15.189,15.229,15.229,0,0,1,15.27,15.189" transform="translate(612.785 154.69)" fill="#ffd599"/>
    <path id="パス_1040" data-name="パス 1040" d="M569.155,19.091a15.46,15.46,0,0,1,10.974,4.522,15.382,15.382,0,0,1,0,21.834,15.578,15.578,0,0,1-21.948,0,15.382,15.382,0,0,1,0-21.834A15.458,15.458,0,0,1,569.155,19.091Zm0,30.378A14.939,14.939,0,1,0,554.136,34.53,15,15,0,0,0,569.155,49.469Z" transform="translate(612.785 154.69)" fill="#ff9e17"/>
    <path id="パス_1041" data-name="パス 1041" d="M509.381,11.8a15.131,15.131,0,0,1,0,21.48l-10.8-10.74Z" transform="translate(602.317 153.31)" fill="#92221b"/>
    <path id="パス_1042" data-name="パス 1042" d="M511.1,12.487a15.328,15.328,0,0,0-21.595,0l10.8,10.74Z" transform="translate(600.599 152.622)" fill="#fff7e5"/>
    <path id="パス_1043" data-name="パス 1043" d="M490.217,33.279a15.132,15.132,0,0,1,0-21.48l10.8,10.74Z" transform="translate(599.887 153.31)" fill="#fff7e5"/>
    <path id="パス_1044" data-name="パス 1044" d="M489.505,31.618a15.328,15.328,0,0,0,21.595,0l-10.8-10.74Z" transform="translate(600.599 154.971)" fill="#92221b"/>
    <path id="パス_1045" data-name="パス 1045" d="M501.013,7.788a15.46,15.46,0,0,1,10.974,4.522,15.382,15.382,0,0,1,0,21.834,15.578,15.578,0,0,1-21.948,0,15.382,15.382,0,0,1,0-21.834A15.458,15.458,0,0,1,501.013,7.788Zm0,30.378a14.939,14.939,0,1,0-15.019-14.939A15,15,0,0,0,501.013,38.166Z" transform="translate(599.887 152.622)" fill="#ff9e17"/>
    <path id="パス_1046" data-name="パス 1046" d="M476.711,21.38a15.27,15.27,0,1,1-15.27-15.189,15.23,15.23,0,0,1,15.27,15.189" transform="translate(592.397 152.285)" fill="#ff9e17"/>
    <path id="パス_1191" data-name="パス 1191" d="M0,0,17.272.046l.046,17.272L.046,17.272Z" transform="matrix(0.707, -0.707, 0.707, 0.707, 1041.592, 173.665)" fill="#92221b"/>
    <path id="パス_1047" data-name="パス 1047" d="M632.678,34.771a15.132,15.132,0,0,0,0-21.48l-10.8,10.74Z" transform="translate(625.655 153.583)" fill="#92221b"/>
    <path id="パス_1048" data-name="パス 1048" d="M634.4,33.11a15.328,15.328,0,0,1-21.6,0l10.8-10.74Z" transform="translate(623.937 155.244)" fill="#fff7e5"/>
    <path id="パス_1049" data-name="パス 1049" d="M613.514,13.291a15.132,15.132,0,0,0,0,21.48l10.8-10.74Z" transform="translate(623.225 153.583)" fill="#fff7e5"/>
    <path id="パス_1050" data-name="パス 1050" d="M612.8,13.979a15.328,15.328,0,0,1,21.6,0l-10.8,10.74Z" transform="translate(623.937 152.895)" fill="#92221b"/>
    <path id="パス_1051" data-name="パス 1051" d="M624.311,9.28A15.46,15.46,0,0,1,635.285,13.8a15.382,15.382,0,0,1,0,21.834,15.578,15.578,0,0,1-21.948,0,15.382,15.382,0,0,1,0-21.834A15.458,15.458,0,0,1,624.311,9.28Zm0,30.378a14.939,14.939,0,1,0-15.019-14.939A15,15,0,0,0,624.311,39.658Z" transform="translate(623.225 152.895)" fill="#ff9e17"/>
    <path id="パス_1052" data-name="パス 1052" d="M677.9,32.306a15.27,15.27,0,1,1-15.27-15.189A15.23,15.23,0,0,1,677.9,32.306" transform="translate(630.478 154.283)" fill="#fff7e5"/>
    <path id="パス_1053" data-name="パス 1053" d="M662.628,16.867A15.46,15.46,0,0,1,673.6,21.389a15.382,15.382,0,0,1,0,21.834,15.577,15.577,0,0,1-21.948,0,15.382,15.382,0,0,1,0-21.834A15.458,15.458,0,0,1,662.628,16.867Zm0,30.378a14.939,14.939,0,1,0-15.019-14.939A15,15,0,0,0,662.628,47.245Z" transform="translate(630.478 154.283)" fill="#ff9e17"/>
    <path id="線_4" data-name="線 4" d="M.25,29.994h-.5V0h.5Z" transform="translate(1293.106 171.592)" fill="#ff9e17"/>
    <path id="線_5" data-name="線 5" d="M.124,15.214l-.249-.434,26.115-15,.249.434Z" transform="translate(1280.048 179.09)" fill="#ff9e17"/>
    <path id="線_6" data-name="線 6" d="M25.991,15.214-.124.217.125-.217l26.115,15Z" transform="translate(1280.048 179.09)" fill="#ff9e17"/>
    <path id="パス_1054" data-name="パス 1054" d="M15.97,59.924A15.23,15.23,0,0,1,31.24,75.113H15.97Z" transform="translate(510.968 162.114)" fill="#241f4a"/>
    <path id="パス_1055" data-name="パス 1055" d="M18.4,59.924A15.23,15.23,0,0,0,3.13,75.113H18.4Z" transform="translate(508.538 162.114)" fill="#fefeed"/>
    <path id="パス_1056" data-name="パス 1056" d="M18.4,87.952A15.23,15.23,0,0,1,3.13,72.763H18.4Z" transform="translate(508.538 164.463)" fill="#241f4a"/>
    <path id="パス_1057" data-name="パス 1057" d="M15.97,87.952A15.23,15.23,0,0,0,31.24,72.763H15.97Z" transform="translate(510.968 164.463)" fill="#fefeed"/>
    <path id="パス_1058" data-name="パス 1058" d="M18.4,59.673a15.46,15.46,0,0,1,10.974,4.522,15.382,15.382,0,0,1,0,21.834,15.577,15.577,0,0,1-21.948,0,15.382,15.382,0,0,1,0-21.834A15.458,15.458,0,0,1,18.4,59.673Zm0,30.378A14.939,14.939,0,1,0,3.38,75.112,15,15,0,0,0,18.4,90.051Z" transform="translate(508.538 162.114)" fill="#ff9e17"/>
    <path id="パス_1059" data-name="パス 1059" d="M40.426,110.155a15.27,15.27,0,1,1-15.27-15.189,15.229,15.229,0,0,1,15.27,15.189" transform="translate(509.816 168.524)" fill="#fefeed"/>
    <path id="パス_1060" data-name="パス 1060" d="M25.155,94.716A15.46,15.46,0,0,1,36.13,99.238a15.382,15.382,0,0,1,0,21.834,15.577,15.577,0,0,1-21.948,0,15.382,15.382,0,0,1,0-21.834A15.458,15.458,0,0,1,25.155,94.716Zm0,30.378a14.939,14.939,0,1,0-15.019-14.939A15,15,0,0,0,25.155,125.094Z" transform="translate(509.816 168.524)" fill="#ff9e17"/>
    <path id="パス_1207" data-name="パス 1207" d="M8.535-2.187h.01a10.663,10.663,0,0,1,7.6,3.168,10.812,10.812,0,0,1,.015,15.236,10.63,10.63,0,0,1-7.59,3.159h-.01a10.663,10.663,0,0,1-7.6-3.168A10.812,10.812,0,0,1,.945.972,10.63,10.63,0,0,1,8.535-2.187ZM8.568,15a6.286,6.286,0,0,0,4.488-1.869A6.425,6.425,0,0,0,8.541,2.187H8.535A6.286,6.286,0,0,0,4.047,4.056,6.425,6.425,0,0,0,8.562,15Z" transform="matrix(0.183, -0.983, 0.983, 0.183, 524.958, 285.514)" fill="#241f4a"/>
    <path id="パス_1061" data-name="パス 1061" d="M44.163,229.673a15.27,15.27,0,1,1-15.27-15.189,15.23,15.23,0,0,1,15.27,15.189" transform="translate(510.524 190.388)" fill="#0f4f28"/>
    <path id="パス_1062" data-name="パス 1062" d="M28.892,214.234a15.46,15.46,0,0,1,10.974,4.522,15.382,15.382,0,0,1,0,21.834,15.577,15.577,0,0,1-21.948,0,15.382,15.382,0,0,1,0-21.834A15.458,15.458,0,0,1,28.892,214.234Zm0,30.378a14.939,14.939,0,1,0-15.019-14.939A15,15,0,0,0,28.892,244.612Z" transform="translate(510.524 190.388)" fill="#ff9e17"/>
    <path id="パス_1063" data-name="パス 1063" d="M5.814,182.94a15.328,15.328,0,0,1,21.595,0l-10.8,10.74Z" transform="translate(509.046 183.804)" fill="#92221b"/>
    <path id="パス_1064" data-name="パス 1064" d="M6.526,182.252a15.132,15.132,0,0,0,0,21.48l10.8-10.74Z" transform="translate(508.334 184.491)" fill="#fff7e5"/>
    <path id="パス_1065" data-name="パス 1065" d="M27.409,202.071a15.328,15.328,0,0,1-21.595,0l10.8-10.74Z" transform="translate(509.046 186.152)" fill="#fff7e5"/>
    <path id="パス_1066" data-name="パス 1066" d="M25.69,203.732a15.132,15.132,0,0,0,0-21.48l-10.8,10.74Z" transform="translate(510.764 184.491)" fill="#92221b"/>
    <path id="パス_1067" data-name="パス 1067" d="M17.323,178.242A15.46,15.46,0,0,1,28.3,182.763a15.381,15.381,0,0,1,0,21.834,15.579,15.579,0,0,1-21.948,0,15.381,15.381,0,0,1,0-21.834A15.46,15.46,0,0,1,17.323,178.242Zm0,30.376A14.938,14.938,0,1,0,2.3,193.681,15,15,0,0,0,17.323,208.618Z" transform="translate(508.334 183.804)" fill="#ff9e17"/>
    <path id="パス_1068" data-name="パス 1068" d="M32.594,157.043a15.27,15.27,0,1,1-15.27-15.189,15.229,15.229,0,0,1,15.27,15.189" transform="translate(508.334 177.101)" fill="#fff7e5"/>
    <path id="パス_1069" data-name="パス 1069" d="M17.323,141.6A15.46,15.46,0,0,1,28.3,146.126a15.382,15.382,0,0,1,0,21.834,15.577,15.577,0,0,1-21.948,0,15.382,15.382,0,0,1,0-21.834A15.458,15.458,0,0,1,17.323,141.6Zm0,30.378A14.939,14.939,0,1,0,2.3,157.043,15,15,0,0,0,17.323,171.982Z" transform="translate(508.334 177.101)" fill="#ff9e17"/>
    <path id="線_7" data-name="線 7" d="M.25,29.994h-.5V0h.5Z" transform="translate(525.658 319.146)" fill="#ff9e17"/>
    <path id="線_8" data-name="線 8" d="M.125,15.214l-.249-.434,26.115-15,.249.434Z" transform="translate(512.6 326.645)" fill="#ff9e17"/>
    <path id="線_9" data-name="線 9" d="M25.991,15.214-.125.217.124-.217l26.115,15Z" transform="translate(512.6 326.645)" fill="#ff9e17"/>
    <path id="パス_1070" data-name="パス 1070" d="M33.816,438.18a15.27,15.27,0,1,1-15.27-15.189,15.23,15.23,0,0,1,15.27,15.189" transform="translate(508.565 228.53)" fill="#0049a9"/>
    <path id="パス_1071" data-name="パス 1071" d="M18.545,422.741a15.46,15.46,0,0,1,10.974,4.522,15.382,15.382,0,0,1,0,21.834,15.577,15.577,0,0,1-21.948,0,15.382,15.382,0,0,1,0-21.834A15.458,15.458,0,0,1,18.545,422.741Zm0,30.378A14.939,14.939,0,1,0,3.526,438.18,15,15,0,0,0,18.545,453.119Z" transform="translate(508.565 228.53)" fill="#ff9e17"/>
    <path id="パス_1072" data-name="パス 1072" d="M31.324,407.415a15.27,15.27,0,1,1-15.27-15.189,15.23,15.23,0,0,1,15.27,15.189" transform="translate(508.094 222.902)" fill="#fefeed"/>
    <path id="パス_1073" data-name="パス 1073" d="M16.053,391.976A15.46,15.46,0,0,1,27.028,396.5a15.382,15.382,0,0,1,0,21.834,15.577,15.577,0,0,1-21.948,0,15.382,15.382,0,0,1,0-21.834A15.458,15.458,0,0,1,16.053,391.976Zm0,30.378A14.939,14.939,0,1,0,1.034,407.415,15,15,0,0,0,16.053,422.354Z" transform="translate(508.094 222.902)" fill="#ff9e17"/>
    <path id="楕円形_7" data-name="楕円形 7" d="M8.6-2.187A10.736,10.736,0,0,1,16.217.954a10.7,10.7,0,0,1,0,15.193,10.816,10.816,0,0,1-15.241,0A10.7,10.7,0,0,1,.975.954,10.736,10.736,0,0,1,8.6-2.187Zm0,17.1A6.363,6.363,0,1,0,2.187,8.55,6.394,6.394,0,0,0,8.6,14.913Z" transform="translate(515.551 621.767)" fill="#982317"/>
    <path id="パス_1074" data-name="パス 1074" d="M30.79,300.548a15.27,15.27,0,1,1-15.27-15.189,15.23,15.23,0,0,1,15.27,15.189" transform="translate(507.993 203.353)" fill="#fefeed"/>
    <path id="パス_1075" data-name="パス 1075" d="M15.519,285.109a15.46,15.46,0,0,1,10.974,4.522,15.382,15.382,0,0,1,0,21.834,15.577,15.577,0,0,1-21.948,0,15.382,15.382,0,0,1,0-21.834A15.458,15.458,0,0,1,15.519,285.109Zm0,30.378A14.939,14.939,0,1,0,.5,300.548,15,15,0,0,0,15.519,315.487Z" transform="translate(507.993 203.353)" fill="#ff9e17"/>
    <path id="パス_1192" data-name="パス 1192" d="M0,0,7.043.019,7.1,20.379.054,20.36Z" transform="translate(513.798 499.205) rotate(-45)" fill="#982317"/>
    <path id="パス_1193" data-name="パス 1193" d="M0,0,20.36.054,20.379,7.1.019,7.043Z" transform="translate(513.798 508.596) rotate(-45)" fill="#982317"/>
    <path id="パス_1076" data-name="パス 1076" d="M16.656,327.676a15.229,15.229,0,0,1,15.27-15.189v15.189Z" transform="translate(511.098 208.315)" fill="#241f4a"/>
    <path id="パス_1077" data-name="パス 1077" d="M16.656,325.327a15.229,15.229,0,0,0,15.27,15.189V325.327Z" transform="translate(511.098 210.664)" fill="#ffd599"/>
    <path id="パス_1078" data-name="パス 1078" d="M44.765,325.327a15.229,15.229,0,0,1-15.27,15.189V325.327Z" transform="translate(513.528 210.664)" fill="#241f4a"/>
    <path id="パス_1079" data-name="パス 1079" d="M44.765,327.676a15.229,15.229,0,0,0-15.27-15.189v15.189Z" transform="translate(513.528 208.315)" fill="#ffd599"/>
    <path id="パス_1080" data-name="パス 1080" d="M31.925,312.237A15.46,15.46,0,0,1,42.9,316.758a15.381,15.381,0,0,1,0,21.834,15.579,15.579,0,0,1-21.948,0,15.381,15.381,0,0,1,0-21.834A15.46,15.46,0,0,1,31.925,312.237Zm0,30.376A14.938,14.938,0,1,0,16.9,327.676,15,15,0,0,0,31.925,342.613Z" transform="translate(511.098 208.315)" fill="#ff9e17"/>
    <path id="パス_1081" data-name="パス 1081" d="M31.324,372.309a15.27,15.27,0,1,1-15.27-15.189,15.229,15.229,0,0,1,15.27,15.189" transform="translate(508.094 216.48)" fill="#ff9e17"/>
    <path id="パス_1194" data-name="パス 1194" d="M0,0,17.272.046l.046,17.272L.046,17.272Z" transform="translate(511.901 588.79) rotate(-45)" fill="#fefeed"/>
    <path id="パス_1082" data-name="パス 1082" d="M37.086,264.042a15.27,15.27,0,1,1-15.27-15.189,15.23,15.23,0,0,1,15.27,15.189" transform="translate(509.185 196.675)" fill="#fefeed"/>
    <path id="パス_1083" data-name="パス 1083" d="M21.815,248.6a15.46,15.46,0,0,1,10.974,4.522,15.382,15.382,0,0,1,0,21.834,15.577,15.577,0,0,1-21.948,0,15.382,15.382,0,0,1,0-21.834A15.458,15.458,0,0,1,21.815,248.6Zm0,30.378A14.939,14.939,0,1,0,6.8,264.042,15,15,0,0,0,21.815,278.981Z" transform="translate(509.185 196.675)" fill="#ff9e17"/>
    <path id="パス_1208" data-name="パス 1208" d="M8.535-2.187h.01a10.663,10.663,0,0,1,7.6,3.168,10.812,10.812,0,0,1,.015,15.236,10.63,10.63,0,0,1-7.59,3.159h-.01a10.663,10.663,0,0,1-7.6-3.168A10.812,10.812,0,0,1,.945.972,10.63,10.63,0,0,1,8.535-2.187ZM8.568,15a6.286,6.286,0,0,0,4.488-1.869A6.425,6.425,0,0,0,8.541,2.187H8.535A6.286,6.286,0,0,0,4.047,4.056,6.425,6.425,0,0,0,8.562,15Z" transform="matrix(0.183, -0.983, 0.983, 0.183, 520.986, 467.552)" fill="#241f4a"/>
    <path id="パス_1084" data-name="パス 1084" d="M40.426,471.982a15.27,15.27,0,1,1-15.27-15.189,15.229,15.229,0,0,1,15.27,15.189" transform="translate(509.816 234.714)" fill="#fff7e5"/>
    <path id="パス_1085" data-name="パス 1085" d="M25.155,487.421A15.458,15.458,0,0,1,14.182,482.9a15.382,15.382,0,0,1,0-21.834,15.577,15.577,0,0,1,21.948,0,15.382,15.382,0,0,1,0,21.834A15.46,15.46,0,0,1,25.155,487.421Zm0-30.378a14.939,14.939,0,1,0,15.02,14.939A15,15,0,0,0,25.155,457.043Z" transform="translate(509.816 234.714)" fill="#ff9e17"/>
    <path id="線_10" data-name="線 10" d="M.25,29.994h-.5V0h.5Z" transform="translate(534.972 691.698)" fill="#ff9e17"/>
    <path id="線_11" data-name="線 11" d="M.125,15.214l-.249-.434,26.115-15,.249.434Z" transform="translate(521.915 699.197)" fill="#ff9e17"/>
    <path id="線_12" data-name="線 12" d="M25.991,15.214-.125.217.124-.217l26.115,15Z" transform="translate(521.914 699.197)" fill="#ff9e17"/>
    <path id="パス_1086" data-name="パス 1086" d="M413.987,515.932a15.27,15.27,0,1,1-15.27-15.189,15.23,15.23,0,0,1,15.27,15.189" transform="translate(580.524 242.753)" fill="#ffd599"/>
    <path id="パス_1087" data-name="パス 1087" d="M398.716,500.493a15.46,15.46,0,0,1,10.974,4.522,15.382,15.382,0,0,1,0,21.834,15.578,15.578,0,0,1-21.948,0,15.382,15.382,0,0,1,0-21.834A15.458,15.458,0,0,1,398.716,500.493Zm0,30.378A14.939,14.939,0,1,0,383.7,515.932,15,15,0,0,0,398.716,530.871Z" transform="translate(580.524 242.753)" fill="#ff9e17"/>
    <path id="楕円形_9" data-name="楕円形 9" d="M8.6-2.187A10.736,10.736,0,0,1,16.217.954a10.7,10.7,0,0,1,0,15.193,10.816,10.816,0,0,1-15.241,0A10.7,10.7,0,0,1,.975.954,10.736,10.736,0,0,1,8.6-2.187Zm0,17.1A6.363,6.363,0,1,0,2.187,8.55,6.394,6.394,0,0,0,8.6,14.913Z" transform="translate(970.645 750.135)" fill="#26244a"/>
    <path id="パス_1088" data-name="パス 1088" d="M311.176,514.053a15.23,15.23,0,0,1-15.27,15.189V514.053Z" transform="translate(563.955 245.188)" fill="#241f4a"/>
    <path id="パス_1089" data-name="パス 1089" d="M311.176,516.4a15.23,15.23,0,0,0-15.27-15.189V516.4Z" transform="translate(563.955 242.839)" fill="#1a4f27"/>
    <path id="パス_1090" data-name="パス 1090" d="M283.067,516.4a15.23,15.23,0,0,1,15.27-15.189V516.4Z" transform="translate(561.524 242.839)" fill="#241f4a"/>
    <path id="パス_1091" data-name="パス 1091" d="M283.067,514.053a15.23,15.23,0,0,0,15.27,15.189V514.053Z" transform="translate(561.524 245.188)" fill="#1a4f27"/>
    <path id="パス_1092" data-name="パス 1092" d="M298.336,500.963a15.46,15.46,0,0,1,10.974,4.522,15.382,15.382,0,0,1,0,21.834,15.577,15.577,0,0,1-21.948,0,15.382,15.382,0,0,1,0-21.834A15.458,15.458,0,0,1,298.336,500.963Zm0,30.378A14.939,14.939,0,1,0,283.317,516.4,15,15,0,0,0,298.336,531.341Z" transform="translate(561.524 242.839)" fill="#ff9e17"/>
    <path id="パス_1093" data-name="パス 1093" d="M347.057,517.58a15.27,15.27,0,1,1-15.27-15.189,15.23,15.23,0,0,1,15.27,15.189" transform="translate(567.855 243.055)" fill="#ffd599"/>
    <path id="パス_1094" data-name="パス 1094" d="M331.786,533.019a15.458,15.458,0,0,1-10.973-4.522,15.382,15.382,0,0,1,0-21.834,15.577,15.577,0,0,1,21.948,0,15.382,15.382,0,0,1,0,21.834A15.46,15.46,0,0,1,331.786,533.019Zm0-30.378a14.939,14.939,0,1,0,15.02,14.939A15,15,0,0,0,331.786,502.641Z" transform="translate(567.855 243.055)" fill="#ff9e17"/>
    <path id="パス_1095" data-name="パス 1095" d="M272.517,494.979a15.132,15.132,0,0,1,0,21.48l-10.8-10.74Z" transform="translate(557.484 241.699)" fill="#92221b"/>
    <path id="パス_1096" data-name="パス 1096" d="M274.236,495.667a15.328,15.328,0,0,0-21.595,0l10.8,10.74Z" transform="translate(555.765 241.011)" fill="#fff7e5"/>
    <path id="パス_1097" data-name="パス 1097" d="M253.353,516.459a15.132,15.132,0,0,1,0-21.48l10.8,10.74Z" transform="translate(555.053 241.699)" fill="#fff7e5"/>
    <path id="パス_1098" data-name="パス 1098" d="M252.641,514.8a15.328,15.328,0,0,0,21.595,0l-10.8-10.74Z" transform="translate(555.765 243.36)" fill="#92221b"/>
    <path id="パス_1099" data-name="パス 1099" d="M264.15,490.968a15.46,15.46,0,0,1,10.974,4.522,15.382,15.382,0,0,1,0,21.835,15.577,15.577,0,0,1-21.948,0,15.382,15.382,0,0,1,0-21.834A15.458,15.458,0,0,1,264.15,490.968Zm0,30.378a14.939,14.939,0,1,0-15.019-14.939A15,15,0,0,0,264.15,521.346Z" transform="translate(555.054 241.011)" fill="#ff9e17"/>
    <path id="パス_1100" data-name="パス 1100" d="M239.234,504.741a15.27,15.27,0,1,1-15.27-15.189,15.229,15.229,0,0,1,15.27,15.189" transform="translate(547.447 240.706)" fill="#ff9e17"/>
    <path id="パス_1195" data-name="パス 1195" d="M0,0,17.272.046l.046,17.272L.046,17.272Z" transform="translate(759.166 745.447) rotate(-45)" fill="#92221b"/>
    <path id="パス_1101" data-name="パス 1101" d="M369.19,524.153a15.188,15.188,0,1,1,15.27-15.189,15.229,15.229,0,0,1-15.27,15.189" transform="translate(574.936 241.479)" fill="#fff7e5"/>
    <path id="パス_1102" data-name="パス 1102" d="M369.19,524.4a15.46,15.46,0,0,1-10.974-4.521,15.381,15.381,0,0,1,0-21.834,15.579,15.579,0,0,1,21.948,0,15.381,15.381,0,0,1,0,21.834A15.46,15.46,0,0,1,369.19,524.4Zm0-30.376a14.938,14.938,0,1,0,15.02,14.938A15,15,0,0,0,369.19,494.027Z" transform="translate(574.936 241.479)" fill="#ff9e17"/>
    <path id="線_13" data-name="線 13" d="M30.155.25H0v-.5H30.155Z" transform="translate(929.049 750.445)" fill="#ff9e17"/>
    <path id="線_14" data-name="線 14" d="M14.861,26.1-.216.125.216-.126,15.294,25.85Z" transform="translate(936.587 737.457)" fill="#ff9e17"/>
    <path id="線_15" data-name="線 15" d="M.216,26.1l-.432-.251L14.861-.126l.432.251Z" transform="translate(936.587 737.456)" fill="#ff9e17"/>
    <path id="パス_1103" data-name="パス 1103" d="M166.281,505.081a15.27,15.27,0,1,1-15.27-15.189,15.23,15.23,0,0,1,15.27,15.189" transform="translate(533.638 240.768)" fill="#0f4f28"/>
    <path id="パス_1104" data-name="パス 1104" d="M151.01,489.642a15.46,15.46,0,0,1,10.974,4.522,15.382,15.382,0,0,1,0,21.834,15.578,15.578,0,0,1-21.948,0,15.382,15.382,0,0,1,0-21.834A15.458,15.458,0,0,1,151.01,489.642Zm0,30.378a14.939,14.939,0,1,0-15.019-14.939A15,15,0,0,0,151.01,520.02Z" transform="translate(533.638 240.768)" fill="#ff9e17"/>
    <path id="パス_1105" data-name="パス 1105" d="M120.276,508.464a15.27,15.27,0,1,1-15.27-15.189,15.229,15.229,0,0,1,15.27,15.189" transform="translate(524.931 241.387)" fill="#fefeed"/>
    <path id="パス_1106" data-name="パス 1106" d="M105.005,493.025a15.46,15.46,0,0,1,10.974,4.522,15.382,15.382,0,0,1,0,21.834,15.577,15.577,0,0,1-21.948,0,15.382,15.382,0,0,1,0-21.834A15.458,15.458,0,0,1,105.005,493.025Zm0,30.378a14.939,14.939,0,1,0-15.019-14.939A15,15,0,0,0,105.005,523.4Z" transform="translate(524.931 241.387)" fill="#ff9e17"/>
    <path id="パス_1196" data-name="パス 1196" d="M0,0,7.043.019,7.1,20.379.054,20.36Z" transform="translate(620.222 745.156) rotate(-45)" fill="#241f4a"/>
    <path id="パス_1197" data-name="パス 1197" d="M0,0,20.36.054,20.379,7.1.019,7.043Z" transform="translate(620.223 754.547) rotate(-45)" fill="#241f4a"/>
    <path id="パス_1107" data-name="パス 1107" d="M86.668,523.2A15.27,15.27,0,1,1,71.4,508.007,15.229,15.229,0,0,1,86.668,523.2" transform="translate(518.569 244.082)" fill="#ff9e17"/>
    <path id="パス_1108" data-name="パス 1108" d="M68.967,508.007A15.23,15.23,0,0,1,84.237,523.2H68.967Z" transform="translate(521 244.082)" fill="#982317"/>
    <path id="パス_1109" data-name="パス 1109" d="M71.4,536.036a15.229,15.229,0,0,1-15.27-15.189H71.4Z" transform="translate(518.569 246.431)" fill="#982317"/>
    <path id="パス_1110" data-name="パス 1110" d="M199.049,507.345a15.27,15.27,0,1,1-15.27-15.189,15.23,15.23,0,0,1,15.27,15.189" transform="translate(539.841 241.182)" fill="#fefeed"/>
    <path id="パス_1111" data-name="パス 1111" d="M183.778,491.906a15.46,15.46,0,0,1,10.974,4.522,15.382,15.382,0,0,1,0,21.834,15.577,15.577,0,0,1-21.948,0,15.382,15.382,0,0,1,0-21.834A15.458,15.458,0,0,1,183.778,491.906Zm0,30.378a14.939,14.939,0,1,0-15.019-14.939A15,15,0,0,0,183.778,522.284Z" transform="translate(539.841 241.182)" fill="#ff9e17"/>
    <path id="パス_1198" data-name="パス 1198" d="M0,0,7.043.019,7.1,20.379.054,20.36Z" transform="translate(713.905 743.832) rotate(-45)" fill="#241f4a"/>
    <path id="パス_1199" data-name="パス 1199" d="M0,0,20.36.054,20.379,7.1.019,7.043Z" transform="translate(713.905 753.223) rotate(-45)" fill="#241f4a"/>
    <path id="パス_1112" data-name="パス 1112" d="M458.977,506.921a15.27,15.27,0,1,1-15.27-15.189,15.23,15.23,0,0,1,15.27,15.189" transform="translate(589.04 241.105)" fill="#0049a9"/>
    <path id="パス_1113" data-name="パス 1113" d="M443.707,491.482A15.46,15.46,0,0,1,454.681,496a15.382,15.382,0,0,1,0,21.834,15.577,15.577,0,0,1-21.948,0,15.382,15.382,0,0,1,0-21.834A15.458,15.458,0,0,1,443.707,491.482Zm0,30.378a14.939,14.939,0,1,0-15.019-14.939A15,15,0,0,0,443.707,521.86Z" transform="translate(589.04 241.105)" fill="#ff9e17"/>
    <path id="パス_1114" data-name="パス 1114" d="M472.339,524.279a15.188,15.188,0,1,1,15.27-15.189,15.23,15.23,0,0,1-15.27,15.189" transform="translate(594.459 241.502)" fill="#1a4f27"/>
    <path id="パス_1115" data-name="パス 1115" d="M472.339,524.529a15.46,15.46,0,0,1-10.974-4.521,15.381,15.381,0,0,1,0-21.834,15.579,15.579,0,0,1,21.948,0,15.381,15.381,0,0,1,0,21.834A15.46,15.46,0,0,1,472.339,524.529Zm0-30.376a14.938,14.938,0,1,0,15.02,14.938A15,15,0,0,0,472.339,494.153Z" transform="translate(594.459 241.502)" fill="#ff9e17"/>
    <path id="線_16" data-name="線 16" d="M30.155.25H0v-.5H30.155Z" transform="translate(1051.722 750.593)" fill="#ff9e17"/>
    <path id="線_17" data-name="線 17" d="M14.861,26.1-.216.125.216-.126,15.294,25.85Z" transform="translate(1059.261 737.605)" fill="#ff9e17"/>
    <path id="線_18" data-name="線 18" d="M.216,26.1l-.432-.251L14.861-.126l.432.251Z" transform="translate(1059.261 737.605)" fill="#ff9e17"/>
    <path id="パス_1116" data-name="パス 1116" d="M508.42,521.931a15.229,15.229,0,0,1-15.27-15.189h15.27Z" transform="translate(601.289 243.851)" fill="#241f4a"/>
    <path id="パス_1117" data-name="パス 1117" d="M505.99,521.931a15.23,15.23,0,0,0,15.27-15.189H505.99Z" transform="translate(603.719 243.851)" fill="#92221b"/>
    <path id="パス_1118" data-name="パス 1118" d="M505.99,493.9a15.229,15.229,0,0,1,15.27,15.189H505.99Z" transform="translate(603.719 241.502)" fill="#241f4a"/>
    <path id="パス_1119" data-name="パス 1119" d="M508.42,493.9a15.229,15.229,0,0,0-15.27,15.189h15.27Z" transform="translate(601.289 241.502)" fill="#92221b"/>
    <path id="パス_1120" data-name="パス 1120" d="M508.42,524.529a15.46,15.46,0,0,1-10.974-4.521,15.381,15.381,0,0,1,0-21.834,15.579,15.579,0,0,1,21.948,0,15.381,15.381,0,0,1,0,21.834A15.46,15.46,0,0,1,508.42,524.529Zm0-30.376a14.938,14.938,0,1,0,15.02,14.938A15,15,0,0,0,508.42,494.153Z" transform="translate(601.289 241.502)" fill="#ff9e17"/>
    <path id="パス_1121" data-name="パス 1121" d="M556.414,516.506a15.27,15.27,0,1,1-15.27-15.189,15.23,15.23,0,0,1,15.27,15.189" transform="translate(607.483 242.858)" fill="#fefeed"/>
    <path id="パス_1122" data-name="パス 1122" d="M541.144,501.067a15.46,15.46,0,0,1,10.974,4.522,15.382,15.382,0,0,1,0,21.834,15.577,15.577,0,0,1-21.948,0,15.382,15.382,0,0,1,0-21.834A15.458,15.458,0,0,1,541.144,501.067Zm0,30.378a14.939,14.939,0,1,0-15.019-14.939A15,15,0,0,0,541.144,531.445Z" transform="translate(607.483 242.858)" fill="#ff9e17"/>
    <path id="パス_1200" data-name="パス 1200" d="M0,0,7.043.019,7.1,20.379.054,20.36Z" transform="matrix(0.707, -0.707, 0.707, 0.707, 1138.914, 754.668)" fill="#241f4a"/>
    <path id="パス_1201" data-name="パス 1201" d="M0,0,20.36.054,20.379,7.1.019,7.043Z" transform="translate(1138.914 764.059) rotate(-45)" fill="#241f4a"/>
    <path id="パス_1123" data-name="パス 1123" d="M648.328,514.337a15.27,15.27,0,1,1-15.27-15.189,15.23,15.23,0,0,1,15.27,15.189" transform="translate(624.88 242.461)" fill="#fefeed"/>
    <path id="パス_1124" data-name="パス 1124" d="M633.058,498.9a15.46,15.46,0,0,1,10.974,4.522,15.382,15.382,0,0,1,0,21.834,15.577,15.577,0,0,1-21.948,0,15.382,15.382,0,0,1,0-21.834A15.458,15.458,0,0,1,633.058,498.9Zm0,30.378a14.939,14.939,0,1,0-15.019-14.939A15,15,0,0,0,633.058,529.276Z" transform="translate(624.88 242.461)" fill="#ff9e17"/>
    <path id="楕円形_10" data-name="楕円形 10" d="M8.6-2.187A10.737,10.737,0,0,1,16.218.954a10.705,10.705,0,0,1,0,15.194,10.816,10.816,0,0,1-15.242,0A10.705,10.705,0,0,1,.976.954,10.737,10.737,0,0,1,8.6-2.187Zm0,17.1a6.364,6.364,0,1,0-6.41-6.364A6.394,6.394,0,0,0,8.6,14.914Z" transform="translate(1249.268 748.323) rotate(-0.503)" fill="#241f4a"/>
    <path id="パス_1125" data-name="パス 1125" d="M680.828,525.214a15.27,15.27,0,1,1-15.27-15.189,15.23,15.23,0,0,1,15.27,15.189" transform="translate(631.032 244.451)" fill="#fff7e5"/>
    <path id="パス_1126" data-name="パス 1126" d="M665.558,509.775a15.46,15.46,0,0,1,10.974,4.522,15.382,15.382,0,0,1,0,21.834,15.577,15.577,0,0,1-21.948,0,15.382,15.382,0,0,1,0-21.834A15.458,15.458,0,0,1,665.558,509.775Zm0,30.378a14.939,14.939,0,1,0-15.019-14.939A15,15,0,0,0,665.558,540.153Z" transform="translate(631.032 244.451)" fill="#ff9e17"/>
    <path id="線_19" data-name="線 19" d="M.25,29.994h-.5V0h.5Z" transform="translate(1296.591 754.668)" fill="#ff9e17"/>
    <path id="線_20" data-name="線 20" d="M.124,15.214l-.249-.434,26.115-15,.249.434Z" transform="translate(1283.533 762.167)" fill="#ff9e17"/>
    <path id="線_21" data-name="線 21" d="M25.991,15.214-.124.217.125-.217l26.115,15Z" transform="translate(1283.533 762.167)" fill="#ff9e17"/>
    <path id="パス_1127" data-name="パス 1127" d="M594.905,515.228a15.23,15.23,0,0,1-15.27,15.189V515.228Z" transform="translate(617.659 245.403)" fill="#241f4a"/>
    <path id="パス_1128" data-name="パス 1128" d="M594.905,517.577a15.23,15.23,0,0,0-15.27-15.189v15.189Z" transform="translate(617.659 243.054)" fill="#1a4f27"/>
    <path id="パス_1129" data-name="パス 1129" d="M566.795,517.577a15.23,15.23,0,0,1,15.27-15.189v15.189Z" transform="translate(615.229 243.054)" fill="#241f4a"/>
    <path id="パス_1130" data-name="パス 1130" d="M566.795,515.228a15.23,15.23,0,0,0,15.27,15.189V515.228Z" transform="translate(615.229 245.403)" fill="#1a4f27"/>
    <path id="パス_1131" data-name="パス 1131" d="M582.065,502.138a15.46,15.46,0,0,1,10.974,4.522,15.382,15.382,0,0,1,0,21.834,15.577,15.577,0,0,1-21.948,0,15.382,15.382,0,0,1,0-21.834A15.458,15.458,0,0,1,582.065,502.138Zm0,30.378a14.939,14.939,0,1,0-15.019-14.939A15,15,0,0,0,582.065,532.516Z" transform="translate(615.229 243.054)" fill="#ff9e17"/>
    <path id="パス_1132" data-name="パス 1132" d="M721.849,471.843a15.27,15.27,0,1,1-15.27-15.189,15.229,15.229,0,0,1,15.27,15.189" transform="translate(638.797 234.688)" fill="#fefeed"/>
    <path id="パス_1133" data-name="パス 1133" d="M706.579,456.4a15.46,15.46,0,0,1,10.974,4.522,15.382,15.382,0,0,1,0,21.834,15.577,15.577,0,0,1-21.948,0,15.382,15.382,0,0,1,0-21.834A15.458,15.458,0,0,1,706.579,456.4Zm0,30.378a14.939,14.939,0,1,0-15.019-14.939A15,15,0,0,0,706.579,486.782Z" transform="translate(638.797 234.688)" fill="#ff9e17"/>
    <path id="パス_1202" data-name="パス 1202" d="M0,0,7.043.019,7.1,20.379.054,20.36Z" transform="translate(1335.661 701.835) rotate(-45)" fill="#241f4a"/>
    <path id="パス_1203" data-name="パス 1203" d="M0,0,20.36.054,20.379,7.1.019,7.043Z" transform="translate(1335.662 711.226) rotate(-45)" fill="#241f4a"/>
    <path id="パス_1134" data-name="パス 1134" d="M726.952,436.511a15.23,15.23,0,0,1-15.27,15.189V436.511Z" transform="translate(642.652 231.003)" fill="#241f4a"/>
    <path id="パス_1135" data-name="パス 1135" d="M726.952,438.86a15.23,15.23,0,0,0-15.27-15.189V438.86Z" transform="translate(642.652 228.654)" fill="#92221b"/>
    <path id="パス_1136" data-name="パス 1136" d="M698.843,438.86a15.23,15.23,0,0,1,15.27-15.189V438.86Z" transform="translate(640.223 228.654)" fill="#241f4a"/>
    <path id="パス_1137" data-name="パス 1137" d="M698.843,436.511a15.23,15.23,0,0,0,15.27,15.189V436.511Z" transform="translate(640.223 231.003)" fill="#92221b"/>
    <path id="パス_1138" data-name="パス 1138" d="M714.112,423.421a15.46,15.46,0,0,1,10.974,4.522,15.382,15.382,0,0,1,0,21.834,15.577,15.577,0,0,1-21.948,0,15.382,15.382,0,0,1,0-21.834A15.458,15.458,0,0,1,714.112,423.421Zm0,30.378a14.939,14.939,0,1,0-15.019-14.939A15,15,0,0,0,714.112,453.8Z" transform="translate(640.223 228.654)" fill="#ff9e17"/>
    <path id="パス_1139" data-name="パス 1139" d="M698.843,403.006a15.27,15.27,0,1,1,15.27,15.189,15.23,15.23,0,0,1-15.27-15.189" transform="translate(640.223 222.096)" fill="#1a4f27"/>
    <path id="パス_1140" data-name="パス 1140" d="M714.113,418.445a15.46,15.46,0,0,1-10.974-4.522,15.382,15.382,0,0,1,0-21.834,15.577,15.577,0,0,1,21.948,0,15.382,15.382,0,0,1,0,21.834A15.458,15.458,0,0,1,714.113,418.445Zm0-30.378a14.939,14.939,0,1,0,15.019,14.939A15,15,0,0,0,714.113,388.067Z" transform="translate(640.223 222.096)" fill="#ff9e17"/>
    <path id="線_22" data-name="線 22" d="M.25,29.994h-.5V0h.5Z" transform="translate(1354.335 610.104)" fill="#ff9e17"/>
    <path id="線_23" data-name="線 23" d="M.125,15.214l-.249-.434,26.115-15,.249.434Z" transform="translate(1341.277 617.602)" fill="#ff9e17"/>
    <path id="線_24" data-name="線 24" d="M25.991,15.214-.124.217.124-.217l26.115,15Z" transform="translate(1341.277 617.602)" fill="#ff9e17"/>
    <path id="パス_1141" data-name="パス 1141" d="M731.591,374.095a15.27,15.27,0,1,1-15.27-15.189,15.23,15.23,0,0,1,15.27,15.189" transform="translate(640.641 216.807)" fill="#0049a9"/>
    <path id="パス_1142" data-name="パス 1142" d="M716.321,358.656a15.46,15.46,0,0,1,10.974,4.522,15.382,15.382,0,0,1,0,21.834,15.577,15.577,0,0,1-21.948,0,15.382,15.382,0,0,1,0-21.834A15.458,15.458,0,0,1,716.321,358.656Zm0,30.378A14.939,14.939,0,1,0,701.3,374.095,15,15,0,0,0,716.321,389.034Z" transform="translate(640.641 216.807)" fill="#ff9e17"/>
    <path id="パス_1143" data-name="パス 1143" d="M722.428,329.213a15.27,15.27,0,1,1-15.27-15.189,15.229,15.229,0,0,1,15.27,15.189" transform="translate(638.906 208.597)" fill="#ffd599"/>
    <path id="パス_1144" data-name="パス 1144" d="M707.158,313.774a15.46,15.46,0,0,1,10.974,4.522,15.382,15.382,0,0,1,0,21.834,15.577,15.577,0,0,1-21.948,0,15.382,15.382,0,0,1,0-21.834A15.458,15.458,0,0,1,707.158,313.774Zm0,30.378a14.939,14.939,0,1,0-15.019-14.939A15,15,0,0,0,707.158,344.152Z" transform="translate(638.906 208.597)" fill="#ff9e17"/>
    <path id="パス_1210" data-name="パス 1210" d="M8.587-2.187h.006A10.745,10.745,0,0,1,16.213.957,10.731,10.731,0,0,1,8.6,19.288H8.6A10.745,10.745,0,0,1,.978,16.144,10.706,10.706,0,0,1,.97.953,10.726,10.726,0,0,1,8.587-2.187Zm.015,17.1a6.382,6.382,0,0,0,4.534-1.866A6.291,6.291,0,0,0,15,8.556,6.4,6.4,0,0,0,8.59,2.187L8.587,0V2.187A6.38,6.38,0,0,0,4.056,4.053,6.291,6.291,0,0,0,2.187,8.545,6.4,6.4,0,0,0,8.6,14.914Z" transform="translate(1336.668 530.148) rotate(-5.655)" fill="#26244a"/>
    <path id="パス_1145" data-name="パス 1145" d="M729.656,299.639a15.27,15.27,0,1,1-15.27-15.189,15.23,15.23,0,0,1,15.27,15.189" transform="translate(640.274 203.187)" fill="#fff7e5"/>
    <path id="パス_1146" data-name="パス 1146" d="M714.385,284.2a15.46,15.46,0,0,1,10.974,4.522,15.382,15.382,0,0,1,0,21.834,15.577,15.577,0,0,1-21.948,0,15.382,15.382,0,0,1,0-21.834A15.458,15.458,0,0,1,714.385,284.2Zm0,30.378a14.939,14.939,0,1,0-15.019-14.939A15,15,0,0,0,714.385,314.578Z" transform="translate(640.274 203.187)" fill="#ff9e17"/>
    <path id="線_25" data-name="線 25" d="M.25,29.994h-.5V0h.5Z" transform="translate(1354.66 487.828)" fill="#ff9e17"/>
    <path id="線_26" data-name="線 26" d="M.124,15.214l-.249-.434,26.115-15,.249.434Z" transform="translate(1341.603 495.327)" fill="#ff9e17"/>
    <path id="線_27" data-name="線 27" d="M25.991,15.214-.124.217.125-.217l26.115,15Z" transform="translate(1341.603 495.327)" fill="#ff9e17"/>
    <path id="パス_1147" data-name="パス 1147" d="M720.714,262.018a15.27,15.27,0,1,1-15.27-15.189,15.229,15.229,0,0,1,15.27,15.189" transform="translate(638.582 196.305)" fill="#ffd599"/>
    <path id="パス_1148" data-name="パス 1148" d="M705.444,246.579a15.46,15.46,0,0,1,10.974,4.522,15.382,15.382,0,0,1,0,21.834,15.578,15.578,0,0,1-21.948,0,15.382,15.382,0,0,1,0-21.834A15.458,15.458,0,0,1,705.444,246.579Zm0,30.378a14.939,14.939,0,1,0-15.019-14.939A15,15,0,0,0,705.444,276.957Z" transform="translate(638.582 196.305)" fill="#ff9e17"/>
    <path id="パス_1149" data-name="パス 1149" d="M706.852,241.932a15.23,15.23,0,0,1-15.27-15.189h15.27Z" transform="translate(638.848 192.63)" fill="#241f4a"/>
    <path id="パス_1150" data-name="パス 1150" d="M704.422,241.932a15.23,15.23,0,0,0,15.27-15.189h-15.27Z" transform="translate(641.278 192.63)" fill="#1a4f27"/>
    <path id="パス_1151" data-name="パス 1151" d="M704.422,213.9a15.23,15.23,0,0,1,15.27,15.189h-15.27Z" transform="translate(641.278 190.282)" fill="#241f4a"/>
    <path id="パス_1152" data-name="パス 1152" d="M706.852,213.9a15.23,15.23,0,0,0-15.27,15.189h15.27Z" transform="translate(638.848 190.282)" fill="#1a4f27"/>
    <path id="パス_1153" data-name="パス 1153" d="M706.852,244.53a15.46,15.46,0,0,1-10.974-4.521,15.381,15.381,0,0,1,0-21.834,15.579,15.579,0,0,1,21.948,0,15.381,15.381,0,0,1,0,21.834A15.461,15.461,0,0,1,706.852,244.53Zm0-30.376a14.938,14.938,0,1,0,15.02,14.938A15,15,0,0,0,706.852,214.154Z" transform="translate(638.848 190.282)" fill="#ff9e17"/>
    <path id="パス_1154" data-name="パス 1154" d="M726.92,202.415a15.328,15.328,0,0,1-21.595,0l10.8-10.74Z" transform="translate(641.449 186.215)" fill="#92221b"/>
    <path id="パス_1155" data-name="パス 1155" d="M725.2,204.076a15.132,15.132,0,0,0,0-21.48l-10.8,10.74Z" transform="translate(643.168 184.554)" fill="#fff7e5"/>
    <path id="パス_1156" data-name="パス 1156" d="M705.325,183.284a15.328,15.328,0,0,1,21.595,0l-10.8,10.74Z" transform="translate(641.449 183.866)" fill="#fff7e5"/>
    <path id="パス_1157" data-name="パス 1157" d="M706.037,182.6a15.132,15.132,0,0,0,0,21.48l10.8-10.74Z" transform="translate(640.737 184.554)" fill="#92221b"/>
    <path id="パス_1158" data-name="パス 1158" d="M716.834,209.462a15.46,15.46,0,0,1-10.974-4.521,15.381,15.381,0,0,1,0-21.834,15.579,15.579,0,0,1,21.948,0,15.381,15.381,0,0,1,0,21.834A15.46,15.46,0,0,1,716.834,209.462Zm0-30.376a14.938,14.938,0,1,0,15.02,14.938A15,15,0,0,0,716.834,179.086Z" transform="translate(640.737 183.867)" fill="#ff9e17"/>
    <path id="パス_1159" data-name="パス 1159" d="M734.064,154.393a15.27,15.27,0,1,1-15.27-15.189,15.23,15.23,0,0,1,15.27,15.189" transform="translate(641.108 176.617)" fill="#ff9e17"/>
    <path id="パス_1204" data-name="パス 1204" d="M0,0,17.272.046l.046,17.272L.046,17.272Z" transform="translate(1347.656 331.01) rotate(-45)" fill="#92221b"/>
    <path id="パス_1160" data-name="パス 1160" d="M733.6,81.168a15.27,15.27,0,1,1-15.27-15.189A15.229,15.229,0,0,1,733.6,81.168" transform="translate(641.021 163.222)" fill="#0f4f28"/>
    <path id="パス_1161" data-name="パス 1161" d="M718.33,65.729A15.46,15.46,0,0,1,729.3,70.251a15.382,15.382,0,0,1,0,21.834,15.578,15.578,0,0,1-21.948,0,15.382,15.382,0,0,1,0-21.834A15.459,15.459,0,0,1,718.33,65.729Zm0,30.378a14.939,14.939,0,1,0-15.019-14.939A15,15,0,0,0,718.33,96.107Z" transform="translate(641.021 163.222)" fill="#ff9e17"/>
    <path id="パス_1162" data-name="パス 1162" d="M731.187,114.211a15.271,15.271,0,1,1-15.271-15.189,15.23,15.23,0,0,1,15.271,15.189" transform="translate(640.563 169.266)" fill="#fefeed"/>
    <path id="パス_1163" data-name="パス 1163" d="M715.915,98.772a15.462,15.462,0,0,1,10.975,4.522,15.381,15.381,0,0,1,0,21.834,15.578,15.578,0,0,1-21.948,0,15.382,15.382,0,0,1,0-21.834A15.458,15.458,0,0,1,715.915,98.772Zm0,30.378A14.939,14.939,0,1,0,700.9,114.211,15,15,0,0,0,715.915,129.15Z" transform="translate(640.563 169.266)" fill="#ff9e17"/>
    <path id="パス_1205" data-name="パス 1205" d="M0,0,7.043.019,7.1,20.379.054,20.36Z" transform="translate(1346.766 278.781) rotate(-45)" fill="#241f4a"/>
    <path id="パス_1206" data-name="パス 1206" d="M0,0,20.36.054,20.379,7.1.019,7.043Z" transform="translate(1346.766 288.172) rotate(-45)" fill="#241f4a"/>
    <g id="グループ_431" data-name="グループ 431">
      <path id="パス_1164" data-name="パス 1164" d="M431.426,35.1a32.7,32.7,0,1,1-65.388,0,32.7,32.7,0,1,1,65.388,0" transform="translate(592.826 151.521)" fill="#ffe1b0"/>
      <path id="パス_1165" data-name="パス 1165" d="M398.732,68.434a32.406,32.406,0,0,1-12.824-2.62,32.814,32.814,0,0,1-10.471-7.144,33.675,33.675,0,0,1-7.059-36.542,33.246,33.246,0,0,1,7.059-10.595A32.814,32.814,0,0,1,385.909,4.39a32.692,32.692,0,0,1,25.647,0,32.813,32.813,0,0,1,10.471,7.144,33.675,33.675,0,0,1,7.059,36.542,33.246,33.246,0,0,1-7.059,10.595,32.814,32.814,0,0,1-10.471,7.144A32.4,32.4,0,0,1,398.732,68.434Zm0-66.168A32.839,32.839,0,1,0,431.178,35.1,32.68,32.68,0,0,0,398.732,2.266Z" transform="translate(592.826 151.521)" fill="#ff9e17"/>
      <path id="パス_1166" data-name="パス 1166" d="M411.061,38.695c-.827,3.762-3.972,6.272-7.027,5.608S399.171,40.051,400,36.29s3.972-6.272,7.027-5.608,4.862,4.251,4.035,8.013" transform="translate(599.216 156.745)" fill="#1f1b4b"/>
      <path id="パス_1167" data-name="パス 1167" d="M386.818,34.307c-.827,3.762-3.972,6.272-7.027,5.608s-4.862-4.251-4.035-8.013,3.972-6.272,7.027-5.608,4.862,4.251,4.035,8.013" transform="translate(594.627 155.942)" fill="#1f1b4b"/>
      <path id="パス_1168" data-name="パス 1168" d="M411.633,46.511c0,2.025-1.916,3.666-4.279,3.666s-4.28-1.641-4.28-3.666,1.916-3.666,4.28-3.666,4.279,1.641,4.279,3.666" transform="translate(599.836 158.99)" fill="#ffa798"/>
      <path id="パス_1169" data-name="パス 1169" d="M381.033,41.519c0,2.025-1.916,3.666-4.279,3.666s-4.28-1.641-4.28-3.666,1.916-3.666,4.28-3.666,4.279,1.641,4.279,3.666" transform="translate(594.044 158.076)" fill="#ffa798"/>
      <path id="パス_1170" data-name="パス 1170" d="M390.463,41.609a.5.5,0,0,1-.385-.18c-1.307-1.573-1.6-2.908-.892-4.082.994-1.648,3.746-2.159,3.863-2.18a.5.5,0,0,1,.177.984h0c-.672.122-2.553.667-3.183,1.712-.187.31-.684,1.136.8,2.926a.5.5,0,0,1-.384.82Z" transform="translate(597.23 157.675)" fill="#1f1b4b"/>
      <path id="パス_1171" data-name="パス 1171" d="M394.454,50.39a18.263,18.263,0,0,1-2.059-.117,13.593,13.593,0,0,1-7.614-3.429,12.221,12.221,0,0,1-2.393-2.86.5.5,0,0,1,.876-.482,11.5,11.5,0,0,0,2.216,2.626,12.424,12.424,0,0,0,7.028,3.151,16.106,16.106,0,0,0,10.747-2.424.5.5,0,0,1,.6.8,13.6,13.6,0,0,1-3.153,1.615A17.878,17.878,0,0,1,394.454,50.39Z" transform="translate(596.003 159.154)" fill="#1f1b4b"/>
      <path id="パス_1172" data-name="パス 1172" d="M378.786,20.91c-.241-1.3,1.208,2.371,5.009,2.688,5.788.484,7.834-4.522,8.9-6.1.466-.688.881,7.151,6.79,8.064,6.683,1.033,8.688-3.444,9.689-4.72.436-.557.633,7.144,6.611,8.459,5.54,1.22,7.985-3.323,9.209-4.854.64-.8-1.873,10.01-1.236,17.681.526,6.313,2.766,13.2,9.371,13.2a11.34,11.34,0,0,0,10.913-7.214c.857-1.836-2.742,2.007-6.909-4.456-2.081-3.229-2.03-8.492-2.337-11.7-.916-9.565-2.972-13.362-6.376-17.678-6.829-8.658-13.784-11.35-19.043-12.608a38.66,38.66,0,0,0-34.8,8.812c-10.758,9.672-8.361,23.834-19.178,21.386-3.477-.787-1.743,2.664-.314,4.812,1.715,2.576,5.738,7.695,13.288,5.462,8.463-2.5,11.224-16.863,10.415-21.242" transform="translate(590.427 151.27)" fill="#1f1b4b"/>
      <path id="パス_1173" data-name="パス 1173" d="M400.383.394a38.977,38.977,0,0,1,9.051,1.045,31.819,31.819,0,0,1,9,3.556,37.1,37.1,0,0,1,10.179,9.139,26.552,26.552,0,0,1,4.157,6.933,40.181,40.181,0,0,1,2.271,10.875c.055.579.1,1.226.146,1.911.214,3.154.48,7.08,2.153,9.675s3.446,3.858,5.419,3.858a7.169,7.169,0,0,0,.764-.048c.151-.016.281-.029.39-.029a.5.5,0,0,1,.442.19c.119.187.05.425-.09.725a13.635,13.635,0,0,1-3.02,4.371,11.466,11.466,0,0,1-8.117,2.985,7.924,7.924,0,0,1-7.18-4.357,21.873,21.873,0,0,1-2.438-9.071c-.414-4.981.478-11.172,1.01-14.871.121-.842.238-1.653.3-2.182l-.1.144a14.286,14.286,0,0,1-2.552,2.862,7.136,7.136,0,0,1-4.567,1.652,8.685,8.685,0,0,1-1.86-.211,7.339,7.339,0,0,1-4.788-3.556,15.493,15.493,0,0,1-1.647-4.235c-.044-.169-.089-.341-.129-.48-.063.091-.13.191-.2.3a8.5,8.5,0,0,1-7.579,4.394,12.766,12.766,0,0,1-1.94-.156c-4.545-.7-5.947-5.355-6.546-7.341-.06-.2-.121-.4-.174-.558-.089.145-.185.307-.289.485-1.13,1.916-3.234,5.483-7.869,5.483-.258,0-.525-.011-.792-.034a7.034,7.034,0,0,1-4.681-2.559,27.173,27.173,0,0,1-1.8,11.035,21.876,21.876,0,0,1-3.413,6.229,11.118,11.118,0,0,1-5.434,3.841,12.924,12.924,0,0,1-3.654.56,10.3,10.3,0,0,1-6.451-2.258,16.143,16.143,0,0,1-3.459-3.864c-1.045-1.571-2.173-3.663-1.612-4.71a1.286,1.286,0,0,1,1.245-.6,4.351,4.351,0,0,1,.942.121,10.222,10.222,0,0,0,2.234.273,5.835,5.835,0,0,0,4.814-2.378,28.2,28.2,0,0,0,3.258-6.044c1.808-4.032,4.058-9.05,8.651-13.18A38.282,38.282,0,0,1,387.4,2.576,39.184,39.184,0,0,1,400.383.394Zm42.376,47.488a5.041,5.041,0,0,1-2.588-.715,10.134,10.134,0,0,1-3.248-3.37c-1.742-2.7-2.013-6.7-2.231-9.91-.046-.681-.09-1.324-.145-1.9-.883-9.224-2.743-13.008-6.324-17.548C421.255,5.6,414.1,3.064,409.319,1.922A38.481,38.481,0,0,0,400.383.89a37.82,37.82,0,0,0-25.642,9.786c-4.515,4.059-6.742,9.024-8.53,13.014-2.183,4.869-3.908,8.716-8.525,8.716a10.715,10.715,0,0,1-2.344-.286,3.864,3.864,0,0,0-.832-.108c-.421,0-.686.111-.808.34-.337.63.256,2.2,1.588,4.2,2.643,3.971,5.75,5.9,9.5,5.9a12.429,12.429,0,0,0,3.513-.54c3.554-1.051,6.581-4.519,8.522-9.766,1.641-4.434,2.11-9.076,1.719-11.193-.036-.2-.056-.356.041-.474a.272.272,0,0,1,.21-.1c.164,0,.265.115.535.421a6.718,6.718,0,0,0,4.487,2.547c.253.021.506.032.751.032,4.352,0,6.286-3.279,7.442-5.239.181-.306.337-.571.479-.782a.315.315,0,0,1,.264-.152h0c.286,0,.37.281.622,1.116.572,1.9,1.911,6.339,6.147,6.994a12.271,12.271,0,0,0,1.864.15,8.059,8.059,0,0,0,7.167-4.175c.16-.237.3-.442.425-.6a.3.3,0,0,1,.24-.124h0c.281,0,.35.268.557,1.062.5,1.936,1.686,6.469,6.062,7.432a8.188,8.188,0,0,0,1.754.2c3.59,0,5.548-2.7,6.718-4.31.184-.254.343-.473.49-.656a.316.316,0,0,1,.25-.135.274.274,0,0,1,.207.1c.155.179.13.5-.244,3.1-.53,3.678-1.416,9.834-1.007,14.759a21.7,21.7,0,0,0,2.373,8.864,7.458,7.458,0,0,0,6.751,4.109,11.094,11.094,0,0,0,10.688-7.07,1.821,1.821,0,0,0,.085-.209c-.083,0-.2.013-.327.026A7.586,7.586,0,0,1,442.759,47.882Z" transform="translate(590.427 151.27)" fill="#ff9e17"/>
    </g>
    <g id="グループ_432" data-name="グループ 432" transform="translate(-4.042)">
      <path id="パス_1174" data-name="パス 1174" d="M292.664,39.932c-1.07,2.149-3.983,2.885-6.5,1.643s-3.7-3.992-2.627-6.142,3.983-2.885,6.5-1.643,3.7,3.992,2.627,6.142" transform="translate(561.538 157.223)" fill="#ffe1b0"/>
      <path id="パス_1175" data-name="パス 1175" d="M288.7,42.438a6.046,6.046,0,0,1-2.654-.63,5.722,5.722,0,0,1-2.924-3.227,4.233,4.233,0,0,1,.179-3.262,4.575,4.575,0,0,1,4.2-2.39,6.047,6.047,0,0,1,2.654.631,5.719,5.719,0,0,1,2.923,3.225,4.234,4.234,0,0,1-.179,3.263A4.574,4.574,0,0,1,288.7,42.438Zm-1.2-8.993a4.063,4.063,0,0,0-3.733,2.1,3.72,3.72,0,0,0-.152,2.866,5.2,5.2,0,0,0,2.662,2.928,5.526,5.526,0,0,0,2.425.577,4.062,4.062,0,0,0,3.733-2.1,3.721,3.721,0,0,0,.152-2.868,5.2,5.2,0,0,0-2.662-2.927A5.528,5.528,0,0,0,287.5,33.445Z" transform="translate(561.538 157.223)" fill="#ff9e17"/>
      <path id="パス_1176" data-name="パス 1176" d="M343.575,31c1.3,2.019,4.278,2.431,6.647.919s3.231-4.373,1.929-6.393-4.278-2.431-6.647-.919-3.231,4.373-1.929,6.393" transform="translate(572.862 155.487)" fill="#ffe1b0"/>
      <path id="パス_1177" data-name="パス 1177" d="M347.185,33.091h0a4.48,4.48,0,0,1-3.827-1.949,4.237,4.237,0,0,1-.539-3.226,5.711,5.711,0,0,1,2.547-3.524,5.909,5.909,0,0,1,3.176-.952,4.48,4.48,0,0,1,3.827,1.949,4.237,4.237,0,0,1,.539,3.226,5.711,5.711,0,0,1-2.547,3.524A5.909,5.909,0,0,1,347.185,33.091Zm1.356-9.134a5.394,5.394,0,0,0-2.9.871,5.191,5.191,0,0,0-2.32,3.2,3.724,3.724,0,0,0,.469,2.836,3.915,3.915,0,0,0,3.393,1.712h0a5.393,5.393,0,0,0,2.9-.871,5.191,5.191,0,0,0,2.32-3.2,3.724,3.724,0,0,0-.469-2.836A3.915,3.915,0,0,0,348.541,23.957Z" transform="translate(572.862 155.487)" fill="#ff9e17"/>
      <path id="パス_1178" data-name="パス 1178" d="M287.309,34.54c0,18.721,15.519,33.9,34.662,33.9s34.663-15.177,34.663-33.9S341.114.642,321.971.642s-34.662,15.177-34.662,33.9" transform="translate(562.327 151.269)" fill="#ffe1b0"/>
      <path id="パス_1179" data-name="パス 1179" d="M321.971.383a35.375,35.375,0,0,1,13.591,2.684,34.858,34.858,0,0,1,11.1,7.319,34.011,34.011,0,0,1,7.485,10.857,33.577,33.577,0,0,1,0,26.594,34.011,34.011,0,0,1-7.485,10.857,34.858,34.858,0,0,1-11.1,7.319,35.757,35.757,0,0,1-27.182,0,34.858,34.858,0,0,1-11.1-7.319A34.012,34.012,0,0,1,289.8,47.837a33.577,33.577,0,0,1,0-26.594,34.012,34.012,0,0,1,7.485-10.857,34.858,34.858,0,0,1,11.1-7.319A35.372,35.372,0,0,1,321.971.383Zm0,67.8c18.971,0,34.4-15.091,34.4-33.64S340.941.9,321.971.9s-34.4,15.091-34.4,33.64S303,68.18,321.971,68.18Z" transform="translate(562.327 151.269)" fill="#ff9e17"/>
      <path id="パス_1180" data-name="パス 1180" d="M300.085,37.558c.827,3.762,3.972,6.272,7.027,5.608s4.862-4.251,4.035-8.013-3.972-6.272-7.027-5.608-4.862,4.251-4.035,8.013" transform="translate(564.708 156.537)" fill="#1f1b4b"/>
      <path id="パス_1181" data-name="パス 1181" d="M326.839,32.846c.827,3.762,3.972,6.272,7.027,5.608s4.862-4.251,4.035-8.013-3.972-6.272-7.027-5.608-4.862,4.251-4.035,8.013" transform="translate(569.771 155.675)" fill="#1f1b4b"/>
      <path id="パス_1182" data-name="パス 1182" d="M300.407,47.06c0,2.025,1.916,3.666,4.279,3.666s4.28-1.641,4.28-3.666-1.916-3.666-4.28-3.666-4.279,1.641-4.279,3.666" transform="translate(564.807 159.09)" fill="#ffa798"/>
      <path id="パス_1183" data-name="パス 1183" d="M332.077,40.958c0,2.025,1.916,3.666,4.279,3.666s4.28-1.641,4.28-3.666-1.916-3.666-4.28-3.666-4.279,1.642-4.279,3.666" transform="translate(570.801 157.974)" fill="#ffa798"/>
      <path id="パス_1184" data-name="パス 1184" d="M320.167,40.884a.5.5,0,0,1-.384-.82c1.538-1.849,1-2.642.819-2.9a3.276,3.276,0,0,0-2.8-1.193.5.5,0,0,1-.1-1,4.228,4.228,0,0,1,3.727,1.624c.759,1.113.464,2.494-.877,4.105A.5.5,0,0,1,320.167,40.884Z" transform="translate(568.089 157.639)" fill="#1f1b4b"/>
      <path id="パス_1185" data-name="パス 1185" d="M318.5,49.56a17.876,17.876,0,0,1-6.247-1.12,13.594,13.594,0,0,1-3.153-1.615.5.5,0,1,1,.6-.8,12.935,12.935,0,0,0,2.941,1.492,16.971,16.971,0,0,0,7.806.932,12.424,12.424,0,0,0,7.027-3.151,11.487,11.487,0,0,0,2.216-2.627.5.5,0,0,1,.876.482,12.221,12.221,0,0,1-2.393,2.86,13.593,13.593,0,0,1-7.614,3.429A18.269,18.269,0,0,1,318.5,49.56Z" transform="translate(566.508 159.002)" fill="#1f1b4b"/>
      <path id="パス_1186" data-name="パス 1186" d="M287.961,41.061a33.459,33.459,0,0,1-.789-6.605C287.173,15.564,302.944.25,322.4.25c17.494,0,31.078,12.76,33.827,28.992l-.5-.238c-6.769-2.987-9.023-13.844-9.364-12.87-.654,1.864-2.948,6.3-7.4,6.691-6.155.541-9.138-7.342-9.467-6.364-.519,1.55-.566,7.174-7.312,8.2-7.155,1.086-9.043-6.262-9.167-5.434-.444,2.99-2.156,7.742-6.435,8.755-3.991.944-6.8-.4-8.694-3.7-.543-.949-.573-.814-1.037.815-.446,1.569-3.2,13.623-8.546,15.849Z" transform="translate(562.302 151.198)" fill="#1f1b4b"/>
      <path id="パス_1187" data-name="パス 1187" d="M287.961,41.312a.251.251,0,0,1-.246-.2,33.871,33.871,0,0,1-.793-6.655,33.392,33.392,0,0,1,2.789-13.414,34.3,34.3,0,0,1,7.6-10.952,35.435,35.435,0,0,1,11.276-7.383A36.16,36.16,0,0,1,322.4,0a34.372,34.372,0,0,1,12.369,2.264,33.756,33.756,0,0,1,10.24,6.208A35.576,35.576,0,0,1,356.473,29.2a.25.25,0,0,1-.354.268l-.5-.236a13.773,13.773,0,0,1-5.874-5.6,36.824,36.824,0,0,1-2.9-6.056c-.14-.357-.283-.721-.395-.975a12.973,12.973,0,0,1-2.18,3.6,7.839,7.839,0,0,1-5.293,2.878c-.208.018-.418.028-.625.028-4.194,0-6.859-3.775-8.139-5.589-.193-.274-.4-.573-.551-.75-.048.188-.1.418-.149.671a11.148,11.148,0,0,1-1.6,4.222,8.053,8.053,0,0,1-5.7,3.252,9.684,9.684,0,0,1-1.446.113h0a7.552,7.552,0,0,1-5.325-2.111,11.924,11.924,0,0,1-2.277-3.1c-.662,3.571-2.686,7.5-6.534,8.413a10.551,10.551,0,0,1-2.413.3,6.893,6.893,0,0,1-3.783-1.059,8.668,8.668,0,0,1-2.773-3.063c-.043-.075-.146-.255-.229-.375-.085.206-.2.62-.335,1.082l-.015.051c-.034.121-.084.311-.147.552A56.312,56.312,0,0,1,294.3,33.7c-1.76,4.065-3.745,6.581-5.9,7.477l-.014.005-.34.118A.25.25,0,0,1,287.961,41.312ZM322.4.5c-19.286,0-34.976,15.232-34.976,33.955a32.538,32.538,0,0,0,.727,6.274l.061-.021c3.191-1.334,5.965-6.421,8.245-15.121.064-.243.114-.436.15-.562l.015-.051c.135-.473.232-.815.32-1.047.065-.172.185-.491.472-.491.264,0,.434.273.689.718,1.494,2.6,3.5,3.871,6.121,3.871a10.051,10.051,0,0,0,2.3-.288c4.909-1.162,6.064-7.324,6.245-8.548a.292.292,0,0,1,.283-.279c.2,0,.28.145.541.625.741,1.363,2.711,4.984,7.181,4.984h0a9.182,9.182,0,0,0,1.371-.107c5.58-.847,6.428-4.9,6.883-7.081a9.309,9.309,0,0,1,.229-.95.338.338,0,0,1,.323-.255c.274,0,.5.321,1.049,1.1,1.232,1.745,3.8,5.377,7.73,5.377.192,0,.387-.009.581-.026,4.913-.432,6.969-5.9,7.188-6.524a.307.307,0,0,1,.291-.229c.284,0,.4.3.9,1.567,1.085,2.762,3.627,9.231,8.512,11.386l.006,0,.062.03A34.162,34.162,0,0,0,322.4.5Z" transform="translate(562.302 151.198)" fill="#ff9e17"/>
    </g>
    <rect id="長方形_170" data-name="長方形 170" width="867.227" height="633.998" transform="translate(505.615 151.152)" fill="none"/>
    <rect id="長方形_48" data-name="長方形 48" width="730.579" height="463.717" transform="translate(576.269 239.152)" fill="#fff9e2"/>
  </g>
</svg>
