<svg xmlns="http://www.w3.org/2000/svg" width="637.572" height="738.724" viewBox="0 0 637.572 738.724">
  <g id="グループ_435" data-name="グループ 435" transform="translate(-65.214 -218.673)">
    <path id="長方形_224" data-name="長方形 224" d="M24,24V652H569V24H24M0,0H593V676H0Z" transform="translate(86.036 260)" fill="#ff9e17"/>
    <g id="グループ_173" data-name="グループ 173" transform="translate(38.13 218.52)">
      <g id="グループ_373" data-name="グループ 373">
        <path id="パス_1007" data-name="パス 1007" d="M69.086,524.512a32.253,32.253,0,1,1-32.252-32.08,32.167,32.167,0,0,1,32.252,32.08" transform="translate(26.858 182.285)" fill="#ff9e17"/>
        <path id="パス_1008" data-name="パス 1008" d="M60.223,517.085,58.3,511.209l-15.745,5.1,9.766-13.3L47.3,499.362,37.48,512.738V496.176H31.267v16.563l-9.821-13.376-5.018,3.646,9.766,13.3-15.745-5.1-1.924,5.876,15.817,5.125L8.524,527.335l1.924,5.876,15.745-5.1-9.766,13.3,5.018,3.646,9.821-13.376v16.563H37.48V531.682L47.3,545.057l5.018-3.646-9.766-13.3,15.745,5.1,1.924-5.876L44.406,522.21Z" transform="translate(29.318 184.588)" fill="#134a26"/>
        <path id="パス_1009" data-name="パス 1009" d="M31.046,514.1a4.771,4.771,0,1,1-4.771-4.746,4.758,4.758,0,0,1,4.771,4.746" transform="translate(37.416 192.696)" fill="#fff"/>
        <path id="パス_1010" data-name="パス 1010" d="M750.188,524.512a32.253,32.253,0,1,1-32.253-32.08,32.167,32.167,0,0,1,32.253,32.08" transform="translate(-87.935 182.285)" fill="#ff9e17"/>
        <path id="パス_1011" data-name="パス 1011" d="M741.325,517.085l-1.924-5.876-15.745,5.1,9.766-13.3-5.018-3.646-9.821,13.376V496.176h-6.213v16.563l-9.821-13.376-5.018,3.646,9.766,13.3-15.745-5.1-1.924,5.876,15.817,5.125-15.817,5.125,1.924,5.876,15.745-5.1-9.766,13.3,5.018,3.646,9.821-13.376v16.563h6.213V531.682l9.821,13.376,5.018-3.646-9.766-13.3,15.745,5.1,1.924-5.876-15.817-5.125Z" transform="translate(-85.475 184.588)" fill="#134a26"/>
        <path id="パス_1012" data-name="パス 1012" d="M712.148,514.1a4.771,4.771,0,1,1-4.771-4.746,4.758,4.758,0,0,1,4.771,4.746" transform="translate(-77.377 192.696)" fill="#fff"/>
        <path id="パス_1013" data-name="パス 1013" d="M69.943,40.918A32.253,32.253,0,1,1,37.69,8.838a32.167,32.167,0,0,1,32.252,32.08" transform="translate(27.393 5.437)" fill="#ff9e17"/>
        <path id="パス_1014" data-name="パス 1014" d="M61.08,33.49l-1.924-5.876-15.745,5.1,9.766-13.3-5.018-3.646L38.337,29.144V12.581H32.124V29.144L22.3,15.768l-5.018,3.646,9.766,13.3-15.745-5.1L9.381,33.49,25.2,38.615,9.381,43.741l1.924,5.876,15.745-5.1-9.766,13.3L22.3,61.463l9.821-13.376V64.65h6.213V48.087l9.821,13.376,5.018-3.646-9.766-13.3,15.745,5.1,1.924-5.876L45.263,38.615Z" transform="translate(29.853 7.74)" fill="#134a26"/>
        <path id="パス_1015" data-name="パス 1015" d="M31.9,30.507a4.771,4.771,0,1,1-4.771-4.746A4.758,4.758,0,0,1,31.9,30.507" transform="translate(37.951 15.849)" fill="#fff"/>
        <path id="パス_1016" data-name="パス 1016" d="M750.188,40.918a32.253,32.253,0,1,1-32.253-32.08,32.167,32.167,0,0,1,32.253,32.08" transform="translate(-90.909 5.437)" fill="#ff9e17"/>
        <path id="パス_1017" data-name="パス 1017" d="M741.325,33.49,739.4,27.614l-15.745,5.1,9.766-13.3L728.4,15.768l-9.821,13.376V12.581h-6.213V29.144l-9.821-13.376-5.018,3.646,9.766,13.3-15.745-5.1-1.924,5.876,15.817,5.125-15.817,5.125,1.924,5.876,15.745-5.1-9.766,13.3,5.018,3.646,9.821-13.376V64.65h6.213V48.087L728.4,61.463l5.018-3.646-9.766-13.3,15.745,5.1,1.924-5.876-15.817-5.125Z" transform="translate(-88.448 7.74)" fill="#134a26"/>
        <path id="パス_1018" data-name="パス 1018" d="M712.148,30.507a4.771,4.771,0,1,1-4.771-4.746,4.758,4.758,0,0,1,4.771,4.746" transform="translate(-80.35 15.849)" fill="#fff"/>
        <g id="グループ_396" data-name="グループ 396" transform="translate(6.477)">
          <path id="パス_1019" data-name="パス 1019" d="M100.758,28.631A20.85,20.85,0,1,1,79.906,7.891a20.8,20.8,0,0,1,20.853,20.74" transform="translate(36.847 4.855)" fill="#0049a9"/>
          <path id="パス_1020" data-name="パス 1020" d="M79.906,49.62A21.107,21.107,0,0,1,60.466,36.8a20.9,20.9,0,0,1,4.522-23.013A21.143,21.143,0,0,1,99.35,20.46a20.9,20.9,0,0,1-4.522,23.013A21.094,21.094,0,0,1,79.906,49.62Zm0-41.479a20.49,20.49,0,1,0,20.6,20.49A20.567,20.567,0,0,0,79.906,8.141Z" transform="translate(36.847 4.855)" fill="#ff9e17"/>
        </g>
        <g id="グループ_395" data-name="グループ 395" transform="translate(5.451)">
          <path id="パス_1021" data-name="パス 1021" d="M139.442,35.859a20.85,20.85,0,1,1-20.851-20.74,20.8,20.8,0,0,1,20.851,20.74" transform="translate(60.982 9.302)" fill="#fefeed"/>
          <path id="パス_1022" data-name="パス 1022" d="M118.591,14.869a21.109,21.109,0,0,1,19.443,12.819A20.9,20.9,0,0,1,133.512,50.7,21.143,21.143,0,0,1,99.15,44.029a20.9,20.9,0,0,1,4.522-23.013,21.089,21.089,0,0,1,14.919-6.147Zm0,41.479a20.49,20.49,0,1,0-20.6-20.49A20.569,20.569,0,0,0,118.591,56.348Z" transform="translate(60.982 9.302)" fill="#ff9e17"/>
          <path id="パス_1209" data-name="パス 1209" d="M11.655-2.187h.013A13.765,13.765,0,0,1,21.476,1.9,13.964,13.964,0,0,1,21.5,21.58a13.722,13.722,0,0,1-9.8,4.079h-.013a13.765,13.765,0,0,1-9.808-4.089A13.964,13.964,0,0,1,1.858,1.892,13.722,13.722,0,0,1,11.655-2.187ZM11.7,21.284a9.378,9.378,0,0,0,6.7-2.788A9.572,9.572,0,0,0,11.664,2.187h-.009a9.378,9.378,0,0,0-6.7,2.788A9.572,9.572,0,0,0,11.69,21.284Z" transform="matrix(0.174, -0.985, 0.985, 0.174, 165.991, 54.623)" fill="#982317"/>
        </g>
        <g id="グループ_376" data-name="グループ 376" transform="translate(155.104 20.157)">
          <path id="パス_1030" data-name="パス 1030" d="M249.482,31.141A20.85,20.85,0,1,1,228.631,10.4a20.8,20.8,0,0,1,20.851,20.74" transform="translate(128.637 6.399)" fill="#fefeed"/>
          <path id="パス_1031" data-name="パス 1031" d="M228.631,10.151A21.109,21.109,0,0,1,248.074,22.97a20.9,20.9,0,0,1-4.522,23.013,21.143,21.143,0,0,1-34.362-6.672A20.9,20.9,0,0,1,213.712,16.3a21.089,21.089,0,0,1,14.919-6.147Zm0,41.479a20.49,20.49,0,1,0-20.6-20.49A20.569,20.569,0,0,0,228.631,51.63Z" transform="translate(128.637 6.399)" fill="#ff9e17"/>
          <path id="パス_1190" data-name="パス 1190" d="M11.637-2.187h.03A13.954,13.954,0,0,1,25.562,11.746,13.833,13.833,0,0,1,11.738,25.637h-.03A13.954,13.954,0,0,1-2.187,11.7,13.833,13.833,0,0,1,11.637-2.187Zm.1,23.45a9.459,9.459,0,0,0,9.45-9.508,9.589,9.589,0,0,0-9.53-9.568h-.021A9.459,9.459,0,0,0,2.187,11.7a9.589,9.589,0,0,0,9.53,9.568Z" transform="translate(341.554 42.749) rotate(-63.435)" fill="#26244a"/>
        </g>
        <g id="グループ_379" data-name="グループ 379" transform="translate(-171.597 21.24)">
          <path id="パス_1046" data-name="パス 1046" d="M487.872,26.931a20.85,20.85,0,1,1-20.851-20.74,20.8,20.8,0,0,1,20.851,20.74" transform="translate(278.37 3.809)" fill="#ff9e17"/>
          <path id="パス_1191" data-name="パス 1191" d="M0,0,23.584.063l.063,23.584L.063,23.584Z" transform="matrix(0.707, -0.707, 0.707, 0.707, 728.67, 30.74)" fill="#92221b"/>
        </g>
        <g id="グループ_408" data-name="グループ 408" transform="translate(24)">
          <path id="パス_1054" data-name="パス 1054" d="M15.97,59.924a20.8,20.8,0,0,1,20.851,20.74H15.97Z" transform="translate(9.964 36.867)" fill="#241f4a"/>
          <path id="パス_1055" data-name="パス 1055" d="M23.981,59.924A20.8,20.8,0,0,0,3.13,80.664H23.981Z" transform="translate(1.953 36.867)" fill="#fefeed"/>
          <path id="パス_1056" data-name="パス 1056" d="M23.981,93.5A20.8,20.8,0,0,1,3.13,72.763H23.981Z" transform="translate(1.953 44.766)" fill="#241f4a"/>
          <path id="パス_1057" data-name="パス 1057" d="M15.97,93.5a20.8,20.8,0,0,0,20.851-20.74H15.97Z" transform="translate(9.964 44.766)" fill="#fefeed"/>
          <path id="パス_1058" data-name="パス 1058" d="M23.979,59.673A21.109,21.109,0,0,1,43.422,72.492,20.9,20.9,0,0,1,38.9,95.5a21.154,21.154,0,0,1-29.84,0A21,21,0,0,1,23.979,59.673Zm0,41.479a20.49,20.49,0,1,0-20.6-20.49A20.569,20.569,0,0,0,23.979,101.152Z" transform="translate(1.953 36.867)" fill="#ff9e17"/>
        </g>
        <g id="グループ_407" data-name="グループ 407" transform="translate(24)">
          <path id="パス_1059" data-name="パス 1059" d="M51.586,115.706a20.85,20.85,0,1,1-20.851-20.74,20.8,20.8,0,0,1,20.851,20.74" transform="translate(6.168 58.426)" fill="#fefeed"/>
          <path id="パス_1060" data-name="パス 1060" d="M30.735,94.716a21.109,21.109,0,0,1,19.443,12.819,20.9,20.9,0,0,1-4.522,23.013,21.143,21.143,0,0,1-34.362-6.672,20.9,20.9,0,0,1,4.522-23.013,21.089,21.089,0,0,1,14.919-6.147Zm0,41.479a20.49,20.49,0,1,0-20.6-20.49A20.569,20.569,0,0,0,30.735,136.2Z" transform="translate(6.168 58.426)" fill="#ff9e17"/>
          <path id="パス_1207" data-name="パス 1207" d="M11.654-2.187h.014A13.766,13.766,0,0,1,21.476,1.9,13.964,13.964,0,0,1,21.5,21.58a13.721,13.721,0,0,1-9.8,4.078h-.014a13.766,13.766,0,0,1-9.808-4.09,13.964,13.964,0,0,1-.02-19.677A13.721,13.721,0,0,1,11.654-2.187ZM11.7,21.284A9.377,9.377,0,0,0,18.395,18.5,9.572,9.572,0,0,0,11.664,2.187h-.009A9.377,9.377,0,0,0,4.959,4.975,9.572,9.572,0,0,0,11.69,21.284Z" transform="matrix(0.183, -0.983, 0.983, 0.183, 23.229, 183.464)" fill="#241f4a"/>
        </g>
        <g id="グループ_404" data-name="グループ 404" transform="translate(24 6.548)">
          <path id="パス_1061" data-name="パス 1061" d="M55.323,235.224a20.85,20.85,0,1,1-20.851-20.74,20.8,20.8,0,0,1,20.851,20.74" transform="translate(8.5 131.958)" fill="#0f4f28"/>
          <path id="パス_1062" data-name="パス 1062" d="M34.472,214.234a21.109,21.109,0,0,1,19.443,12.819,20.9,20.9,0,0,1-4.522,23.013,21.143,21.143,0,0,1-34.362-6.672,20.9,20.9,0,0,1,4.522-23.013,21.089,21.089,0,0,1,14.919-6.147Zm0,41.479a20.49,20.49,0,1,0-20.6-20.49A20.569,20.569,0,0,0,34.472,255.713Z" transform="translate(8.5 131.958)" fill="#ff9e17"/>
        </g>
        <g id="グループ_405" data-name="グループ 405" transform="translate(24 6)">
          <path id="パス_1063" data-name="パス 1063" d="M5.814,184.566a20.93,20.93,0,0,1,29.487,0L20.559,199.23Z" transform="translate(3.627 109.814)" fill="#92221b"/>
          <path id="パス_1064" data-name="パス 1064" d="M8.16,182.252a20.661,20.661,0,0,0,0,29.33l14.745-14.665Z" transform="translate(1.281 112.128)" fill="#fff7e5"/>
          <path id="パス_1065" data-name="パス 1065" d="M35.3,206a20.93,20.93,0,0,1-29.487,0l14.743-14.665Z" transform="translate(3.627 117.714)" fill="#fff7e5"/>
          <path id="パス_1066" data-name="パス 1066" d="M29.636,211.581a20.661,20.661,0,0,0,0-29.33L14.893,196.917Z" transform="translate(9.292 112.128)" fill="#92221b"/>
          <path id="パス_1067" data-name="パス 1067" d="M22.9,178.242a21.109,21.109,0,0,1,19.442,12.819,20.9,20.9,0,0,1-4.522,23.012,21.157,21.157,0,0,1-29.84,0A21,21,0,0,1,22.9,178.242Zm0,41.478A20.489,20.489,0,1,0,2.3,199.232,20.568,20.568,0,0,0,22.9,219.72Z" transform="translate(1.281 109.815)" fill="#ff9e17"/>
        </g>
        <g id="グループ_406" data-name="グループ 406" transform="translate(24 -7)">
          <path id="パス_1068" data-name="パス 1068" d="M43.754,162.594A20.85,20.85,0,1,1,22.9,141.854a20.8,20.8,0,0,1,20.851,20.74" transform="translate(1.281 87.274)" fill="#fff7e5"/>
          <path id="パス_1069" data-name="パス 1069" d="M22.9,141.6a21.109,21.109,0,0,1,19.443,12.819,20.9,20.9,0,0,1-4.522,23.013,21.154,21.154,0,0,1-29.84,0A21,21,0,0,1,22.9,141.6Zm0,41.479a20.49,20.49,0,1,0-20.6-20.49A20.569,20.569,0,0,0,22.9,183.083Z" transform="translate(1.281 87.274)" fill="#ff9e17"/>
          <path id="線_7" data-name="線 7" d="M.25,40.956h-.5V0h.5Z" transform="translate(24.185 229.388)" fill="#ff9e17"/>
          <path id="線_8" data-name="線 8" d="M.124,20.695l-.249-.434L35.535-.217l.249.434Z" transform="translate(6.356 239.627)" fill="#ff9e17"/>
          <path id="線_9" data-name="線 9" d="M35.535,20.695-.124.217.124-.217,35.784,20.261Z" transform="translate(6.356 239.627)" fill="#ff9e17"/>
        </g>
        <g id="グループ_402" data-name="グループ 402" transform="translate(29 14)">
          <path id="パス_1074" data-name="パス 1074" d="M41.95,306.1A20.85,20.85,0,1,1,21.1,285.359,20.8,20.8,0,0,1,41.95,306.1" transform="translate(0.156 175.563)" fill="#fefeed"/>
          <path id="パス_1075" data-name="パス 1075" d="M21.1,285.109a21.109,21.109,0,0,1,19.443,12.819,20.9,20.9,0,0,1-4.522,23.013,21.154,21.154,0,0,1-29.84,0A21,21,0,0,1,21.1,285.109Zm0,41.479A20.49,20.49,0,1,0,.5,306.1,20.569,20.569,0,0,0,21.1,326.588Z" transform="translate(0.156 175.563)" fill="#ff9e17"/>
          <path id="パス_1192" data-name="パス 1192" d="M0,0,9.617.026l.074,27.8L.074,27.8Z" transform="translate(7.991 475.25) rotate(-45)" fill="#982317"/>
          <path id="パス_1193" data-name="パス 1193" d="M0,0,27.8.074l.026,9.617L.026,9.617Z" transform="translate(7.992 488.073) rotate(-45)" fill="#982317"/>
        </g>
        <g id="グループ_401" data-name="グループ 401" transform="translate(24 22)">
          <path id="パス_1076" data-name="パス 1076" d="M16.656,333.227a20.8,20.8,0,0,1,20.851-20.74v20.74Z" transform="translate(10.392 192.253)" fill="#241f4a"/>
          <path id="パス_1077" data-name="パス 1077" d="M16.656,325.327a20.8,20.8,0,0,0,20.851,20.74v-20.74Z" transform="translate(10.392 200.153)" fill="#ffd599"/>
          <path id="パス_1078" data-name="パス 1078" d="M50.346,325.327a20.8,20.8,0,0,1-20.851,20.74v-20.74Z" transform="translate(18.402 200.153)" fill="#241f4a"/>
          <path id="パス_1079" data-name="パス 1079" d="M50.346,333.227a20.8,20.8,0,0,0-20.851-20.74v20.74Z" transform="translate(18.402 192.253)" fill="#ffd599"/>
          <path id="パス_1080" data-name="パス 1080" d="M37.506,312.237a21.109,21.109,0,0,1,19.442,12.819,20.9,20.9,0,0,1-4.522,23.012A21.144,21.144,0,0,1,18.064,341.4a20.9,20.9,0,0,1,4.522-23.013,21.092,21.092,0,0,1,14.92-6.147Zm0,41.478a20.489,20.489,0,1,0-20.6-20.488A20.568,20.568,0,0,0,37.506,353.715Z" transform="translate(10.391 192.253)" fill="#ff9e17"/>
        </g>
        <g id="グループ_400" data-name="グループ 400" transform="translate(26.181 16)">
          <path id="パス_1081" data-name="パス 1081" d="M42.484,377.86a20.85,20.85,0,1,1-20.851-20.74,20.8,20.8,0,0,1,20.851,20.74" transform="translate(0.489 219.713)" fill="#ff9e17"/>
          <path id="パス_1194" data-name="パス 1194" d="M0,0,23.584.063l.063,23.584L.063,23.584Z" transform="translate(5.401 597.574) rotate(-45)" fill="#fefeed"/>
        </g>
        <g id="グループ_403" data-name="グループ 403" transform="translate(24 12)">
          <path id="パス_1082" data-name="パス 1082" d="M48.246,269.593A20.85,20.85,0,1,1,27.4,248.853a20.8,20.8,0,0,1,20.851,20.74" transform="translate(4.084 153.104)" fill="#fefeed"/>
          <path id="パス_1083" data-name="パス 1083" d="M27.4,248.6a21.109,21.109,0,0,1,19.443,12.819,20.9,20.9,0,0,1-4.522,23.013,21.143,21.143,0,0,1-34.362-6.672,20.9,20.9,0,0,1,4.522-23.013A21.089,21.089,0,0,1,27.4,248.6Zm0,41.479a20.49,20.49,0,1,0-20.6-20.49A20.569,20.569,0,0,0,27.4,290.082Z" transform="translate(4.084 153.104)" fill="#ff9e17"/>
          <path id="パス_1208" data-name="パス 1208" d="M11.654-2.187h.014A13.766,13.766,0,0,1,21.476,1.9,13.964,13.964,0,0,1,21.5,21.58a13.721,13.721,0,0,1-9.8,4.078h-.014a13.766,13.766,0,0,1-9.808-4.09,13.964,13.964,0,0,1-.02-19.677A13.721,13.721,0,0,1,11.654-2.187ZM11.7,21.284A9.377,9.377,0,0,0,18.395,18.5,9.572,9.572,0,0,0,11.664,2.187h-.009A9.377,9.377,0,0,0,4.959,4.975,9.572,9.572,0,0,0,11.69,21.284Z" transform="matrix(0.183, -0.983, 0.983, 0.183, 17.807, 432.029)" fill="#241f4a"/>
        </g>
        <path id="パス_1088" data-name="パス 1088" d="M316.757,514.053a20.8,20.8,0,0,1-20.851,20.74v-20.74Z" transform="translate(184.618 195.587)" fill="#241f4a"/>
        <path id="パス_1089" data-name="パス 1089" d="M316.757,521.953a20.8,20.8,0,0,0-20.851-20.74v20.74Z" transform="translate(184.618 187.687)" fill="#1a4f27"/>
        <path id="パス_1090" data-name="パス 1090" d="M283.067,521.953a20.8,20.8,0,0,1,20.851-20.74v20.74Z" transform="translate(176.607 187.687)" fill="#241f4a"/>
        <path id="パス_1091" data-name="パス 1091" d="M283.067,514.053a20.8,20.8,0,0,0,20.851,20.74v-20.74Z" transform="translate(176.607 195.587)" fill="#1a4f27"/>
        <path id="パス_1092" data-name="パス 1092" d="M303.916,500.963a21.109,21.109,0,0,1,19.443,12.819,20.9,20.9,0,0,1-4.522,23.013,21.143,21.143,0,0,1-34.362-6.672A20.9,20.9,0,0,1,289,507.11a21.089,21.089,0,0,1,14.919-6.147Zm0,41.479a20.49,20.49,0,1,0-20.6-20.49A20.569,20.569,0,0,0,303.916,542.442Z" transform="translate(176.607 187.687)" fill="#ff9e17"/>
        <g id="グループ_414" data-name="グループ 414" transform="translate(0 -162.151)">
          <path id="パス_1095" data-name="パス 1095" d="M276.463,494.979a20.661,20.661,0,0,1,0,29.329L261.72,509.644Z" transform="translate(163.289 346.003)" fill="#92221b"/>
          <path id="パス_1096" data-name="パス 1096" d="M282.128,497.293a20.93,20.93,0,0,0-29.487,0l14.743,14.665Z" transform="translate(157.625 343.689)" fill="#fff7e5"/>
          <path id="パス_1097" data-name="パス 1097" d="M254.987,524.308a20.661,20.661,0,0,1,0-29.329l14.743,14.665Z" transform="translate(155.278 346.003)" fill="#fff7e5"/>
          <path id="パス_1098" data-name="パス 1098" d="M252.641,518.723a20.93,20.93,0,0,0,29.487,0l-14.743-14.665Z" transform="translate(157.625 351.588)" fill="#92221b"/>
          <path id="パス_1099" data-name="パス 1099" d="M269.73,490.968a21.109,21.109,0,0,1,19.443,12.819,20.9,20.9,0,0,1-4.522,23.013,21.143,21.143,0,0,1-34.362-6.672,20.9,20.9,0,0,1,4.522-23.013,21.089,21.089,0,0,1,14.919-6.148Zm0,41.479a20.49,20.49,0,1,0-20.6-20.49A20.569,20.569,0,0,0,269.73,532.447Z" transform="translate(155.279 343.689)" fill="#ff9e17"/>
        </g>
        <path id="パス_1100" data-name="パス 1100" d="M250.4,510.292a20.85,20.85,0,1,1-20.851-20.74,20.8,20.8,0,0,1,20.851,20.74" transform="translate(130.206 180.513)" fill="#ff9e17"/>
        <path id="パス_1195" data-name="パス 1195" d="M0,0,23.584.063l.063,23.584L.063,23.584Z" transform="translate(343.029 690.804) rotate(-45)" fill="#92221b"/>
        <g id="グループ_409" data-name="グループ 409" transform="translate(-39 -162.151)">
          <path id="パス_1101" data-name="パス 1101" d="M374.771,535.255a20.739,20.739,0,1,1,20.851-20.74,20.8,20.8,0,0,1-20.851,20.74" transform="translate(220.813 345.263)" fill="#fff7e5"/>
          <path id="パス_1102" data-name="パス 1102" d="M374.771,535.5a21.109,21.109,0,0,1-19.442-12.819,20.9,20.9,0,0,1,4.522-23.012,21.144,21.144,0,0,1,34.362,6.671,20.9,20.9,0,0,1-4.522,23.013,21.092,21.092,0,0,1-14.92,6.147Zm0-41.478a20.489,20.489,0,1,0,20.6,20.488A20.568,20.568,0,0,0,374.771,494.027Z" transform="translate(220.813 345.263)" fill="#ff9e17"/>
          <path id="線_13" data-name="線 13" d="M41.176.25H0v-.5H41.176Z" transform="translate(574.997 859.779)" fill="#ff9e17"/>
          <path id="線_14" data-name="線 14" d="M20.372,35.594-.216.126.216-.126,20.8,35.343Z" transform="translate(585.291 842.045)" fill="#ff9e17"/>
          <path id="線_15" data-name="線 15" d="M.216,35.594l-.432-.251L20.372-.126,20.8.126Z" transform="translate(585.291 842.044)" fill="#ff9e17"/>
        </g>
        <g id="グループ_382" data-name="グループ 382" transform="translate(-36 -100.49)">
          <path id="パス_1103" data-name="パス 1103" d="M177.441,510.632a20.85,20.85,0,1,1-20.851-20.74,20.8,20.8,0,0,1,20.851,20.74" transform="translate(84.69 301.4)" fill="#0f4f28"/>
          <path id="パス_1104" data-name="パス 1104" d="M156.59,489.642a21.109,21.109,0,0,1,19.443,12.819,20.9,20.9,0,0,1-4.522,23.013,21.143,21.143,0,0,1-34.362-6.672,20.9,20.9,0,0,1,4.522-23.013,21.089,21.089,0,0,1,14.919-6.147Zm0,41.479a20.49,20.49,0,1,0-20.6-20.49A20.569,20.569,0,0,0,156.59,531.121Z" transform="translate(84.69 301.4)" fill="#ff9e17"/>
        </g>
        <g id="グループ_381" data-name="グループ 381" transform="translate(-45 -120.678)">
          <path id="パス_1105" data-name="パス 1105" d="M131.436,514.015a20.85,20.85,0,1,1-20.851-20.74,20.8,20.8,0,0,1,20.851,20.74" transform="translate(55.987 303.481)" fill="#fefeed"/>
          <path id="パス_1106" data-name="パス 1106" d="M110.585,493.025a21.109,21.109,0,0,1,19.443,12.819,20.9,20.9,0,0,1-4.522,23.013,21.143,21.143,0,0,1-34.362-6.672,20.9,20.9,0,0,1,4.522-23.013,21.089,21.089,0,0,1,14.919-6.147Zm0,41.479a20.49,20.49,0,1,0-20.6-20.49A20.569,20.569,0,0,0,110.585,534.5Z" transform="translate(55.987 303.481)" fill="#ff9e17"/>
          <path id="パス_1196" data-name="パス 1196" d="M0,0,9.617.026l.074,27.8L.074,27.8Z" transform="translate(153.309 811.084) rotate(-45)" fill="#241f4a"/>
          <path id="パス_1197" data-name="パス 1197" d="M0,0,27.8.074l.026,9.617L.026,9.617Z" transform="translate(153.31 823.907) rotate(-45)" fill="#241f4a"/>
        </g>
        <g id="グループ_383" data-name="グループ 383" transform="translate(-16 -118.06)">
          <path id="パス_1110" data-name="パス 1110" d="M210.209,512.9a20.85,20.85,0,1,1-20.851-20.74,20.8,20.8,0,0,1,20.851,20.74" transform="translate(105.134 302.792)" fill="#fefeed"/>
          <path id="パス_1111" data-name="パス 1111" d="M189.358,491.906A21.109,21.109,0,0,1,208.8,504.725a20.9,20.9,0,0,1-4.522,23.013,21.143,21.143,0,0,1-34.362-6.672,20.9,20.9,0,0,1,4.522-23.013,21.089,21.089,0,0,1,14.919-6.147Zm0,41.479a20.49,20.49,0,1,0-20.6-20.49A20.569,20.569,0,0,0,189.358,533.385Z" transform="translate(105.134 302.792)" fill="#ff9e17"/>
          <path id="パス_1198" data-name="パス 1198" d="M0,0,9.617.026l.074,27.8L.074,27.8Z" transform="translate(281.228 809.277) rotate(-45)" fill="#241f4a"/>
          <path id="パス_1199" data-name="パス 1199" d="M0,0,27.8.074l.026,9.617L.026,9.617Z" transform="translate(281.228 822.1) rotate(-45)" fill="#241f4a"/>
        </g>
        <g id="グループ_387" data-name="グループ 387" transform="translate(-280 19)">
          <path id="パス_1141" data-name="パス 1141" d="M742.752,379.646a20.851,20.851,0,1,1-20.851-20.74,20.8,20.8,0,0,1,20.851,20.74" transform="translate(201.654 220.812)" fill="#0049a9"/>
          <path id="パス_1142" data-name="パス 1142" d="M721.9,358.656a21.109,21.109,0,0,1,19.443,12.819,20.9,20.9,0,0,1-4.522,23.013,21.143,21.143,0,0,1-34.362-6.672,20.9,20.9,0,0,1,4.522-23.013,21.089,21.089,0,0,1,14.919-6.147Zm0,41.479a20.49,20.49,0,1,0-20.6-20.49A20.569,20.569,0,0,0,721.9,400.135Z" transform="translate(201.654 220.812)" fill="#ff9e17"/>
        </g>
        <g id="グループ_388" data-name="グループ 388" transform="translate(-284.09 32.231)">
          <path id="パス_1143" data-name="パス 1143" d="M733.589,334.764a20.85,20.85,0,1,1-20.851-20.74,20.8,20.8,0,0,1,20.851,20.74" transform="translate(195.937 193.199)" fill="#ffd599"/>
          <path id="パス_1144" data-name="パス 1144" d="M712.738,313.774a21.109,21.109,0,0,1,19.443,12.819,20.9,20.9,0,0,1-4.522,23.013,21.143,21.143,0,0,1-34.362-6.672,20.9,20.9,0,0,1,4.522-23.013,21.089,21.089,0,0,1,14.919-6.147Zm0,41.479a20.49,20.49,0,1,0-20.6-20.49A20.569,20.569,0,0,0,712.738,355.253Z" transform="translate(195.937 193.199)" fill="#ff9e17"/>
          <path id="パス_1210" data-name="パス 1210" d="M11.725-2.187h.007a13.877,13.877,0,0,1,9.842,4.061,13.854,13.854,0,0,1-9.825,23.665h-.007A13.877,13.877,0,0,1,1.9,21.478,13.854,13.854,0,0,1,11.725-2.187Zm.025,23.351a9.506,9.506,0,0,0,6.75-2.781,9.384,9.384,0,0,0,2.787-6.7,9.545,9.545,0,0,0-9.557-9.5h-.005a9.506,9.506,0,0,0-6.75,2.781,9.384,9.384,0,0,0-2.787,6.7,9.545,9.545,0,0,0,9.557,9.5Z" transform="translate(895.845 517.501) rotate(-5.655)" fill="#26244a"/>
        </g>
        <g id="グループ_389" data-name="グループ 389" transform="translate(-280.655 20.737)">
          <path id="パス_1145" data-name="パス 1145" d="M740.816,305.19a20.85,20.85,0,1,1-20.851-20.74,20.8,20.8,0,0,1,20.851,20.74" transform="translate(200.446 175.004)" fill="#fff7e5"/>
          <path id="パス_1146" data-name="パス 1146" d="M719.965,284.2a21.109,21.109,0,0,1,19.443,12.819,20.9,20.9,0,0,1-4.522,23.013,21.143,21.143,0,0,1-34.362-6.672,20.9,20.9,0,0,1,4.522-23.013,21.089,21.089,0,0,1,14.919-6.147Zm0,41.479a20.49,20.49,0,1,0-20.6-20.49A20.569,20.569,0,0,0,719.965,325.679Z" transform="translate(200.446 175.004)" fill="#ff9e17"/>
          <path id="線_25" data-name="線 25" d="M.25,40.956h-.5V0h.5Z" transform="translate(920.413 459.716)" fill="#ff9e17"/>
          <path id="線_26" data-name="線 26" d="M.125,20.695l-.249-.434L35.535-.217l.249.434Z" transform="translate(902.583 469.955)" fill="#ff9e17"/>
          <path id="線_27" data-name="線 27" d="M35.535,20.695-.124.217.125-.217,35.784,20.261Z" transform="translate(902.583 469.955)" fill="#ff9e17"/>
        </g>
        <g id="グループ_390" data-name="グループ 390" transform="translate(-282.655 16.157)">
          <path id="パス_1147" data-name="パス 1147" d="M731.875,267.569a20.85,20.85,0,1,1-20.851-20.74,20.8,20.8,0,0,1,20.851,20.74" transform="translate(194.867 151.858)" fill="#ffd599"/>
          <path id="パス_1148" data-name="パス 1148" d="M711.024,246.579A21.109,21.109,0,0,1,730.467,259.4a20.9,20.9,0,0,1-4.522,23.013,21.143,21.143,0,0,1-34.362-6.672,20.9,20.9,0,0,1,4.522-23.013,21.089,21.089,0,0,1,14.919-6.147Zm0,41.479a20.49,20.49,0,1,0-20.6-20.49A20.569,20.569,0,0,0,711.024,288.058Z" transform="translate(194.867 151.858)" fill="#ff9e17"/>
        </g>
        <g id="グループ_391" data-name="グループ 391" transform="translate(-276.974 10.077)">
          <path id="パス_1149" data-name="パス 1149" d="M712.433,247.483a20.8,20.8,0,0,1-20.851-20.74h20.851Z" transform="translate(200.634 139.5)" fill="#241f4a"/>
          <path id="パス_1150" data-name="パス 1150" d="M704.422,247.483a20.8,20.8,0,0,0,20.851-20.74H704.422Z" transform="translate(208.645 139.5)" fill="#1a4f27"/>
          <path id="パス_1151" data-name="パス 1151" d="M704.422,213.9a20.8,20.8,0,0,1,20.851,20.74H704.422Z" transform="translate(208.645 131.602)" fill="#241f4a"/>
          <path id="パス_1152" data-name="パス 1152" d="M712.433,213.9a20.8,20.8,0,0,0-20.851,20.74h20.851Z" transform="translate(200.634 131.602)" fill="#1a4f27"/>
          <path id="パス_1153" data-name="パス 1153" d="M712.433,255.632a21.109,21.109,0,0,1-19.442-12.819,20.9,20.9,0,0,1,4.522-23.012,21.144,21.144,0,0,1,34.362,6.671,20.9,20.9,0,0,1-4.522,23.013,21.092,21.092,0,0,1-14.92,6.147Zm0-41.478a20.489,20.489,0,1,0,20.6,20.488A20.568,20.568,0,0,0,712.433,214.154Z" transform="translate(200.634 131.602)" fill="#ff9e17"/>
        </g>
        <g id="グループ_392" data-name="グループ 392" transform="translate(-288.102 1.375)">
          <path id="パス_1154" data-name="パス 1154" d="M734.812,206.34a20.93,20.93,0,0,1-29.487,0l14.743-14.665Z" transform="translate(193.594 117.925)" fill="#92221b"/>
          <path id="パス_1155" data-name="パス 1155" d="M729.147,211.925a20.661,20.661,0,0,0,0-29.329L714.4,197.261Z" transform="translate(199.258 112.34)" fill="#fff7e5"/>
          <path id="パス_1156" data-name="パス 1156" d="M705.325,184.91a20.93,20.93,0,0,1,29.487,0l-14.743,14.665Z" transform="translate(193.594 110.026)" fill="#fff7e5"/>
          <path id="パス_1157" data-name="パス 1157" d="M707.671,182.6a20.661,20.661,0,0,0,0,29.329l14.743-14.665Z" transform="translate(191.248 112.34)" fill="#92221b"/>
          <path id="パス_1158" data-name="パス 1158" d="M722.415,220.564a21.109,21.109,0,0,1-19.442-12.819,20.9,20.9,0,0,1,4.522-23.012,21.145,21.145,0,0,1,34.362,6.671,20.9,20.9,0,0,1-4.522,23.013,21.092,21.092,0,0,1-14.92,6.147Zm0-41.478a20.489,20.489,0,1,0,20.6,20.488A20.568,20.568,0,0,0,722.415,179.086Z" transform="translate(191.248 110.026)" fill="#ff9e17"/>
        </g>
        <g id="グループ_393" data-name="グループ 393" transform="translate(-279 0.042)">
          <path id="パス_1159" data-name="パス 1159" d="M745.224,159.944a20.85,20.85,0,1,1-20.851-20.74,20.8,20.8,0,0,1,20.851,20.74" transform="translate(192.47 85.643)" fill="#ff9e17"/>
          <path id="パス_1204" data-name="パス 1204" d="M0,0,23.584.063l.063,23.584L.063,23.584Z" transform="translate(900.123 245.588) rotate(-45)" fill="#92221b"/>
        </g>
        <path id="パス_1160" data-name="パス 1160" d="M744.761,86.719a20.85,20.85,0,1,1-20.851-20.74,20.8,20.8,0,0,1,20.851,20.74" transform="translate(-87.819 40.593)" fill="#0f4f28"/>
        <path id="パス_1161" data-name="パス 1161" d="M723.91,65.729a21.109,21.109,0,0,1,19.443,12.819,20.9,20.9,0,0,1-4.522,23.013,21.143,21.143,0,0,1-34.362-6.672,20.9,20.9,0,0,1,4.522-23.013,21.089,21.089,0,0,1,14.919-6.147Zm0,41.479a20.49,20.49,0,1,0-20.6-20.49A20.569,20.569,0,0,0,723.91,107.208Z" transform="translate(-87.819 40.593)" fill="#ff9e17"/>
        <path id="パス_1162" data-name="パス 1162" d="M742.348,119.762A20.851,20.851,0,1,1,721.5,99.022a20.8,20.8,0,0,1,20.853,20.74" transform="translate(-89.325 60.922)" fill="#fefeed"/>
        <path id="パス_1163" data-name="パス 1163" d="M721.5,98.772a21.111,21.111,0,0,1,19.444,12.819,20.9,20.9,0,0,1-4.523,23.013,21.143,21.143,0,0,1-34.362-6.672,20.9,20.9,0,0,1,4.522-23.013A21.089,21.089,0,0,1,721.5,98.772Zm0,41.479a20.49,20.49,0,1,0-20.6-20.49A20.57,20.57,0,0,0,721.5,140.251Z" transform="translate(-89.325 60.922)" fill="#ff9e17"/>
        <path id="パス_1205" data-name="パス 1205" d="M0,0,9.617.026l.074,27.8L.074,27.8Z" transform="translate(618.907 174.272) rotate(-45)" fill="#241f4a"/>
        <path id="パス_1206" data-name="パス 1206" d="M0,0,27.8.074l.026,9.617L.026,9.617Z" transform="translate(618.907 187.095) rotate(-45)" fill="#241f4a"/>
        <g id="グループ_375" data-name="グループ 375" transform="translate(-218.398)">
          <path id="パス_1164" data-name="パス 1164" d="M455.322,47.193c0,24.949-19.987,45.175-44.641,45.175s-44.643-20.226-44.643-45.175S386.025,2.018,410.681,2.018s44.641,20.226,44.641,45.175" transform="translate(228.374 1.242)" fill="#ffe1b0"/>
          <path id="パス_1165" data-name="パス 1165" d="M410.681,1.77a44.155,44.155,0,0,1,17.474,3.57,44.715,44.715,0,0,1,14.269,9.735,45.892,45.892,0,0,1,9.62,49.8,45.306,45.306,0,0,1-9.62,14.438,44.714,44.714,0,0,1-14.269,9.735,44.549,44.549,0,0,1-34.948,0,44.716,44.716,0,0,1-14.269-9.735,45.891,45.891,0,0,1-9.62-49.8,45.305,45.305,0,0,1,9.62-14.438A44.716,44.716,0,0,1,393.206,5.34,44.158,44.158,0,0,1,410.681,1.77Zm0,90.35c24.479,0,44.393-20.154,44.393-44.927S435.159,2.266,410.681,2.266,366.286,22.42,366.286,47.193,386.2,92.12,410.681,92.12Z" transform="translate(228.374 1.242)" fill="#ff9e17"/>
          <path id="パス_1166" data-name="パス 1166" d="M415.177,41.662c-1.129,5.136-5.424,8.564-9.6,7.658s-6.639-5.805-5.51-10.942,5.424-8.564,9.6-7.658,6.639,5.805,5.51,10.942" transform="translate(249.437 18.811)" fill="#1f1b4b"/>
          <path id="パス_1167" data-name="パス 1167" d="M390.934,37.274c-1.129,5.136-5.424,8.564-9.6,7.658s-6.639-5.805-5.51-10.942,5.424-8.564,9.6-7.658,6.639,5.805,5.51,10.942" transform="translate(234.311 16.111)" fill="#1f1b4b"/>
          <path id="パス_1168" data-name="パス 1168" d="M414.761,47.851c0,2.765-2.616,5.006-5.843,5.006s-5.844-2.24-5.844-5.006,2.616-5.006,5.844-5.006,5.843,2.24,5.843,5.006" transform="translate(251.48 26.36)" fill="#ffa798"/>
          <path id="パス_1169" data-name="パス 1169" d="M384.161,42.859c0,2.765-2.616,5.006-5.843,5.006s-5.844-2.24-5.844-5.006,2.616-5.006,5.844-5.006,5.843,2.24,5.843,5.006" transform="translate(232.389 23.289)" fill="#ffa798"/>
          <path id="パス_1170" data-name="パス 1170" d="M390.884,43.6a.5.5,0,0,1-.385-.18,6.575,6.575,0,0,1-1.662-3.243,3.184,3.184,0,0,1,.46-2.119c1.315-2.18,4.994-2.863,5.15-2.891a.5.5,0,0,1,.177.984c-.047.009-3.392.636-4.47,2.423-.274.454-1,1.662,1.114,4.206a.5.5,0,0,1-.384.82Z" transform="translate(242.893 21.938)" fill="#1f1b4b"/>
          <path id="パス_1171" data-name="パス 1171" d="M398.7,52.637a24.758,24.758,0,0,1-2.791-.158,18.266,18.266,0,0,1-10.295-4.636,16.486,16.486,0,0,1-3.229-3.858.5.5,0,0,1,.876-.482h0a15.841,15.841,0,0,0,3.053,3.624,17.385,17.385,0,0,0,9.708,4.358A23.354,23.354,0,0,0,406.781,50.2a17.8,17.8,0,0,0,4.048-2.058.5.5,0,0,1,.6.8,18.364,18.364,0,0,1-4.26,2.18A24.226,24.226,0,0,1,398.7,52.637Z" transform="translate(238.848 26.913)" fill="#1f1b4b"/>
          <path id="パス_1172" data-name="パス 1172" d="M388.077,28.317c-.33-1.782,1.65,3.237,6.84,3.67,7.9.661,10.7-6.175,12.15-8.325.637-.94,1.2,9.764,9.271,11.011,9.125,1.41,11.863-4.7,13.23-6.445.6-.761.864,9.754,9.027,11.551,7.564,1.665,10.9-4.537,12.574-6.627.874-1.092-2.558,13.668-1.687,24.143.718,8.621,3.777,18.024,12.8,18.024,10.242,0,13.732-7.343,14.9-9.85s-3.745,2.741-9.433-6.085c-2.842-4.41-2.772-11.6-3.191-15.971-1.25-13.061-4.058-18.246-8.706-24.138-9.324-11.822-18.821-15.5-26-17.215a52.789,52.789,0,0,0-47.519,12.032c-14.69,13.206-11.416,32.544-26.187,29.2-4.748-1.074-2.381,3.638-.429,6.571,2.342,3.518,7.835,10.507,18.144,7.458,11.556-3.418,15.326-23.025,14.221-29" transform="translate(220.466 0.395)" fill="#1f1b4b"/>
          <path id="パス_1173" data-name="パス 1173" d="M417.567.394A53.131,53.131,0,0,1,429.9,1.819,43.36,43.36,0,0,1,442.17,6.664a45.015,45.015,0,0,1,6.856,4.989,56.687,56.687,0,0,1,7.018,7.468,36.171,36.171,0,0,1,5.663,9.444A54.778,54.778,0,0,1,464.8,43.39c.076.79.135,1.673.2,2.607.293,4.318.657,9.691,2.954,13.254s4.748,5.31,7.475,5.31a9.861,9.861,0,0,0,1.052-.067c.2-.021.379-.039.523-.039a.6.6,0,0,1,.527.218c.14.221.05.52-.128.9a18.535,18.535,0,0,1-4.1,5.941,15.568,15.568,0,0,1-11.022,4.052c-4.189,0-7.461-1.986-9.726-5.9-1.775-3.07-2.891-7.225-3.318-12.348-.564-6.791.652-15.238,1.379-20.285.193-1.337.377-2.621.435-3.313-.106.143-.218.3-.338.463a19.431,19.431,0,0,1-3.468,3.89,9.655,9.655,0,0,1-6.179,2.236,11.769,11.769,0,0,1-2.521-.286,9.934,9.934,0,0,1-6.48-4.815,21.076,21.076,0,0,1-2.239-5.758c-.081-.31-.164-.628-.231-.837-.117.163-.244.352-.384.559-1.406,2.083-4.022,5.96-10.273,5.96a17.342,17.342,0,0,1-2.635-.212c-6.149-.95-8.052-7.264-8.865-9.961-.107-.355-.217-.719-.3-.943-.149.235-.313.513-.5.823-1.534,2.6-4.39,7.442-10.667,7.442-.35,0-.712-.015-1.074-.046a9.709,9.709,0,0,1-6.519-3.674l-.011-.012a24.109,24.109,0,0,1-.175,6.378,43.306,43.306,0,0,1-2.245,8.941,29.779,29.779,0,0,1-4.646,8.479,15.092,15.092,0,0,1-7.375,5.214,17.556,17.556,0,0,1-4.964.762,13.972,13.972,0,0,1-8.754-3.064,21.955,21.955,0,0,1-4.7-5.255c-1.157-1.739-2.981-4.874-2.2-6.339a1.673,1.673,0,0,1,1.621-.774,5.852,5.852,0,0,1,1.266.162,14.048,14.048,0,0,0,3.071.376,8.052,8.052,0,0,0,6.644-3.281c1.682-2.074,2.97-4.947,4.461-8.273A83.469,83.469,0,0,1,374.86,22.9a38.451,38.451,0,0,1,7.3-8.994,52.182,52.182,0,0,1,17.7-10.539A53.414,53.414,0,0,1,417.567.394Zm57.863,64.662a6.8,6.8,0,0,1-3.488-.964,13.75,13.75,0,0,1-4.4-4.573c-2.366-3.671-2.735-9.115-3.032-13.489-.063-.931-.123-1.81-.2-2.593-1.208-12.618-3.753-17.795-8.654-24.008C446.119,7.34,436.326,3.864,429.789,2.3A52.635,52.635,0,0,0,417.567.89a51.731,51.731,0,0,0-35.073,13.386c-6.18,5.556-9.224,12.345-11.67,17.8-2.968,6.619-5.312,11.847-11.557,11.847a14.542,14.542,0,0,1-3.18-.388,5.364,5.364,0,0,0-1.156-.15c-.612,0-1,.167-1.183.512-.477.89.335,3.069,2.172,5.83,3.627,5.449,7.894,8.1,13.044,8.1a17.062,17.062,0,0,0,4.823-.741c6.256-1.85,9.813-8.3,11.7-13.39,2.246-6.069,2.888-12.429,2.351-15.332-.053-.286-.062-.454.037-.573a.282.282,0,0,1,.217-.1c.183,0,.314.148.662.544a9.255,9.255,0,0,0,6.188,3.508c.349.029.7.044,1.033.044,5.994,0,8.756-4.683,10.24-7.2.246-.417.458-.777.651-1.062a.342.342,0,0,1,.286-.167h0c.323,0,.434.368.762,1.459.786,2.607,2.626,8.711,8.466,9.614a16.846,16.846,0,0,0,2.559.206c5.987,0,8.508-3.735,9.862-5.741.217-.322.405-.6.576-.818a.323.323,0,0,1,.256-.134h0c.313,0,.4.348.673,1.382.693,2.659,2.316,8.887,8.346,10.213a11.274,11.274,0,0,0,2.414.275c4.948,0,7.639-3.707,9.246-5.922.251-.345.467-.644.666-.893a.346.346,0,0,1,.27-.15.283.283,0,0,1,.214.1c.193.223.124.832-.355,4.156-.724,5.026-1.935,13.438-1.376,20.173a29.717,29.717,0,0,0,3.253,12.141c2.169,3.753,5.3,5.656,9.3,5.656,10.149,0,13.556-7.306,14.676-9.707a1.6,1.6,0,0,0,.149-.409.708.708,0,0,0-.1-.006c-.119,0-.283.017-.472.037A10.284,10.284,0,0,1,475.429,65.056Z" transform="translate(220.466 0.395)" fill="#ff9e17"/>
        </g>
        <g id="グループ_374" data-name="グループ 374" transform="translate(-238.398)">
          <path id="パス_1174" data-name="パス 1174" d="M296.146,42.4c-1.462,2.935-5.438,3.94-8.881,2.244s-5.049-5.451-3.587-8.386,5.438-3.94,8.881-2.244,5.049,5.451,3.587,8.386" transform="translate(176.651 20.417)" fill="#ffe1b0"/>
          <path id="パス_1175" data-name="パス 1175" d="M290.733,45.724a8.16,8.16,0,0,1-3.582-.851,7.718,7.718,0,0,1-3.944-4.352,5.687,5.687,0,0,1,.24-4.382,6.153,6.153,0,0,1,5.644-3.212,8.162,8.162,0,0,1,3.583.851,7.714,7.714,0,0,1,3.944,4.35,5.688,5.688,0,0,1-.239,4.384A6.152,6.152,0,0,1,290.733,45.724ZM289.09,33.445a5.641,5.641,0,0,0-5.181,2.925,5.174,5.174,0,0,0-.213,3.986,7.2,7.2,0,0,0,3.683,4.053,7.641,7.641,0,0,0,3.353.8,5.64,5.64,0,0,0,5.182-2.925,5.175,5.175,0,0,0,.212-3.988,7.194,7.194,0,0,0-3.682-4.051A7.642,7.642,0,0,0,289.09,33.445Z" transform="translate(176.651 20.417)" fill="#ff9e17"/>
          <path id="パス_1176" data-name="パス 1176" d="M343.8,33.672c1.778,2.757,5.841,3.319,9.076,1.255s4.412-5.972,2.634-8.729-5.841-3.319-9.076-1.255-4.412,5.972-2.634,8.729" transform="translate(213.98 14.58)" fill="#ffe1b0"/>
          <path id="パス_1177" data-name="パス 1177" d="M348.726,36.43h0a6.652,6.652,0,0,1-2.939-.663,5.549,5.549,0,0,1-2.208-1.955,5.692,5.692,0,0,1-.724-4.334,7.7,7.7,0,0,1,3.436-4.753,7.975,7.975,0,0,1,4.286-1.285,6.65,6.65,0,0,1,2.939.663,5.549,5.549,0,0,1,2.208,1.955,5.692,5.692,0,0,1,.724,4.334,7.7,7.7,0,0,1-3.436,4.753A7.974,7.974,0,0,1,348.726,36.43Zm1.851-12.473a7.459,7.459,0,0,0-4.008,1.2,7.183,7.183,0,0,0-3.209,4.427,5.178,5.178,0,0,0,.653,3.944,5.439,5.439,0,0,0,4.712,2.381h0a7.458,7.458,0,0,0,4.007-1.2,7.183,7.183,0,0,0,3.209-4.427,5.178,5.178,0,0,0-.653-3.944A5.438,5.438,0,0,0,350.577,23.957Z" transform="translate(213.98 14.58)" fill="#ff9e17"/>
          <path id="パス_1178" data-name="パス 1178" d="M287.309,46.928c0,25.563,21.19,46.286,47.329,46.286s47.33-20.723,47.33-46.286S360.778.642,334.638.642s-47.329,20.723-47.329,46.286" transform="translate(179.254 0.395)" fill="#ffe1b0"/>
          <path id="パス_1179" data-name="パス 1179" d="M334.638.383A48.209,48.209,0,0,1,353.16,4.041a47.5,47.5,0,0,1,15.126,9.974,46.347,46.347,0,0,1,10.2,14.795,45.753,45.753,0,0,1,0,36.238,46.347,46.347,0,0,1-10.2,14.795,47.5,47.5,0,0,1-15.126,9.974,48.73,48.73,0,0,1-37.043,0,47.5,47.5,0,0,1-15.126-9.974,46.348,46.348,0,0,1-10.2-14.795,45.754,45.754,0,0,1,0-36.238,46.348,46.348,0,0,1,10.2-14.795,47.5,47.5,0,0,1,15.126-9.974A48.2,48.2,0,0,1,334.638.383Zm0,92.572c25.956,0,47.072-20.648,47.072-46.028S360.593.9,334.638.9s-47.07,20.648-47.07,46.028S308.683,92.956,334.638,92.956Z" transform="translate(179.254 0.395)" fill="#ff9e17"/>
          <path id="パス_1180" data-name="パス 1180" d="M300.158,40.525c1.129,5.136,5.424,8.564,9.6,7.658s6.639-5.805,5.51-10.942-5.424-8.564-9.6-7.658-6.639,5.805-5.51,10.942" transform="translate(187.1 18.111)" fill="#1f1b4b"/>
          <path id="パス_1181" data-name="パス 1181" d="M326.912,35.813c1.129,5.136,5.424,8.564,9.6,7.658s6.638-5.805,5.51-10.942-5.424-8.564-9.6-7.658-6.639,5.805-5.51,10.942" transform="translate(203.792 15.212)" fill="#1f1b4b"/>
          <path id="パス_1182" data-name="パス 1182" d="M300.407,48.4c0,2.765,2.616,5.006,5.843,5.006s5.844-2.24,5.844-5.006-2.616-5.006-5.844-5.006-5.843,2.24-5.843,5.006" transform="translate(187.426 26.698)" fill="#ffa798"/>
          <path id="パス_1183" data-name="パス 1183" d="M332.077,42.3c0,2.765,2.616,5.006,5.843,5.006s5.844-2.24,5.844-5.006-2.616-5.006-5.844-5.006-5.843,2.242-5.843,5.006" transform="translate(207.185 22.943)" fill="#ffa798"/>
          <path id="パス_1184" data-name="パス 1184" d="M321.05,42.683a.5.5,0,0,1-.384-.82,5.847,5.847,0,0,0,1.458-2.746,1.975,1.975,0,0,0-.329-1.437,4.657,4.657,0,0,0-3.994-1.708.5.5,0,0,1-.1-.995,5.583,5.583,0,0,1,4.92,2.139c.985,1.444.586,3.256-1.186,5.386A.5.5,0,0,1,321.05,42.683Z" transform="translate(198.248 21.817)" fill="#1f1b4b"/>
          <path id="パス_1185" data-name="パス 1185" d="M321.821,51.807a24.224,24.224,0,0,1-8.466-1.517,18.363,18.363,0,0,1-4.26-2.18.5.5,0,0,1,.6-.8,17.8,17.8,0,0,0,4.048,2.057A23.355,23.355,0,0,0,324.5,50.655a17.384,17.384,0,0,0,9.737-4.385,15.7,15.7,0,0,0,3.023-3.6.5.5,0,0,1,.876.482,16.487,16.487,0,0,1-3.229,3.858,18.266,18.266,0,0,1-10.295,4.636A24.767,24.767,0,0,1,321.821,51.807Z" transform="translate(193.034 26.402)" fill="#1f1b4b"/>
          <path id="パス_1186" data-name="パス 1186" d="M288.25,55.976a45.688,45.688,0,0,1-1.077-9.019c0-25.8,21.535-46.706,48.1-46.706,23.888,0,42.436,17.424,46.189,39.588l-.684-.325c-9.243-4.078-12.321-18.9-12.787-17.574-.893,2.546-4.026,8.6-10.107,9.136-8.4.738-12.478-10.026-12.926-8.69-.708,2.116-.773,9.8-9.984,11.2-9.769,1.483-12.348-8.551-12.517-7.42-.606,4.083-2.944,10.572-8.787,11.954-5.45,1.289-9.285-.546-11.871-5.054-.742-1.3-.783-1.111-1.416,1.113-.609,2.142-4.365,18.6-11.669,21.641Z" transform="translate(179.169 0.154)" fill="#1f1b4b"/>
          <path id="パス_1187" data-name="パス 1187" d="M288.25,56.226a.251.251,0,0,1-.246-.2,46.168,46.168,0,0,1-1.082-9.069,45.505,45.505,0,0,1,3.8-18.28A46.749,46.749,0,0,1,301.086,13.75,48.293,48.293,0,0,1,316.455,3.689,49.284,49.284,0,0,1,335.273,0,46.842,46.842,0,0,1,352.13,3.085a46,46,0,0,1,13.954,8.459A47.574,47.574,0,0,1,376.24,24.18,48.847,48.847,0,0,1,381.709,39.8a.25.25,0,0,1-.354.268l-.681-.323c-2.968-1.31-5.652-3.873-7.981-7.617a50.2,50.2,0,0,1-3.951-8.255c-.24-.612-.471-1.2-.63-1.532a17.623,17.623,0,0,1-3.04,5.089,10.615,10.615,0,0,1-7.166,3.9c-.282.025-.566.037-.845.037-5.679,0-9.3-5.129-11.039-7.593a13.167,13.167,0,0,0-.871-1.159c-.082.286-.161.661-.25,1.086a15.143,15.143,0,0,1-2.168,5.731,10.908,10.908,0,0,1-7.721,4.4,13.13,13.13,0,0,1-1.961.153h0a10.223,10.223,0,0,1-7.208-2.858,16.308,16.308,0,0,1-3.118-4.257l-.1-.179a19.577,19.577,0,0,1-2.384,6.593,10.353,10.353,0,0,1-6.514,5.079,14.31,14.31,0,0,1-3.273.41,9.323,9.323,0,0,1-5.116-1.432,11.745,11.745,0,0,1-3.756-4.151,5.176,5.176,0,0,0-.411-.64,11.387,11.387,0,0,0-.527,1.627l-.02.07c-.047.166-.115.426-.2.755a76.806,76.806,0,0,1-3.605,10.887c-2.394,5.528-5.088,8.947-8.007,10.162l-.014.005-.464.162A.25.25,0,0,1,288.25,56.226ZM335.273.5c-26.384,0-47.85,20.84-47.85,46.456a44.831,44.831,0,0,0,1.015,8.688l.186-.065c4.386-1.831,8.192-8.8,11.314-20.71.087-.332.156-.594.2-.765l.02-.07c.183-.644.316-1.109.434-1.422.081-.214.23-.611.559-.611.294,0,.5.3.862.935,2.057,3.587,4.817,5.331,8.438,5.331a13.81,13.81,0,0,0,3.158-.4c5.237-1.239,7.875-6.881,8.6-11.747.043-.288.254-.3.3-.3.22,0,.312.171.658.806,1.02,1.874,3.728,6.854,9.886,6.854h0a12.628,12.628,0,0,0,1.886-.147c7.683-1.167,8.848-6.744,9.474-9.74a12.662,12.662,0,0,1,.31-1.287.368.368,0,0,1,.354-.286c.312,0,.574.351,1.357,1.46,1.691,2.4,5.21,7.381,10.63,7.381.264,0,.534-.012.8-.035,6.765-.595,9.593-8.114,9.893-8.969a.327.327,0,0,1,.311-.252c.315,0,.455.33,1.143,2.081,1.486,3.782,4.967,12.64,11.671,15.6l.006,0,.246.117C377.082,16.832,357.872.5,335.273.5Z" transform="translate(179.169 0.154)" fill="#ff9e17"/>
        </g>
      </g>
    </g>
    <rect id="長方形_48" data-name="長方形 48" width="465.327" height="530" transform="translate(149.873 340)" fill="#fff9e2"/>
  </g>
</svg>
