<svg version="1.1" id="logo_mark" xmlns="http://www.w3.org/2000/svg" xmlns:xlink="http://www.w3.org/1999/xlink" x="0px"
	y="0px" viewBox="0 0 134.4 116.3" style="enable-background:new 0 0 134.4 116.3;" xml:space="preserve">
	<style>
		#logo_mark .st0{
		fill:#3d3d3d;
		stroke-width:0.05em;
		stroke:rgba(0,0,0,0);
		animation: FillIn 1s 2s linear both;
		}

		#logo_mark .st1{
		fill:rgba(0,0,0,0);
		stroke-width:1.5px;
		stroke:#3d3d3d;
		stroke-dasharray: 200;
		//stroke-dashoffset:200;
		animation: drawline 2s 1s linear forwards,opacitys .3s 1s linear forwards;
		opacity: 0;
		}

		@media all and (-ms-high-contrast:none){
		#logo_mark .st1 {
		stroke-width:3px;
		stroke-dasharray: 0;
		stroke-dashoffset: 0;
		animation: none;
		}
		}

		@keyframes drawline {
		from {stroke-dashoffset:200;}
		to {stroke-dashoffset:0;}
		}
		@keyframes FillIn {
		from { fill-opacity: 0; }
		to { fill-opacity: 1; }
		}
		@keyframes opacitys{
		from{opacity: 0;}
		to{opacity: 1;}
		}
	</style>
	<g>
		<path class="st0" d="M13.6,97.3c0.1,0.1,0.2,0.2,0,0.3c-0.1,0.1-0.2,0.3-0.3,0.4c-0.1,0.1-0.2,0.1-0.3,0.1c-2.1-1.1-3.7-2.5-5-4.2
			c-1.3,2.1-3,3.6-5.4,4.6c-0.1,0.1-0.2,0-0.3-0.1c-0.1-0.1,0-0.2,0.1-0.2c2.2-1.2,3.9-2.9,5-5.1c0.1-0.1,0.1-0.2,0.3-0.1
			c0.6,0.1,0.9,0.3,0.9,0.4c0,0.1-0.2,0.2-0.5,0.2C9.7,95.1,11.5,96.3,13.6,97.3z M2.8,103.2c0.9-0.8,1.7-1.8,2.3-3.1
			c0.1-0.1,0.2-0.1,0.3-0.1c0.6,0.3,0.9,0.5,0.9,0.6c0,0.1-0.2,0.2-0.6,0.2c-0.7,1.1-1.6,2-2.7,2.6c-0.1,0.1-0.2,0.1-0.3,0
			C2.7,103.4,2.7,103.3,2.8,103.2z M8.5,97.2v1.9h3.2l0.5-0.7c0.1-0.1,0.2-0.1,0.3,0c0.2,0.2,0.4,0.4,0.6,0.6c0.1,0.1,0.1,0.2,0,0.3
			c-0.1,0.1-0.1,0.1-0.2,0.1H8.5v3.8c0,0.6-0.4,0.9-1.1,0.9c-0.1,0-0.2-0.1-0.2-0.2c-0.1-0.2-0.2-0.3-0.4-0.4c-0.2-0.1-0.5-0.1-1-0.2
			c-0.1,0-0.2-0.1-0.2-0.2c0-0.1,0.1-0.2,0.2-0.1c0.6,0.1,1.1,0.1,1.5,0.1c0.3,0,0.4-0.1,0.4-0.3v-3.4H3.6c-0.1,0-0.2,0-0.2-0.2
			c0-0.1,0-0.2,0.2-0.2h4.3v-1.9H5.7c-0.1,0-0.2-0.1-0.2-0.2c0-0.1,0-0.2,0.2-0.2h3.7l0.4-0.5c0.1-0.1,0.2-0.1,0.3,0
			c0.2,0.2,0.4,0.3,0.5,0.5c0.1,0.1,0.1,0.2,0,0.3c0,0.1-0.1,0.1-0.2,0.1H8.5z M9.8,100.1c1.2,0.6,2.1,1.2,2.6,1.8
			c0.3,0.4,0.5,0.7,0.5,0.9c0,0.3-0.1,0.5-0.4,0.5c-0.2,0-0.3-0.2-0.5-0.5c-0.5-0.8-1.3-1.6-2.4-2.5c-0.1-0.1-0.1-0.2-0.1-0.2
			C9.6,100,9.7,100,9.8,100.1z"/>
		<path class="st0" d="M22.5,95.6h1.6c0.3-0.6,0.5-1.4,0.8-2.3c0-0.1,0.1-0.2,0.2-0.2c0.7,0.2,1.1,0.3,1.1,0.5c0,0.1-0.2,0.2-0.5,0.3
			c-0.3,0.6-0.7,1.2-1.1,1.8h4.4l0.4-0.5c0.1-0.1,0.2-0.1,0.3,0c0.5,0.4,0.7,0.6,0.7,0.7c0,0.1,0,0.1-0.1,0.1l-0.4,0.2v7.7
			c0,0.1-0.1,0.2-0.2,0.2h-0.4c-0.1,0-0.2-0.1-0.2-0.2v-0.7h-6.7v0.9c0,0.1-0.1,0.2-0.2,0.2h-0.4c-0.1,0-0.2-0.1-0.2-0.2v-8.6
			c0-0.2,0.1-0.2,0.2-0.2c0.2,0.1,0.4,0.2,0.6,0.3L22.5,95.6z M22.3,95.9v3.1h6.7v-3.1H22.3z M29.1,102.8v-3.4h-6.7v3.4H29.1z"/>
		<path class="st0" d="M38.2,95.9c-0.1,0-0.2-0.1-0.2-0.2c0-0.1,0-0.2,0.2-0.2h4.6v-2.3c0-0.1,0.1-0.2,0.2-0.2c0.7,0,1.1,0.2,1.1,0.3
			c0,0.1-0.2,0.2-0.6,0.4v1.8h3.4l0.6-0.8c0.1-0.1,0.2-0.1,0.3,0c0.3,0.2,0.5,0.5,0.7,0.7c0.1,0.1,0.1,0.2,0,0.3
			c-0.1,0.1-0.1,0.1-0.2,0.1h-2.2c-0.6,2-1.3,3.5-2.3,4.7c1.2,1.1,2.7,1.9,4.6,2.6c0.2,0,0.2,0.2,0.1,0.3c-0.1,0.1-0.2,0.3-0.3,0.4
			c-0.1,0.1-0.1,0.1-0.3,0.1c-1.9-0.8-3.4-1.7-4.5-2.8c-1.5,1.5-3.3,2.5-5.4,3.1c-0.1,0-0.2,0-0.3-0.1c-0.1-0.1,0-0.2,0.1-0.2
			c1.9-0.7,3.6-1.8,5-3.3c-1-1.2-1.9-2.7-2.6-4.7H38.2z M40.7,95.9c0.7,1.7,1.5,3.1,2.6,4.2c0.9-1.2,1.5-2.6,1.9-4.2H40.7z"/>
		<path class="st0" d="M57.7,97c0,0.1-0.2,0.2-0.5,0.3v6.7c0,0.1-0.1,0.2-0.2,0.2h-0.3c-0.1,0-0.2-0.1-0.2-0.2v-6.4
			c-0.6,0.9-1.2,1.7-1.8,2.5c-0.1,0.1-0.2,0.1-0.3,0c-0.1-0.1-0.1-0.1,0-0.2c1.4-1.9,2.5-4.1,3.2-6.7c0-0.1,0.1-0.2,0.3-0.1
			c0.7,0.2,1,0.4,1,0.5c0,0.1-0.2,0.2-0.6,0.3c-0.4,1.1-0.8,2-1.2,2.8C57.4,96.7,57.7,96.8,57.7,97z M60.6,98.4l0.2-0.1
			c1.2-0.6,2.2-1.6,3-2.7c0.1-0.1,0.2-0.1,0.3,0c0.5,0.4,0.8,0.7,0.8,0.8c0,0.1-0.1,0.1-0.3,0.1c-0.1,0-0.2,0-0.4,0
			c-1,0.9-2.2,1.6-3.6,2.3v3.9c0,0.2,0.1,0.4,0.2,0.4c0.2,0,0.6,0.1,1.5,0.1c0.9,0,1.4,0,1.5-0.1c0.4-0.1,0.6-0.9,0.7-2.4
			c0-0.2,0.1-0.2,0.2-0.2c0.1,0,0.1,0.1,0.1,0.2c0,1.1,0.1,1.7,0.1,1.9c0.1,0.1,0.1,0.2,0.2,0.2c0.1,0,0.2,0.1,0.2,0.2
			c-0.1,0.3-0.2,0.5-0.5,0.6c-0.4,0.1-1.2,0.1-2.6,0.1c-1.2,0-1.9-0.1-2.2-0.3c-0.1-0.1-0.2-0.4-0.2-0.8v-9.5c0-0.1,0.1-0.2,0.2-0.2
			c0.7,0,1.1,0.2,1.1,0.3c0,0.1-0.2,0.2-0.5,0.4V98.4z"/>
		<path class="st0" d="M77.9,99.8c-0.9,1.4-2,2.6-3.3,3.6c-0.1,0.1-0.2,0-0.3,0c-0.1-0.1,0-0.2,0-0.3c1.4-1.2,2.5-2.6,3.2-4.3h-2.8
			c0.1,0.2,0.2,0.4,0.2,0.6c0,0.3-0.1,0.5-0.4,0.5c-0.2,0-0.3-0.2-0.4-0.4c-0.2-0.6-0.5-1.2-1-1.8v6.3c0,0.1-0.1,0.2-0.2,0.2h-0.3
			c-0.1,0-0.2-0.1-0.2-0.2v-6c-0.4,1.3-1,2.5-1.6,3.5c-0.1,0.1-0.2,0.1-0.3,0.1c-0.1,0-0.1-0.1,0-0.2c0.8-1.5,1.5-3.4,1.9-5.4h-1.6
			c-0.1,0-0.2,0-0.2-0.2c0-0.1,0-0.2,0.2-0.2h1.6v-2.6c0-0.1,0.1-0.2,0.2-0.2c0.7,0.1,1,0.2,1,0.3c0,0.1-0.2,0.2-0.5,0.3v2.2h0.7
			l0.5-0.7c0.1-0.1,0.2-0.1,0.3,0c0.2,0.3,0.4,0.5,0.5,0.6c0.1,0.1,0.1,0.2,0,0.3c0,0.1-0.1,0.1-0.2,0.1h-1.7v1.3
			c0.6,0.4,1,0.8,1.3,1.2h3.3V96h-1.6l-0.1,0.1c-0.3,0.7-0.6,1.3-1,1.9c-0.1,0.1-0.2,0.1-0.3,0.1c-0.1-0.1-0.1-0.1-0.1-0.3
			c0.6-1.1,1-2.5,1.2-4c0-0.1,0.1-0.2,0.2-0.2c0.6,0.2,1,0.3,1,0.4c0,0.1-0.2,0.2-0.5,0.3c-0.1,0.4-0.2,0.9-0.4,1.3h1.4v-2.6
			c0-0.1,0.1-0.2,0.2-0.2c0.7,0,1,0.1,1,0.3c0,0.1-0.2,0.2-0.5,0.4v2.1H80l0.5-0.7c0.1-0.1,0.2-0.1,0.3,0c0.2,0.2,0.4,0.5,0.6,0.7
			c0.1,0.1,0.1,0.2,0,0.3c0,0.1-0.1,0.1-0.2,0.1h-2.6v2.5h1.9l0.5-0.7c0.1-0.1,0.2-0.1,0.3,0c0.2,0.2,0.4,0.5,0.6,0.7
			c0.1,0.1,0.1,0.2,0,0.3c-0.1,0.1-0.1,0.1-0.2,0.1h-3c0.8,1.4,2,2.6,3.4,3.6c0.1,0.1,0.1,0.2,0,0.3c-0.1,0.1-0.3,0.2-0.4,0.4
			c-0.1,0.1-0.2,0.1-0.3,0c-1.2-1-2.2-2.3-2.9-3.9v4.8c0,0.1-0.1,0.2-0.2,0.2h-0.3c-0.1,0-0.2-0.1-0.2-0.2V99.8z"/>
		<path class="st0" d="M94.5,96.2c0.3,2.1,0.9,3.7,1.8,5.1c0.5,0.8,0.9,1.2,1.1,1.2c0.2,0,0.4-0.7,0.6-2.1c0-0.2,0.1-0.2,0.2-0.2
			c0.1,0,0.1,0.1,0.1,0.2c-0.1,0.7-0.1,1.3-0.1,1.7c0,0.6,0.1,1,0.3,1.1c0.1,0.1,0.1,0.2,0.1,0.3c-0.1,0.3-0.3,0.4-0.6,0.4
			c-0.4,0-1-0.4-1.6-1.1c-1.4-1.6-2.3-3.8-2.7-6.5H88c-0.1,0-0.2,0-0.2-0.2c0-0.1,0-0.2,0.2-0.2h5.7c0-0.1,0-0.2,0-0.4
			c-0.1-0.5-0.1-1-0.1-1.7v-0.7c0-0.1,0.1-0.2,0.2-0.2c0.7,0.1,1,0.2,1,0.3c0,0.1-0.2,0.2-0.5,0.4V94c0,0.6,0,1.2,0.1,1.9H97l0.5-0.7
			c0.1-0.1,0.2-0.1,0.3,0c0.2,0.2,0.4,0.4,0.6,0.6c0.1,0.1,0.1,0.2,0,0.3c0,0.1-0.1,0.1-0.2,0.1H94.5z M91.2,98.9v3
			c0.9-0.2,1.8-0.4,2.6-0.6c0.1,0,0.2,0,0.2,0.2c0,0.1,0,0.1-0.1,0.2c-1.7,0.6-3.4,1.1-5.1,1.5c-0.1,0.3-0.1,0.5-0.3,0.5
			c-0.2,0-0.3-0.3-0.5-1c0-0.1,0-0.2,0.2-0.3c0.8-0.1,1.5-0.2,2.3-0.4v-3.1h-2.1c-0.1,0-0.2-0.1-0.2-0.2c0-0.1,0-0.2,0.2-0.2h3.8
			l0.5-0.7c0.1-0.1,0.2-0.1,0.3,0c0.2,0.2,0.4,0.4,0.6,0.7c0.1,0.1,0.1,0.2,0,0.3c0,0.1-0.1,0.1-0.2,0.1H91.2z M95.5,93.3
			c1,0.4,1.5,0.9,1.5,1.5c0,0.3-0.1,0.5-0.4,0.5c-0.2,0-0.4-0.1-0.4-0.4c-0.1-0.4-0.4-0.9-0.8-1.2c-0.1-0.1-0.1-0.2-0.1-0.2
			C95.3,93.3,95.4,93.3,95.5,93.3z"/>
		<path class="st0" d="M109.9,93.6c1.3,1.6,3.1,2.9,5.2,3.7c0.1,0.1,0.2,0.2,0,0.3c-0.1,0.1-0.2,0.3-0.3,0.4
			c-0.1,0.1-0.2,0.1-0.3,0.1c-2.2-1.2-3.8-2.6-4.9-4.3c0,0.1-0.1,0.1-0.1,0.1c-1.2,2.1-2.9,3.7-5.2,4.8c-0.1,0-0.2,0-0.3-0.1
			c-0.1-0.1,0-0.2,0.1-0.2c2.3-1.3,3.9-3.1,5-5.5c0-0.1,0.1-0.2,0.3-0.1c0.7,0.1,1,0.3,1,0.4c0,0.1-0.2,0.2-0.5,0.2L109.9,93.6z
			 M108.2,100.2c0-0.1,0-0.1,0-0.1l0,0l0,0h-3.3c-0.1,0-0.2-0.1-0.2-0.1c0-0.1,0-0.2,0.2-0.2h8.2l0.6-0.7c0.1-0.1,0.2-0.1,0.3,0l0,0
			c0.2,0.2,0.5,0.4,0.7,0.6c0.1,0.1,0.1,0.2,0,0.3c-0.1,0.1-0.1,0.1-0.2,0.1h-5.1c-0.5,1.1-1,2-1.5,2.7c0,0.1-0.1,0.1-0.1,0.1l0.7,0
			c1,0,2.4-0.1,3.9-0.2l0.4,0c-0.4-0.4-0.9-0.9-1.6-1.3c-0.1-0.1-0.1-0.2,0-0.3c0-0.1,0.1-0.1,0.2,0c1.2,0.6,2.1,1.2,2.7,1.8
			c0.3,0.4,0.5,0.7,0.5,1c0,0.3-0.1,0.5-0.4,0.5c-0.2,0-0.3-0.1-0.4-0.3c-0.2-0.4-0.4-0.7-0.7-1l-0.3,0c-2.2,0.3-4.4,0.5-6.8,0.7
			c-0.1,0.3-0.1,0.4-0.2,0.4c-0.2,0-0.4-0.3-0.5-1c0-0.1,0.1-0.2,0.3-0.2c0.7,0,1.3,0,1.8,0C107.6,101.9,107.9,101,108.2,100.2z
			 M111,97.4l0.5-0.6c0.1-0.1,0.2-0.1,0.3,0c0.2,0.2,0.4,0.4,0.6,0.5c0.1,0.1,0.1,0.2,0,0.3c0,0.1-0.1,0.1-0.2,0.1h-5.3
			c-0.1,0-0.2-0.1-0.2-0.2c0-0.1,0-0.2,0.2-0.2H111z"/>
		<path class="st0" d="M123.4,98.2c0.7,0.2,1.3,0.5,1.7,0.8c0.4,0.3,0.6,0.6,0.6,0.9c0,0.3-0.1,0.4-0.4,0.4c-0.2,0-0.3-0.1-0.4-0.3
			c-0.4-0.6-0.9-1-1.5-1.4v5.5c0,0.1-0.1,0.2-0.2,0.2h-0.4c-0.1,0-0.2-0.1-0.2-0.2v-5c-0.5,0.5-1.1,1-1.8,1.5c-0.1,0.1-0.2,0.1-0.3,0
			c-0.1-0.1-0.1-0.2,0-0.3c1.5-1.3,2.7-2.8,3.6-4.7H121c-0.1,0-0.2-0.1-0.2-0.2c-0.1-0.1,0-0.2,0.2-0.2h1.7v-2.2
			c0-0.1,0.1-0.2,0.2-0.2c0.7,0,1,0.1,1,0.3c0,0.1-0.2,0.2-0.5,0.4v1.7h0.8l0.4-0.5c0.1-0.1,0.2-0.1,0.3,0c0.4,0.4,0.6,0.6,0.6,0.7
			c0,0.1,0,0.1-0.1,0.1l-0.4,0.2C124.5,96.8,124,97.5,123.4,98.2L123.4,98.2z M127.7,103.1v-5.4h-2.4c-0.1,0-0.2-0.1-0.2-0.2
			c0-0.1,0-0.2,0.2-0.2h2.5v-3.8c0-0.1,0.1-0.2,0.2-0.2c0.7,0,1.1,0.1,1.1,0.3c0,0.1-0.2,0.2-0.5,0.4v3.3h1.6l0.5-0.7
			c0.1-0.1,0.2-0.1,0.3,0c0.2,0.2,0.4,0.4,0.5,0.6c0.1,0.1,0.1,0.2,0,0.3c-0.1,0.1-0.1,0.1-0.2,0.1h-2.7v5.4h2.1l0.6-0.7
			c0.1-0.1,0.2-0.1,0.3,0l0,0c0.2,0.2,0.4,0.4,0.6,0.7c0.1,0.1,0.1,0.2,0,0.3c0,0.1-0.1,0.1-0.2,0.1h-7c-0.1,0-0.2-0.1-0.2-0.2
			c0-0.1,0-0.2,0.2-0.2H127.7z"/>
	</g>
	<g>
		<path class="st0" d="M27.4,110.3l-1.1,1.9v1.2h-0.7v-1.1l-1.1-1.9h0.8l0.7,1.3l0.7-1.3H27.4z"/>
		<path class="st0" d="M31.4,113.5c-0.4,0-0.7-0.1-0.9-0.3c-0.2-0.2-0.3-0.5-0.3-0.9s0.1-0.7,0.3-0.9c0.2-0.2,0.5-0.3,0.9-0.3
			c0.4,0,0.7,0.1,0.9,0.3s0.3,0.5,0.3,0.9s-0.1,0.7-0.3,0.9C32.1,113.4,31.8,113.5,31.4,113.5z M31.4,111.4c-0.4,0-0.6,0.3-0.6,0.8
			c0,0.5,0.2,0.8,0.6,0.8c0.4,0,0.6-0.3,0.6-0.8C32,111.7,31.8,111.4,31.4,111.4z"/>
		<path class="st0" d="M37.9,113.4h-0.6v-1.2c0-0.3,0-0.5-0.1-0.6s-0.2-0.1-0.4-0.1c-0.1,0-0.3,0.1-0.5,0.2v1.7h-0.6v-3.2h0.6v1.2
			c0.2-0.2,0.4-0.3,0.5-0.3s0.2-0.1,0.4-0.1c0.5,0,0.8,0.3,0.8,0.9V113.4z"/>
		<path class="st0" d="M43.2,113.4h-0.6v-0.3c-0.2,0.2-0.3,0.3-0.5,0.3c-0.1,0-0.2,0.1-0.4,0.1c-0.2,0-0.4-0.1-0.5-0.2
			c-0.1-0.1-0.2-0.3-0.2-0.5c0-0.3,0.1-0.5,0.3-0.6c0.2-0.1,0.6-0.2,1.3-0.3v-0.1c0-0.1-0.1-0.3-0.2-0.3c-0.1-0.1-0.3-0.1-0.5-0.1
			c-0.2,0-0.4,0.1-0.7,0.2h0v-0.5c0.3-0.1,0.6-0.1,0.9-0.1c0.4,0,0.7,0.1,0.9,0.2c0.2,0.1,0.3,0.3,0.3,0.6V113.4z M42.5,112.8v-0.6
			c-0.4,0-0.7,0.1-0.8,0.2c-0.1,0.1-0.2,0.2-0.2,0.3c0,0.1,0,0.2,0.1,0.3c0.1,0.1,0.2,0.1,0.3,0.1C42.2,113,42.4,113,42.5,112.8z"/>
		<path class="st0" d="M48.7,113.4H48l-0.7-1l-0.3,0.3v0.7h-0.6v-3.2H47v2l0.9-1.2h0.7l-0.8,1L48.7,113.4z"/>
		<path class="st0" d="M53.8,113.4h-0.6v-0.3c-0.2,0.2-0.3,0.3-0.5,0.3c-0.1,0.1-0.2,0.1-0.4,0.1c-0.5,0-0.8-0.3-0.8-0.9V111h0.6v1.2
			c0,0.3,0,0.5,0.1,0.6c0.1,0.1,0.2,0.1,0.4,0.1c0.1,0,0.3-0.1,0.5-0.2V111h0.6V113.4z"/>
		<path class="st0" d="M57.7,113.2l0,0.2h-0.6v-3.2h0.6v1.2c0.2-0.2,0.3-0.3,0.4-0.3s0.2-0.1,0.4-0.1c0.3,0,0.5,0.1,0.6,0.3
			c0.2,0.2,0.2,0.5,0.2,0.9c0,0.4-0.1,0.7-0.3,0.9c-0.2,0.2-0.4,0.4-0.7,0.4C58.2,113.5,57.9,113.4,57.7,113.2z M57.7,111.6v1.3
			c0.1,0.1,0.3,0.1,0.4,0.1c0.4,0,0.7-0.3,0.7-0.8c0-0.5-0.2-0.8-0.5-0.8C58,111.5,57.9,111.5,57.7,111.6z"/>
		<path class="st0" d="M64.7,113.4H64v-0.3c-0.2,0.2-0.3,0.3-0.5,0.3c-0.1,0.1-0.2,0.1-0.4,0.1c-0.5,0-0.8-0.3-0.8-0.9V111h0.6v1.2
			c0,0.3,0,0.5,0.1,0.6c0.1,0.1,0.2,0.1,0.4,0.1c0.1,0,0.3-0.1,0.5-0.2V111h0.6V113.4z"/>
		<path class="st0" d="M70.1,113.4h-0.6v-1.2c0-0.3,0-0.5-0.1-0.6s-0.2-0.1-0.4-0.1c-0.1,0-0.3,0.1-0.5,0.2v1.7h-0.6V111h0.6v0.3
			c0.2-0.2,0.4-0.3,0.5-0.3s0.2-0.1,0.4-0.1c0.5,0,0.8,0.3,0.8,0.9V113.4z"/>
		<path class="st0" d="M75.7,113.4h-0.7l-0.7-1l-0.3,0.3v0.7h-0.6v-3.2H74v2l0.9-1.2h0.7l-0.8,1L75.7,113.4z"/>
		<path class="st0" d="M80.6,113.4H80v-0.3c-0.2,0.2-0.3,0.3-0.5,0.3c-0.1,0-0.2,0.1-0.4,0.1c-0.2,0-0.4-0.1-0.5-0.2
			c-0.1-0.1-0.2-0.3-0.2-0.5c0-0.3,0.1-0.5,0.3-0.6c0.2-0.1,0.6-0.2,1.3-0.3v-0.1c0-0.1-0.1-0.3-0.2-0.3c-0.1-0.1-0.3-0.1-0.5-0.1
			c-0.2,0-0.4,0.1-0.7,0.2h0v-0.5c0.3-0.1,0.6-0.1,0.9-0.1c0.4,0,0.7,0.1,0.9,0.2c0.2,0.1,0.3,0.3,0.3,0.6V113.4z M80,112.8v-0.6
			c-0.4,0-0.7,0.1-0.8,0.2c-0.1,0.1-0.2,0.2-0.2,0.3c0,0.1,0,0.2,0.1,0.3c0.1,0.1,0.2,0.1,0.3,0.1C79.7,113,79.8,113,80,112.8z"/>
		<path class="st0" d="M91.5,112.7l-0.7,1.5h-0.4l0.4-1.5H91.5z"/>
		<path class="st0" d="M100.3,113.4h-1.7v-0.5h0.5v-2.2h-0.5v-0.5h1.7v0.5h-0.5v2.2h0.5V113.4z"/>
		<path class="st0" d="M106.1,113.4h-0.7l-1.4-2.3v2.3h-0.6v-3.1h0.8l1.2,2v-2h0.6V113.4z"/>
		<path class="st0" d="M111.9,113.2c-0.3,0.1-0.5,0.2-0.6,0.2s-0.3,0-0.4,0c-0.5,0-0.8-0.1-1.1-0.4c-0.3-0.3-0.4-0.7-0.4-1.2
			c0-0.5,0.1-0.9,0.4-1.2s0.6-0.4,1.1-0.4c0.4,0,0.7,0.1,1.1,0.3v0.6h-0.1c-0.3-0.3-0.6-0.4-0.9-0.4c-0.3,0-0.5,0.1-0.7,0.3
			c-0.2,0.2-0.2,0.5-0.2,0.8c0,0.4,0.1,0.6,0.2,0.8c0.2,0.2,0.4,0.3,0.7,0.3c0.1,0,0.3,0,0.4-0.1c0.1,0,0.3-0.2,0.5-0.3h0.1V113.2z"
			/>
		<path class="st0" d="M115.7,113.4H115v-0.7h0.7V113.4z"/>
	</g>
	<g style="transform: translateX(-4px);">
		<g>
			<g>
				<path class="st1" d="M40.9,29.5"/>
			</g>
			<g>
				<path class="st1" d="M43.3,13.8"/>
			</g>
			<g>
				<path class="st1" d="M43.3,13.8"/>
			</g>
			<g>
				<path class="st1" d="M43.7,13.4C43.7,13.4,43.7,13.4,43.7,13.4L43.7,13.4c-0.7,0.8-1.1,1.9-1.1,3c0,2.6,1.9,4.6,4.5,4.6L60,21.1
					c2.6,0,4.7,2.1,4.7,4.7s-2.1,4.7-4.7,4.7H38.1h-0.3c-2.6,0-4.7,2.1-4.7,4.7s2.1,4.7,4.7,4.7h26.8"/>
			</g>
			<g>
				<path class="st1" d="M94.7,13.4C94.7,13.4,94.7,13.4,94.7,13.4L94.7,13.4c0.7,0.8,1.1,1.9,1.1,3c0,2.6-1.9,4.6-4.5,4.6l-12.9,0.1
					c-2.6,0-4.7,2.1-4.7,4.7s2.1,4.7,4.7,4.7h21.9h0.3c2.6,0,4.7,2.1,4.7,4.7s-2.1,4.7-4.7,4.7H73.7"/>
			</g>
			<g>
				<path class="st1" d="M69.2,70.7"/>
			</g>
			<g>
				<path class="st1" d="M69.2,52.3"/>
			</g>
			<g>
				<g>
					<path class="st1" d="M65,3.1c0,0-5.8,0.6-9.9,2.8"/>
				</g>
				<g>
					<path class="st1" d="M73.4,3.1c0,0,5.8,0.6,9.9,2.8"/>
				</g>
			</g>
			<g>
				<g>
					<path class="st1" d="M55.1,72.7c4.1,2.1,9.9,2.8,9.9,2.8"/>
				</g>
				<g>
					<path class="st1" d="M73.5,75.4c0,0,5.8-0.6,9.9-2.8"/>
				</g>
			</g>
			<g>
				<path class="st1" d="M45.6,63.5c-4,0-7.2-3.2-7.2-7.2s3.2-7.2,7.2-7.2c0,0,8.1-0.3,23.6,7.2s23.7,7.2,23.7,7.2
					c4,0,7.2-3.2,7.2-7.2s-3.2-7.2-7.2-7.2"/>
			</g>
			<g>
				<path class="st1" d="M92.8,63.5c4,0,7.2-3.2,7.2-7.2s-3.2-7.2-7.2-7.2c0,0-8.1-0.3-23.6,7.2s-23.7,7.2-23.7,7.2
					c-4,0-7.2-3.2-7.2-7.2s3.2-7.2,7.2-7.2"/>
			</g>
		</g>
	</g>
</svg>
