<svg id="グループ_180" data-name="グループ 180" xmlns="http://www.w3.org/2000/svg" xmlns:xlink="http://www.w3.org/1999/xlink" width="30.667" height="52.35" viewBox="0 0 30.667 52.35">
  <defs>
    <clipPath id="clip-path">
      <rect id="長方形_176" data-name="長方形 176" width="30.667" height="52.35" fill="none"/>
    </clipPath>
  </defs>
  <g id="グループ_179" data-name="グループ 179" clip-path="url(#clip-path)">
    <path id="パス_1252" data-name="パス 1252" d="M.409,63.354,0,62.7c9.246-5.822,14.44-18.461,16.052-25.01a35.483,35.483,0,0,0,.852-6.146c.074-.966.15-1.965.275-3.061l.761.087c-.122,1.081-.2,2.073-.271,3.032a36.07,36.07,0,0,1-.872,6.271C15.158,44.539,9.862,57.4.409,63.354" transform="translate(0 -11.004)" fill="#c6c7c8"/>
    <path id="パス_1253" data-name="パス 1253" d="M24.255,42.624l-1.4,1.789,3.9.816-.53-2.284Z" transform="translate(-8.831 -16.465)" fill="#00adec"/>
    <path id="パス_1254" data-name="パス 1254" d="M19.607.635a11.582,11.582,0,0,1,11.71,2.476c4.151,4.043,4.742,10.922,2.191,15.826a13.7,13.7,0,0,1-2.806,3.79c-2.316,2.079-5.929,4.3-9.446,3.776-.119-.016-.233-.042-.349-.066s-.234-.03-.352-.054c-3.491-.681-6.179-3.988-7.69-6.725a13.867,13.867,0,0,1-1.416-4.517A13.908,13.908,0,0,1,16.733,2.157,10.655,10.655,0,0,1,19.607.635" transform="translate(-4.367 0)" fill="#00adec"/>
    <path id="パス_1255" data-name="パス 1255" d="M20.375,31.673a1.176,1.176,0,0,1-.6-.164,10.344,10.344,0,0,1-3.963-5.458,1.18,1.18,0,0,1,2.241-.743,8.2,8.2,0,0,0,2.926,4.171,1.18,1.18,0,0,1-.6,2.2" transform="translate(-6.085 -9.464)" fill="#fff"/>
  </g>
</svg>
