<svg xmlns="http://www.w3.org/2000/svg" xmlns:xlink="http://www.w3.org/1999/xlink" width="140" height="128" viewBox="0 0 140 128">
  <defs>
    <clipPath id="clip-path">
      <rect id="長方形_143" data-name="長方形 143" width="140" height="128" transform="translate(352.485 16)" fill="#fff" stroke="#707070" stroke-width="1"/>
    </clipPath>
  </defs>
  <g id="マスクグループ_25" data-name="マスクグループ 25" transform="translate(-352.485 -16)" clip-path="url(#clip-path)">
    <g id="グループ_159" data-name="グループ 159" transform="translate(15.461 16)">
      <path id="パス_400" data-name="パス 400" d="M577.924,57.562a44.5,44.5,0,0,1,.011-7.815c.078-1.218.155-2.478.193-3.865l-.966-.025c-.037,1.37-.115,2.621-.192,3.83a45.358,45.358,0,0,0-.009,7.974c.656,6.405,3.244,17.455,8.967,26.429.275-.164.55-.327.827-.489-5.635-8.815-8.186-19.722-8.832-26.039" transform="translate(-226.044 -15.649)" fill="#c6c7c8"/>
      <path id="パス_401" data-name="パス 401" d="M577.774,50.785l1.153,2.615-5.015-.208,1.353-2.626Z" transform="translate(-225.063 -17.257)" fill="#ef7500"/>
      <path id="パス_402" data-name="パス 402" d="M580.126,2.406a14.589,14.589,0,0,0-15.064-.588c-6.316,3.657-9.161,11.877-7.558,18.658a17.266,17.266,0,0,0,2.256,5.494c2.187,3.252,5.913,7.083,10.371,7.526.15.017.3.02.446.027s.3.035.447.042c4.473.246,8.776-2.963,11.466-5.838a17.483,17.483,0,0,0,3.123-5.081,17.534,17.534,0,0,0-2.448-17.495,13.419,13.419,0,0,0-3.039-2.746" transform="translate(-219.313 0)" fill="#ef7500"/>
      <path id="パス_403" data-name="パス 403" d="M567.2,8.713a1.485,1.485,0,0,0-.736.274,13.027,13.027,0,0,0-4.365,7.292,1.487,1.487,0,1,0,2.894.682A10.335,10.335,0,0,1,568.2,11.4a1.486,1.486,0,0,0-1-2.688" transform="translate(-221.017 -2.971)" fill="#fff"/>
      <path id="パス_404" data-name="パス 404" d="M601.118,103.125a29.583,29.583,0,0,1-7.8-3.431c-4.993-3.744-8.557.825-5.871,4.322,5.2,6.774,17.168,6.92,17.174,6.693l.036-2.683s-.055-4.838-.055-4.842c.056.37-1.709.352-3.479-.058" transform="translate(-229.366 -33.545)" fill="#c4763a"/>
      <path id="パス_405" data-name="パス 405" d="M609.2,105.5s-7.366,17.19-7.366,23.8,35.455,2.318,34.7-3.6-8.974-18.658-8.974-18.658Z" transform="translate(-234.591 -36.004)" fill="#c4763a"/>
      <path id="長方形_116" data-name="長方形 116" d="M2.835,0H50.852a2.834,2.834,0,0,1,2.834,2.834v28.1a2.834,2.834,0,0,1-2.834,2.834H2.834A2.834,2.834,0,0,1,0,30.93V2.835A2.835,2.835,0,0,1,2.835,0Z" transform="translate(358.617 81.522)" fill="#5dc2f2"/>
      <path id="パス_406" data-name="パス 406" d="M609.726,136.954a2.093,2.093,0,0,0-2.031-1.283,3.347,3.347,0,0,0-1.285.277,3,3,0,0,0-.493.263,3.063,3.063,0,0,0,.065-.556,2.812,2.812,0,0,0-.717-2.118,1.963,1.963,0,0,0-1.388-.6h-.041a1.938,1.938,0,0,0-1.358.669,2.792,2.792,0,0,0-.624,2.174,3.078,3.078,0,0,0,.1.551,2.97,2.97,0,0,0-.509-.235,3.548,3.548,0,0,0-1.16-.211,2.074,2.074,0,0,0-2.089,1.412,1.935,1.935,0,0,0,.215,1.5,2.8,2.8,0,0,0,1.875,1.265,3.133,3.133,0,0,0,.556.077,3.046,3.046,0,0,0-.381.41,2.806,2.806,0,0,0-.66,2.159,1.96,1.96,0,0,0,.8,1.3,1.862,1.862,0,0,0,1.042.3,2.688,2.688,0,0,0,2.232-1.441,3.027,3.027,0,0,0,.244-.5,3.2,3.2,0,0,0,.274.489,2.658,2.658,0,0,0,2.173,1.321,1.83,1.83,0,0,0,1.868-1.722,2.794,2.794,0,0,0-.773-2.126,3.016,3.016,0,0,0-.406-.389,2.994,2.994,0,0,0,.551-.108,2.806,2.806,0,0,0,1.8-1.359,1.954,1.954,0,0,0,.119-1.524" transform="translate(-233.326 -45.367)" fill="#fff042"/>
      <path id="パス_407" data-name="パス 407" d="M654.7,136.954a2.094,2.094,0,0,0-2.031-1.283,3.348,3.348,0,0,0-1.286.277,3,3,0,0,0-.493.263,2.954,2.954,0,0,0,.065-.556,2.813,2.813,0,0,0-.717-2.118,1.965,1.965,0,0,0-1.388-.6h-.041a1.938,1.938,0,0,0-1.359.669,2.794,2.794,0,0,0-.624,2.174,3.079,3.079,0,0,0,.1.551,2.975,2.975,0,0,0-.509-.235,3.544,3.544,0,0,0-1.16-.211,2.073,2.073,0,0,0-2.089,1.412,1.932,1.932,0,0,0,.215,1.5,2.8,2.8,0,0,0,1.876,1.265,3.126,3.126,0,0,0,.556.077,3,3,0,0,0-.382.41,2.805,2.805,0,0,0-.659,2.159,1.957,1.957,0,0,0,.8,1.3,1.863,1.863,0,0,0,1.042.3,2.687,2.687,0,0,0,2.232-1.441,2.98,2.98,0,0,0,.244-.5,3.14,3.14,0,0,0,.275.489,2.657,2.657,0,0,0,2.173,1.321,1.831,1.831,0,0,0,1.868-1.722,2.8,2.8,0,0,0-.773-2.126,3.021,3.021,0,0,0-.406-.389,3.012,3.012,0,0,0,.552-.108,2.8,2.8,0,0,0,1.8-1.359,1.957,1.957,0,0,0,.12-1.524" transform="translate(-248.674 -45.367)" fill="#fff042"/>
      <path id="パス_408" data-name="パス 408" d="M632.212,151.62a2.093,2.093,0,0,0-2.031-1.283,3.372,3.372,0,0,0-1.285.277,3.107,3.107,0,0,0-.493.265,3.029,3.029,0,0,0,.065-.556,2.818,2.818,0,0,0-.717-2.119,1.969,1.969,0,0,0-1.388-.6h-.041a1.936,1.936,0,0,0-1.358.668,2.794,2.794,0,0,0-.624,2.174,3.125,3.125,0,0,0,.1.552,2.971,2.971,0,0,0-.508-.236,3.579,3.579,0,0,0-1.16-.211,2.073,2.073,0,0,0-2.09,1.414,1.932,1.932,0,0,0,.215,1.5,2.806,2.806,0,0,0,1.875,1.266,3.143,3.143,0,0,0,.556.076,3.1,3.1,0,0,0-.381.412,2.807,2.807,0,0,0-.66,2.159,1.956,1.956,0,0,0,.8,1.3,1.859,1.859,0,0,0,1.041.3,2.688,2.688,0,0,0,2.232-1.441,3.071,3.071,0,0,0,.244-.5,3.179,3.179,0,0,0,.274.487,2.655,2.655,0,0,0,2.173,1.321,1.827,1.827,0,0,0,1.868-1.722,2.793,2.793,0,0,0-.773-2.125,2.939,2.939,0,0,0-.406-.389,2.991,2.991,0,0,0,.551-.109,2.8,2.8,0,0,0,1.8-1.359,1.953,1.953,0,0,0,.119-1.524" transform="translate(-241 -50.372)" fill="#fff042"/>
      <path id="パス_409" data-name="パス 409" d="M613.381,176.514a8.871,8.871,0,1,1-8.87-8.871,8.871,8.871,0,0,1,8.87,8.871" transform="translate(-232.477 -57.212)" fill="#fbe619"/>
      <path id="パス_410" data-name="パス 410" d="M606.025,183.976a5.947,5.947,0,1,1,5.946-5.946,5.953,5.953,0,0,1-5.946,5.946" transform="translate(-233.993 -58.727)" fill="#7cb21b"/>
      <path id="パス_411" data-name="パス 411" d="M653.671,173.879a10.165,10.165,0,1,1-10.166-10.164,10.165,10.165,0,0,1,10.166,10.164" transform="translate(-245.344 -56.128)" fill="#fbe619"/>
      <path id="パス_412" data-name="パス 412" d="M645.241,182.43a6.814,6.814,0,1,1,6.814-6.815,6.822,6.822,0,0,1-6.814,6.815" transform="translate(-247.08 -57.607)" fill="#7cb21b"/>
      <path id="パス_413" data-name="パス 413" d="M608.422,181.075a1.318,1.318,0,0,1-.064-2.634l26.129-1.293a1.317,1.317,0,0,1,.13,2.631l-26.129,1.294h-.067" transform="translate(-236.39 -60.455)" fill="#de041d"/>
      <path id="パス_414" data-name="パス 414" d="M643.716,112.592a37.012,37.012,0,0,1,2.433,8.857c.483,6.72,5.851,6.586,6.623,1.96,1.495-8.955-6.243-18.725-6.4-18.574l-1.431,1.469s-3.323,3.341-3.325,3.345c.222-.3,1.3,1.188,2.105,2.944" transform="translate(-248.166 -35.776)" fill="#c4763a"/>
      <path id="パス_415" data-name="パス 415" d="M644.237,79.527c-1.532,10.657-12.783,14.661-25.682,12.806S595.988,83.465,597.52,72.81s12.931-20.43,26.515-18.593c13.811,1.867,21.733,14.654,20.2,25.31" transform="translate(-233.065 -18.426)" fill="#c4763a"/>
      <path id="パス_416" data-name="パス 416" d="M636.206,93.562c-.6,4.174-5.151,6.73-10.206,6s-8.7-4.462-8.1-8.637c1.432-9.965,19.787-7.655,18.307,2.634" transform="translate(-240.052 -28.85)" fill="#daaa58"/>
      <path id="パス_417" data-name="パス 417" d="M665.2,63.063a6.647,6.647,0,1,0-7.525,5.633,6.646,6.646,0,0,0,7.525-5.633" transform="translate(-251.703 -18.93)" fill="#c4763a"/>
      <path id="パス_418" data-name="パス 418" d="M614.594,55.786a6.647,6.647,0,1,0-7.525,5.633,6.647,6.647,0,0,0,7.525-5.633" transform="translate(-234.432 -16.447)" fill="#c4763a"/>
      <path id="パス_419" data-name="パス 419" d="M616.9,83.428a2.078,2.078,0,1,1-1.761-2.35,2.078,2.078,0,0,1,1.761,2.35" transform="translate(-238.323 -27.662)" fill="#1a1311"/>
      <path id="パス_420" data-name="パス 420" d="M651.458,88.4a2.077,2.077,0,1,1-1.761-2.352,2.076,2.076,0,0,1,1.761,2.352" transform="translate(-250.116 -29.358)" fill="#1a1311"/>
      <path id="パス_421" data-name="パス 421" d="M633.855,89.439A2.508,2.508,0,1,1,631.73,86.6a2.508,2.508,0,0,1,2.125,2.838" transform="translate(-243.816 -29.546)" fill="#4a2300"/>
      <path id="パス_422" data-name="パス 422" d="M625.174,97.177a3.263,3.263,0,0,1-2.429-1.629.58.58,0,0,1,1.015-.563,2.293,2.293,0,0,0,2.452,1.026c1.086-.192,1.893-1.271,2.159-2.887a.58.58,0,0,1,1.146.188c-.35,2.124-1.51,3.56-3.1,3.842a3.915,3.915,0,0,1-1.24.024" transform="translate(-241.703 -31.615)" fill="#4a2300"/>
      <path id="パス_423" data-name="パス 423" d="M634.423,98.086a3.922,3.922,0,0,1-1.184-.372c-1.449-.721-2.157-2.425-1.894-4.561a.58.58,0,0,1,1.151.142c-.2,1.624.271,2.888,1.259,3.378a2.292,2.292,0,0,0,2.642-.293.58.58,0,0,1,.814.827,3.259,3.259,0,0,1-2.788.879" transform="translate(-244.645 -31.617)" fill="#4a2300"/>
      <path id="パス_424" data-name="パス 424" d="M655.71,98.076c.134-.93-.89-1.848-2.286-2.048s-2.636.391-2.769,1.321.889,1.848,2.284,2.049,2.636-.39,2.771-1.321" transform="translate(-251.249 -32.758)" fill="#f2a59a"/>
      <path id="パス_425" data-name="パス 425" d="M610.623,91.592c.134-.93-.889-1.848-2.286-2.048s-2.636.391-2.769,1.321.889,1.849,2.284,2.05,2.636-.391,2.771-1.323" transform="translate(-235.862 -30.545)" fill="#f2a59a"/>
      <g id="グループ_134" data-name="グループ 134" transform="translate(443.183 64.019)">
        <path id="パス_658" data-name="パス 658" d="M22.675,90.265c.01-1.194-.963-1.169-1.041-.111l-2.626,49.609h6.278s-2.612-49.324-2.611-49.5" transform="translate(-5.357 -75.442)" fill="#73390f"/>
        <path id="パス_659" data-name="パス 659" d="M33.332,115.233,27.9,98.394l-2.175-6.739L21.535,78.661,20.1,74.208c-1.819-5.64-4.8-5.64-6.616,0l-1.86,5.766L.248,115.233a3.7,3.7,0,0,0,3.732,5.128H29.6a3.7,3.7,0,0,0,3.732-5.128" transform="translate(0 -69.978)" fill="#80b639"/>
      </g>
    </g>
  </g>
</svg>
