<svg id="イラスト_R" xmlns="http://www.w3.org/2000/svg" xmlns:xlink="http://www.w3.org/1999/xlink" width="208" height="149.976" viewBox="0 0 208 149.976">
  <defs>
    <clipPath id="clip-path">
      <rect id="長方形_199" data-name="長方形 199" width="208" height="149.976" fill="none"/>
    </clipPath>
    <clipPath id="clip-path-2">
      <rect id="長方形_180" data-name="長方形 180" width="5.772" height="28.508" fill="none"/>
    </clipPath>
    <clipPath id="clip-path-3">
      <rect id="長方形_181" data-name="長方形 181" width="15.075" height="26.489" fill="none"/>
    </clipPath>
    <clipPath id="clip-path-4">
      <rect id="長方形_182" data-name="長方形 182" width="24.836" height="15.097" fill="none"/>
    </clipPath>
    <clipPath id="clip-path-5">
      <rect id="長方形_183" data-name="長方形 183" width="18.116" height="22.763" fill="none"/>
    </clipPath>
    <clipPath id="clip-path-6">
      <rect id="長方形_184" data-name="長方形 184" width="7.583" height="29.516" fill="none"/>
    </clipPath>
    <clipPath id="clip-path-7">
      <rect id="長方形_185" data-name="長方形 185" width="11.96" height="26.488" fill="none"/>
    </clipPath>
    <clipPath id="clip-path-8">
      <rect id="長方形_186" data-name="長方形 186" width="61.73" height="61.729" fill="none"/>
    </clipPath>
    <clipPath id="clip-path-9">
      <rect id="長方形_187" data-name="長方形 187" width="99.379" height="67.662" fill="none"/>
    </clipPath>
    <clipPath id="clip-path-10">
      <rect id="長方形_188" data-name="長方形 188" width="38.364" height="23.627" fill="none"/>
    </clipPath>
    <clipPath id="clip-path-11">
      <rect id="長方形_189" data-name="長方形 189" width="15.452" height="19.115" fill="none"/>
    </clipPath>
    <clipPath id="clip-path-12">
      <rect id="長方形_190" data-name="長方形 190" width="10.979" height="12.715" fill="none"/>
    </clipPath>
    <clipPath id="clip-path-13">
      <rect id="長方形_191" data-name="長方形 191" width="5.738" height="4.097" fill="none"/>
    </clipPath>
    <clipPath id="clip-path-14">
      <rect id="長方形_192" data-name="長方形 192" width="26.312" height="19.187" fill="none"/>
    </clipPath>
    <clipPath id="clip-path-15">
      <rect id="長方形_193" data-name="長方形 193" width="23.044" height="10.88" fill="none"/>
    </clipPath>
    <clipPath id="clip-path-16">
      <rect id="長方形_194" data-name="長方形 194" width="99.017" height="36.497" fill="none"/>
    </clipPath>
    <clipPath id="clip-path-17">
      <rect id="長方形_195" data-name="長方形 195" width="103.111" height="19.427" fill="none"/>
    </clipPath>
    <clipPath id="clip-path-18">
      <rect id="長方形_196" data-name="長方形 196" width="102.445" height="29.326" fill="none"/>
    </clipPath>
    <clipPath id="clip-path-19">
      <rect id="長方形_197" data-name="長方形 197" width="92.97" height="52.376" fill="none"/>
    </clipPath>
    <clipPath id="clip-path-20">
      <rect id="長方形_198" data-name="長方形 198" width="84.224" height="51.831" fill="none"/>
    </clipPath>
  </defs>
  <g id="グループ_247" data-name="グループ 247" clip-path="url(#clip-path)">
    <g id="グループ_192" data-name="グループ 192" transform="translate(58.132 118.619)" style="isolation: isolate">
      <g id="グループ_191" data-name="グループ 191">
        <g id="グループ_190" data-name="グループ 190" clip-path="url(#clip-path-2)">
          <path id="パス_1309" data-name="パス 1309" d="M82.8,171.439c0,7.873-1.292,14.255-2.886,14.255s-2.886-6.382-2.886-14.255,1.292-14.255,2.886-14.255,2.886,6.382,2.886,14.255" transform="translate(-77.033 -157.184)" fill="#e82b10"/>
        </g>
      </g>
    </g>
    <g id="グループ_195" data-name="グループ 195" transform="translate(46.448 118.625)" style="isolation: isolate">
      <g id="グループ_194" data-name="グループ 194">
        <g id="グループ_193" data-name="グループ 193" clip-path="url(#clip-path-3)">
          <path id="パス_1310" data-name="パス 1310" d="M71.628,171.8c-3.918,7.275-8.232,12.56-9.635,11.8s.635-7.266,4.554-14.541,8.232-12.56,9.635-11.8-.635,7.266-4.554,14.541" transform="translate(-61.549 -157.192)" fill="#e82b10"/>
        </g>
      </g>
    </g>
    <g id="グループ_198" data-name="グループ 198" transform="translate(36.969 118.632)" style="isolation: isolate">
      <g id="グループ_197" data-name="グループ 197">
        <g id="グループ_196" data-name="グループ 196" clip-path="url(#clip-path-4)">
          <path id="パス_1311" data-name="パス 1311" d="M62.85,167.249c-6.811,3.932-12.979,6-13.776,4.621s4.079-5.688,10.89-9.62,12.978-6,13.776-4.621-4.079,5.687-10.89,9.619" transform="translate(-48.989 -157.201)" fill="#e82b10"/>
        </g>
      </g>
    </g>
    <g id="グループ_201" data-name="グループ 201" transform="translate(86.006 120.303)" style="isolation: isolate">
      <g id="グループ_200" data-name="グループ 200">
        <g id="グループ_199" data-name="グループ 199" clip-path="url(#clip-path-5)">
          <path id="パス_1312" data-name="パス 1312" d="M125.3,169.023c4.841,6.208,7.746,12.035,6.489,13.015s-6.2-3.258-11.04-9.466-7.746-12.035-6.49-13.015,6.2,3.259,11.041,9.466" transform="translate(-113.968 -159.416)" fill="#e82b10"/>
        </g>
      </g>
    </g>
    <g id="グループ_204" data-name="グループ 204" transform="translate(85.109 120.459)" style="isolation: isolate">
      <g id="グループ_203" data-name="グループ 203">
        <g id="グループ_202" data-name="グループ 202" clip-path="url(#clip-path-6)">
          <path id="パス_1313" data-name="パス 1313" d="M119.416,173.9c1.384,8.146,1.232,14.966-.34,15.233s-3.967-6.12-5.35-14.267-1.232-14.967.34-15.233,3.966,6.12,5.35,14.267" transform="translate(-112.78 -159.623)" fill="#e82b10"/>
        </g>
      </g>
    </g>
    <g id="グループ_207" data-name="グループ 207" transform="translate(75.796 120.315)" style="isolation: isolate">
      <g id="グループ_206" data-name="グループ 206">
        <g id="グループ_205" data-name="グループ 205" clip-path="url(#clip-path-7)">
          <path id="パス_1314" data-name="パス 1314" d="M109.094,173.759c-2.954,7.29-6.546,12.714-8.023,12.115s-.281-6.993,2.672-14.282,6.546-12.714,8.022-12.115.281,6.993-2.671,14.282" transform="translate(-100.439 -159.431)" fill="#e82b10"/>
        </g>
      </g>
    </g>
    <g id="グループ_210" data-name="グループ 210" transform="translate(17.109)" style="isolation: isolate">
      <g id="グループ_209" data-name="グループ 209">
        <g id="グループ_208" data-name="グループ 208" clip-path="url(#clip-path-8)">
          <path id="パス_1315" data-name="パス 1315" d="M84.4,30.864A30.865,30.865,0,1,1,53.536,0,30.864,30.864,0,0,1,84.4,30.864" transform="translate(-22.672)" fill="#ffee2c"/>
        </g>
      </g>
    </g>
    <g id="グループ_213" data-name="グループ 213" transform="translate(27.886 54.3)" style="isolation: isolate">
      <g id="グループ_212" data-name="グループ 212">
        <g id="グループ_211" data-name="グループ 211" clip-path="url(#clip-path-9)">
          <path id="パス_1316" data-name="パス 1316" d="M136.331,101.137c0,20.546-22.251,38.48-47.722,38.48-13.792,0-27.358-2.954-36.525-9.464-9.518-6.76-15.131-17.272-15.131-27.739,0-6.922.42-15.916,6.359-23.863,8.423-11.271,26.029-4.684,44.669-4.684,11.917,0,20.6.841,29.278,5.855,11.787,6.814,19.072,9.578,19.072,21.415" transform="translate(-36.952 -71.954)" fill="#ffee2c"/>
        </g>
      </g>
    </g>
    <g id="グループ_216" data-name="グループ 216" transform="translate(26.242 35.672)" style="isolation: isolate">
      <g id="グループ_215" data-name="グループ 215">
        <g id="グループ_214" data-name="グループ 214" clip-path="url(#clip-path-10)">
          <path id="パス_1317" data-name="パス 1317" d="M73.09,61.288c-.738,6.408-9.9,10.616-20.471,9.4s-18.536-7.4-17.8-13.808,9.9-10.617,20.471-9.4,18.536,7.4,17.8,13.808" transform="translate(-34.773 -47.27)" fill="#fffaac"/>
        </g>
      </g>
    </g>
    <g id="グループ_219" data-name="グループ 219" transform="translate(41.566 18.395)" style="isolation: isolate">
      <g id="グループ_218" data-name="グループ 218">
        <g id="グループ_217" data-name="グループ 217" clip-path="url(#clip-path-11)">
          <path id="パス_1318" data-name="パス 1318" d="M70.256,35.544c-1.124,5.2-5.372,8.7-9.487,7.808s-6.539-5.828-5.415-11.03,5.372-8.7,9.487-7.808,6.538,5.828,5.414,11.03" transform="translate(-55.079 -24.375)" fill="#fff"/>
        </g>
      </g>
    </g>
    <g id="グループ_222" data-name="グループ 222" transform="translate(41.513 22.775)" style="isolation: isolate">
      <g id="グループ_221" data-name="グループ 221">
        <g id="グループ_220" data-name="グループ 220" clip-path="url(#clip-path-12)">
          <path id="パス_1319" data-name="パス 1319" d="M65.988,36.536c0,3.511-2.458,6.357-5.489,6.357s-5.49-2.846-5.49-6.357,2.458-6.357,5.49-6.357,5.489,2.846,5.489,6.357" transform="translate(-55.01 -30.179)" fill="#242424"/>
        </g>
      </g>
    </g>
    <g id="グループ_225" data-name="グループ 225" transform="translate(48.264 28.665)" style="isolation: isolate">
      <g id="グループ_224" data-name="グループ 224">
        <g id="グループ_223" data-name="グループ 223" clip-path="url(#clip-path-13)">
          <path id="パス_1320" data-name="パス 1320" d="M69.694,40.033c0,1.131-1.284,2.049-2.868,2.049s-2.869-.918-2.869-2.049,1.284-2.049,2.869-2.049,2.868.918,2.868,2.049" transform="translate(-63.956 -37.985)" fill="#fff"/>
        </g>
      </g>
    </g>
    <g id="グループ_228" data-name="グループ 228" transform="translate(0 14.956)" style="isolation: isolate">
      <g id="グループ_227" data-name="グループ 227">
        <g id="グループ_226" data-name="グループ 226" clip-path="url(#clip-path-14)">
          <path id="パス_1321" data-name="パス 1321" d="M26.312,31.848A7.38,7.38,0,0,1,18.726,39,16.557,16.557,0,0,1,7.793,35.429C-1.2,28.893-.332,20.291.476,19.9c1.15-.564-.3,1.981,10.878,4.508a28.03,28.03,0,0,0,7.371.288,7.38,7.38,0,0,1,7.586,7.156" transform="translate(0 -19.818)" fill="#fd9600"/>
        </g>
      </g>
    </g>
    <g id="グループ_231" data-name="グループ 231" transform="translate(0.53 31.215)" style="isolation: isolate">
      <g id="グループ_230" data-name="グループ 230">
        <g id="グループ_229" data-name="グループ 229" clip-path="url(#clip-path-15)">
          <path id="パス_1322" data-name="パス 1322" d="M23.564,48.474a5.4,5.4,0,0,0-3.941-6.533,12.11,12.11,0,0,0-8.406.374C3.6,45.154-.1,50.618.849,51.449c1.2,1.051,2.135-.414,10.505,0a27.79,27.79,0,0,1,5.458.578,5.4,5.4,0,0,0,6.751-3.554" transform="translate(-0.703 -41.364)" fill="#fd9600"/>
        </g>
      </g>
    </g>
    <g id="グループ_234" data-name="グループ 234" transform="translate(105.055 74.432)" style="isolation: isolate">
      <g id="グループ_233" data-name="グループ 233">
        <g id="グループ_232" data-name="グループ 232" clip-path="url(#clip-path-16)">
          <path id="パス_1323" data-name="パス 1323" d="M139.211,98.632s11.794,11.25,34.882,20.944c18.82,7.9,44.132,14.132,50.441,15.2,5.981,1.013,12.014-.008,13.426-5.027,1.38-4.907-2.133-12.208-20.829-16.636s-77.92-14.482-77.92-14.482" transform="translate(-139.211 -98.632)" fill="#a5c42d"/>
        </g>
      </g>
    </g>
    <g id="グループ_237" data-name="グループ 237" transform="translate(104.889 69.187)" style="isolation: isolate">
      <g id="グループ_236" data-name="グループ 236">
        <g id="グループ_235" data-name="グループ 235" clip-path="url(#clip-path-17)">
          <path id="パス_1324" data-name="パス 1324" d="M138.99,96.507s14.052,7.823,38.716,11.5c20.1,2.994,46.289,3.9,52.505,2.38,3.535-.863,11.669-2.859,11.883-7.931.209-4.96-4.888-11.019-24.071-10.764s-79.034,4.818-79.034,4.818" transform="translate(-138.99 -91.681)" fill="#a5c42d"/>
        </g>
      </g>
    </g>
    <g id="グループ_240" data-name="グループ 240" transform="translate(102.228 48.082)" style="isolation: isolate">
      <g id="グループ_239" data-name="グループ 239">
        <g id="グループ_238" data-name="グループ 238" clip-path="url(#clip-path-18)">
          <path id="パス_1325" data-name="パス 1325" d="M135.465,90.766s15.707,4.044,40.754,1.348c20.416-2.2,46.255-7.98,51.955-11.042,3.24-1.74,10.7-5.753,9.633-10.75-1.039-4.885-7.544-9.49-26.244-4.36s-76.1,24.8-76.1,24.8" transform="translate(-135.465 -63.715)" fill="#a5c42d"/>
        </g>
      </g>
    </g>
    <g id="グループ_243" data-name="グループ 243" transform="translate(102.228 25.032)" style="isolation: isolate">
      <g id="グループ_242" data-name="グループ 242">
        <g id="グループ_241" data-name="グループ 241" clip-path="url(#clip-path-19)">
          <path id="パス_1326" data-name="パス 1326" d="M135.465,85.547s16.211-.556,39.476-10.216c18.964-7.875,42.118-20.719,46.722-25.265,2.618-2.585,8.637-8.54,6.205-13.034-2.377-4.392-9.918-6.973-26.407,3.229s-66,45.286-66,45.286" transform="translate(-135.465 -33.17)" fill="#a5c42d"/>
        </g>
      </g>
    </g>
    <g id="グループ_246" data-name="グループ 246" transform="translate(47.912 44.911)" style="isolation: isolate">
      <g id="グループ_245" data-name="グループ 245">
        <g id="グループ_244" data-name="グループ 244" clip-path="url(#clip-path-20)">
          <path id="パス_1327" data-name="パス 1327" d="M140.332,87.879c-4.7,6.833-14.181,23.464-47.18,23.464-14.919,0-29.663-8.408-29.663-20.641,0-12.61,17.678-23.768,32.424-26.036,6.525-1,14.712-.2,22.711,2.007,9.536,2.635,12.328-2.991,16.94-7.027,1.7-1.484.616,9.657.24,13.153-.054.5.4.684.892.792,3.385.737,10.192-5.285,10.887-4.69.878.753-2.791,12.5-7.251,18.978" transform="translate(-63.489 -59.512)" fill="#78b11b"/>
        </g>
      </g>
    </g>
  </g>
</svg>
