<svg xmlns="http://www.w3.org/2000/svg" xmlns:xlink="http://www.w3.org/1999/xlink" width="140" height="128" viewBox="0 0 140 128">
  <defs>
    <clipPath id="clip-path">
      <rect id="長方形_127" data-name="長方形 127" width="140" height="128" transform="translate(-105.354 0)" fill="#fff" stroke="#707070" stroke-width="1"/>
    </clipPath>
  </defs>
  <g id="マスクグループ_18" data-name="マスクグループ 18" transform="translate(105.354 0)" clip-path="url(#clip-path)">
    <g id="グループ_150" data-name="グループ 150" transform="translate(0 3.917)">
      <rect id="長方形_98" data-name="長方形 98" width="13.544" height="24.125" transform="translate(-70.59 40.399)" fill="#8ab92e"/>
      <path id="パス_249" data-name="パス 249" d="M137.674,44.739c0,6.012,4.193,9.932,9.365,9.932s9.365-3.92,9.365-9.932a13.19,13.19,0,0,0-.1-1.543H137.776a13.19,13.19,0,0,0-.1,1.543" transform="translate(-210.856 -9.427)" fill="#8ab92e"/>
      <path id="パス_250" data-name="パス 250" d="M137.438,81.939a28.845,28.845,0,0,0-8.291-1.218,29.71,29.71,0,0,0-27.293,40.687h35.171c-.746-13.426,1.149-26.192.413-39.469" transform="translate(-200.122 -20.048)" fill="#5dc2f2"/>
      <path id="パス_251" data-name="パス 251" d="M170.02,142.731a2.038,2.038,0,0,1-2.033,2.032H96.447a1.628,1.628,0,0,1-1.658-2l3.05-15.983,70.148.044a2.038,2.038,0,0,1,2.033,2.032Z" transform="translate(-198.708 -33.087)" fill="#e45f73"/>
      <rect id="長方形_99" data-name="長方形 99" width="25.282" height="51.005" transform="translate(-74.587 60.672)" fill="#fca518"/>
      <path id="パス_252" data-name="パス 252" d="M227.713,119.072a2.038,2.038,0,0,1-2.033,2.032h-56.4V45.228a2.038,2.038,0,0,1,2.033-2.033h54.366a2.038,2.038,0,0,1,2.033,2.033Z" transform="translate(-219.803 -9.427)" fill="#de041d"/>
      <path id="長方形_100" data-name="長方形 100" d="M1.684,0H36.448a1.684,1.684,0,0,1,1.684,1.684V40.442a1.685,1.685,0,0,1-1.685,1.685H1.684A1.684,1.684,0,0,1,0,40.443V1.684A1.684,1.684,0,0,1,1.684,0Z" transform="translate(-40.371 33.769)" fill="#0080d2"/>
      <path id="パス_253" data-name="パス 253" d="M140.1,146.285A12.785,12.785,0,1,1,127.316,133.5,12.785,12.785,0,0,1,140.1,146.285" transform="translate(-204.306 -34.988)" fill="#8ab92e"/>
      <path id="パス_254" data-name="パス 254" d="M128.98,156.52a8.571,8.571,0,1,1,8.571-8.571,8.581,8.581,0,0,1-8.571,8.571" transform="translate(-205.969 -36.651)" fill="#ced428"/>
      <path id="パス_255" data-name="パス 255" d="M198.394,151.168a10.057,10.057,0,1,1-10.057-10.057,10.057,10.057,0,0,1,10.057,10.057" transform="translate(-222.633 -37.142)" fill="#f1afc2"/>
      <path id="パス_257" data-name="パス 257" d="M238.059,151.168A10.057,10.057,0,1,1,228,141.111a10.057,10.057,0,0,1,10.057,10.057" transform="translate(-233.299 -37.142)" fill="#f1afc2"/>
      <path id="パス_259" data-name="パス 259" d="M230.968,47.892c-2.917,13.375-16.774,22.4-31.1,20.321s-22.311-14.147-22.311-27.836c0-21.942,20.277-28.443,34.3-25.135,15.1,3.563,22.96,14.991,19.107,32.65" transform="translate(-222.145 -1.284)" fill="#8dd2f6"/>
      <path id="パス_260" data-name="パス 260" d="M264.943,30.377c8.657,2.223,11.2,13.718,8.419,24.555S263.251,73.168,254.6,70.947,237.311,57.825,240.144,46.4c2.881-11.608,16.143-18.248,24.8-16.026" transform="translate(-239.705 -5.678)" fill="#8dd2f6"/>
      <path id="パス_261" data-name="パス 261" d="M168.33,10.2c-8.616-1.793-15.86,7.266-18.1,18.052s1.02,20.5,9.635,22.295,21.014-7.748,21.014-15.765c0-11.777-3.928-22.787-12.544-24.582" transform="translate(-214.214 -0.022)" fill="#8dd2f6"/>
      <path id="パス_262" data-name="パス 262" d="M186.7,66.3c1.065.3-4,8.839-4.187,9.611-1.751,7.045-10,9.378-16.506,4.477,0,0-3.408,5.994-3.412,6-.333.29,5.231,4.089,5.9,4.36,11.449,4.649,20.767,1.357,27.152-4.8,5.119-4.933,10.643-14.3,9.684-14.567,0,0-18.585-5.071-18.628-5.082" transform="translate(-217.907 -15.966)" fill="#8dd2f6"/>
      <path id="パス_263" data-name="パス 263" d="M194.84,57.513a2.351,2.351,0,1,1-1.788-2.8,2.351,2.351,0,0,1,1.788,2.8" transform="translate(-225.722 -12.67)" fill="#1a1311"/>
      <path id="パス_264" data-name="パス 264" d="M230.271,65.352a2.35,2.35,0,1,1-1.787-2.8,2.348,2.348,0,0,1,1.787,2.8" transform="translate(-235.751 -14.889)" fill="#1a1311"/>
      <path id="パス_265" data-name="パス 265" d="M234.28,74.576c.23-1.038-.847-2.16-2.405-2.5s-3.008.217-3.238,1.256.847,2.159,2.405,2.5,3.008-.217,3.238-1.257" transform="translate(-236.595 -17.571)" fill="#e97e8c"/>
      <path id="パス_266" data-name="パス 266" d="M188.049,64.347c.229-1.039-.847-2.159-2.405-2.5s-3.008.218-3.237,1.255.847,2.16,2.405,2.505,3.007-.217,3.237-1.256" transform="translate(-223.509 -14.676)" fill="#e97e8c"/>
      <path id="パス_267" data-name="パス 267" d="M218.549,85.338a4.4,4.4,0,0,1-1.047-.117.612.612,0,0,1,.295-1.188,4.454,4.454,0,0,0,3.306-.706,3.4,3.4,0,0,0,1.4-2.612.606.606,0,0,1,.66-.561.612.612,0,0,1,.56.66,4.631,4.631,0,0,1-1.9,3.507,5.713,5.713,0,0,1-3.268,1.017" transform="translate(-233.32 -19.887)" fill="#1a1311"/>
      <path id="パス_268" data-name="パス 268" d="M38.976,99.91c.01-1.22-.984-1.194-1.063-.114l-2.682,50.668h6.412s-2.668-50.377-2.667-50.554" transform="translate(-186.046 -26.381)" fill="#73390f"/>
      <path id="パス_269" data-name="パス 269" d="M50.267,125.825l-5.547-17.2L42.5,101.744,38.218,88.473,36.75,83.924c-1.858-5.76-4.9-5.76-6.757,0l-1.9,5.889L16.476,125.825a3.776,3.776,0,0,0,3.812,5.237H46.455a3.776,3.776,0,0,0,3.812-5.237" transform="translate(-180.981 -21.215)" fill="#80b639"/>
      <path id="パス_665" data-name="パス 665" d="M189,157.925a6.1,6.1,0,1,1,6.1-6.1,6.1,6.1,0,0,1-6.1,6.1" transform="translate(-223.257 -37.804)" fill="#e45f73"/>
      <path id="パス_666" data-name="パス 666" d="M228.664,157.925a6.1,6.1,0,1,1,6.1-6.1,6.1,6.1,0,0,1-6.1,6.1" transform="translate(-233.923 -37.804)" fill="#e45f73"/>
    </g>
  </g>
</svg>
