<svg xmlns="http://www.w3.org/2000/svg" width="17.504" height="17.5" viewBox="0 0 17.504 17.5">
  <path id="パス_1335" data-name="パス 1335" d="M11.25-16.25a1.255,1.255,0,0,0-1.156.773,1.252,1.252,0,0,0,.27,1.363L11.98-12.5,6.617-7.133a1.252,1.252,0,0,0,0,1.77,1.252,1.252,0,0,0,1.77,0L13.75-10.73l1.617,1.617a1.245,1.245,0,0,0,1.363.27A1.251,1.251,0,0,0,17.5-10v-5a1.249,1.249,0,0,0-1.25-1.25ZM3.125-15A3.124,3.124,0,0,0,0-11.875v10A3.124,3.124,0,0,0,3.125,1.25h10A3.124,3.124,0,0,0,16.25-1.875V-5A1.249,1.249,0,0,0,15-6.25,1.249,1.249,0,0,0,13.75-5v3.125a.627.627,0,0,1-.625.625h-10A.627.627,0,0,1,2.5-1.875v-10a.627.627,0,0,1,.625-.625H6.25A1.249,1.249,0,0,0,7.5-13.75,1.249,1.249,0,0,0,6.25-15Z" transform="translate(0 16.25)" fill="#fff"/>
</svg>
