<svg xmlns="http://www.w3.org/2000/svg" width="57.908" height="57.894" viewBox="0 0 57.908 57.894">
  <g transform="translate(-1662.49 -47.165)">
    <path id="パス_1329" data-name="パス 1329" d="M28.45-38.975A14.564,14.564,0,0,0,13.863-24.388,14.564,14.564,0,0,0,28.45-9.8,14.564,14.564,0,0,0,43.037-24.388,14.564,14.564,0,0,0,28.45-38.975Zm0,24.07a9.5,9.5,0,0,1-9.483-9.483,9.492,9.492,0,0,1,9.483-9.483,9.492,9.492,0,0,1,9.483,9.483A9.5,9.5,0,0,1,28.45-14.9ZM47.036-39.571a3.394,3.394,0,0,1-3.4,3.4,3.394,3.394,0,0,1-3.4-3.4,3.4,3.4,0,0,1,3.4-3.4A3.4,3.4,0,0,1,47.036-39.571ZM56.7-36.118c-.216-4.558-1.257-8.595-4.6-11.921s-7.363-4.367-11.921-4.6c-4.7-.267-18.776-.267-23.474,0-4.545.216-8.582,1.257-11.921,4.583S.419-40.688.19-36.131c-.267,4.7-.267,18.776,0,23.474C.406-8.1,1.447-4.062,4.786-.736s7.363,4.367,11.921,4.6c4.7.267,18.776.267,23.474,0C44.738,3.644,48.775,2.6,52.1-.736S56.469-8.1,56.7-12.657c.267-4.7.267-18.764,0-23.461Zm-6.068,28.5a9.6,9.6,0,0,1-5.408,5.408C41.476-.724,32.589-1.066,28.45-1.066S15.412-.736,11.68-2.209A9.6,9.6,0,0,1,6.271-7.617C4.786-11.362,5.129-20.249,5.129-24.388S4.8-37.426,6.271-41.158a9.6,9.6,0,0,1,5.408-5.408c3.745-1.485,12.632-1.143,16.771-1.143s13.038-.33,16.771,1.143a9.6,9.6,0,0,1,5.408,5.408c1.485,3.745,1.143,12.632,1.143,16.771S52.114-11.35,50.629-7.617Z" transform="translate(1663 100.5)"/>
    <path id="パス_1329_-_アウトライン" data-name="パス 1329 - アウトライン" d="M28.444-53.335c5.075,0,9.583.077,11.765.2a22.76,22.76,0,0,1,6.56,1.164,14.871,14.871,0,0,1,5.686,3.577c3.02,3.009,4.483,6.787,4.742,12.251.268,4.721.268,18.787,0,23.513a22.761,22.761,0,0,1-1.164,6.56A14.871,14.871,0,0,1,52.455-.383C49.446,2.638,45.668,4.1,40.2,4.359c-2.177.124-6.685.2-11.76.2s-9.583-.077-11.765-.2a22.725,22.725,0,0,1-6.556-1.164A14.951,14.951,0,0,1,4.433-.382C1.412-3.392-.05-7.17-.309-12.634c-.268-4.723-.268-18.8,0-23.526A22.825,22.825,0,0,1,.85-42.719a14.792,14.792,0,0,1,3.583-5.687c3.023-3.011,6.8-4.469,12.25-4.728C18.86-53.258,23.369-53.335,28.444-53.335Zm0,56.894c5.058,0,9.544-.076,11.708-.2,5.2-.246,8.775-1.618,11.595-4.449s4.19-6.393,4.451-11.593c.267-4.706.267-18.7,0-23.408-.246-5.2-1.618-8.775-4.449-11.595s-6.393-4.19-11.593-4.451c-2.168-.123-6.654-.2-11.712-.2s-9.544.076-11.708.2c-5.188.246-8.763,1.615-11.6,4.438C2.285-44.855.955-41.388.69-36.106.423-31.4.423-17.391.69-12.686c.246,5.2,1.618,8.775,4.449,11.595s6.4,4.19,11.593,4.451C18.9,3.483,23.386,3.559,28.444,3.559Zm-5.024-51.8c1.07,0,2.1.01,3.008.02.738.007,1.435.015,2.022.015s1.257-.007,1.98-.013c.887-.009,1.893-.018,2.937-.018,4.177,0,9.321.137,12.037,1.209a10.107,10.107,0,0,1,5.689,5.687c1.311,3.305,1.24,10.3,1.193,14.935-.007.738-.015,1.435-.015,2.022s.007,1.284.015,2.022c.047,4.635.118,11.641-1.193,14.933a10.106,10.106,0,0,1-5.687,5.687C42.7-.67,37.609-.532,33.48-.532c-1.07,0-2.1-.01-3.008-.02-.738-.007-1.435-.015-2.022-.015s-1.257.007-1.98.013c-.887.009-1.893.018-2.937.018-4.177,0-9.321-.137-12.037-1.209A10.107,10.107,0,0,1,5.807-7.431c-1.311-3.305-1.24-10.3-1.193-14.935.007-.738.015-1.435.015-2.022s-.007-1.257-.013-1.98C4.571-31.015,4.5-38.04,5.806-41.342a10.107,10.107,0,0,1,5.687-5.689C14.2-48.105,19.291-48.243,23.42-48.243Zm5.03,1.034c-.591,0-1.291-.007-2.032-.015-.906-.009-1.933-.02-3-.02-3.725,0-8.976.118-11.556,1.142a9.114,9.114,0,0,0-5.128,5.128c-1.231,3.119-1.164,10.026-1.121,14.6.007.725.014,1.409.014,1.989s-.007,1.291-.015,2.032C5.568-17.8,5.5-10.922,6.736-7.8a9.114,9.114,0,0,0,5.128,5.128c2.587,1.021,7.9,1.139,11.669,1.139,1.04,0,2.043-.01,2.928-.018.725-.007,1.409-.014,1.989-.014s1.291.007,2.032.015c.906.009,1.933.02,3,.02,3.725,0,8.976-.118,11.556-1.142A9.114,9.114,0,0,0,50.164-7.8c1.238-3.11,1.168-10,1.122-14.554-.007-.741-.015-1.441-.015-2.032s.007-1.291.015-2.032c.046-4.553.116-11.433-1.122-14.554A9.114,9.114,0,0,0,45.036-46.1c-2.587-1.021-7.9-1.139-11.669-1.139-1.04,0-2.043.01-2.928.018C29.715-47.216,29.03-47.209,28.45-47.209Zm15.184,3.735a3.907,3.907,0,0,1,3.9,3.9,3.877,3.877,0,0,1-1.143,2.765,3.88,3.88,0,0,1-2.759,1.138,3.877,3.877,0,0,1-2.765-1.143,3.88,3.88,0,0,1-1.138-2.759A3.907,3.907,0,0,1,43.634-43.474Zm0,6.8a2.906,2.906,0,0,0,2.9-2.9,2.906,2.906,0,0,0-2.9-2.9,2.906,2.906,0,0,0-2.9,2.9A2.906,2.906,0,0,0,43.634-36.669ZM28.45-39.475a14.993,14.993,0,0,1,10.675,4.412,14.993,14.993,0,0,1,4.412,10.675,14.993,14.993,0,0,1-4.412,10.675A14.993,14.993,0,0,1,28.45-9.3a14.993,14.993,0,0,1-10.675-4.412,14.993,14.993,0,0,1-4.412-10.675,14.993,14.993,0,0,1,4.412-10.675A14.993,14.993,0,0,1,28.45-39.475Zm0,29.174A14.1,14.1,0,0,0,42.537-24.388,14.1,14.1,0,0,0,28.45-38.475,14.1,14.1,0,0,0,14.363-24.388,14.1,14.1,0,0,0,28.45-10.3Zm0-24.07a9.995,9.995,0,0,1,9.983,9.983A9.995,9.995,0,0,1,28.45-14.4a9.995,9.995,0,0,1-9.983-9.983A9.995,9.995,0,0,1,28.45-34.371Zm0,18.967a8.994,8.994,0,0,0,8.983-8.983,8.994,8.994,0,0,0-8.983-8.983,8.994,8.994,0,0,0-8.983,8.983A8.994,8.994,0,0,0,28.45-15.4Z" transform="translate(1663 100.5)" fill="#fff"/>
  </g>
</svg>
