<svg xmlns="http://www.w3.org/2000/svg" width="215.998" height="205.84" viewBox="0 0 215.998 205.84">
  <g id="イラスト_L" transform="translate(-907.385 -5338.296)">
    <circle id="楕円形_11" data-name="楕円形 11" cx="82" cy="82" r="82" transform="translate(939 5353.95)" fill="#ff9e17"/>
    <g id="グループ_188" data-name="グループ 188" transform="translate(2132.194 -442.642) rotate(-16)">
      <path id="パス_1285" data-name="パス 1285" d="M459.534,49.324c0,26.126-20.93,47.306-46.747,47.306s-46.749-21.18-46.749-47.306,20.93-47.306,46.749-47.306,46.747,21.18,46.747,47.306" transform="translate(-3124.734 5254.867)" fill="#ffe1b0"/>
      <path id="パス_1286" data-name="パス 1286" d="M412.787,1.518A46.477,46.477,0,0,1,431.18,5.276,47.064,47.064,0,0,1,446.2,15.522a48.3,48.3,0,0,1,10.124,52.408,47.683,47.683,0,0,1-10.124,15.2A47.063,47.063,0,0,1,431.18,93.373a46.891,46.891,0,0,1-36.786,0,47.064,47.064,0,0,1-15.019-10.246A48.3,48.3,0,0,1,369.25,30.718a47.682,47.682,0,0,1,10.124-15.2A47.065,47.065,0,0,1,394.393,5.276,46.481,46.481,0,0,1,412.787,1.518Zm0,94.613c25.5,0,46.247-21,46.247-46.806S438.288,2.518,412.787,2.518s-46.249,21-46.249,46.806S387.285,96.131,412.787,96.131Z" transform="translate(-3124.734 5254.867)" fill="#ff9e17"/>
      <path id="パス_1287" data-name="パス 1287" d="M415.9,42.185c-1.182,5.379-5.68,8.968-10.048,8.019s-6.952-6.079-5.77-11.458,5.68-8.968,10.048-8.019,6.952,6.079,5.77,11.458" transform="translate(-3101.085 5274.612)" fill="#1f1b4b"/>
      <path id="パス_1288" data-name="パス 1288" d="M391.659,37.8c-1.182,5.379-5.68,8.968-10.048,8.019s-6.952-6.079-5.77-11.458,5.68-8.968,10.048-8.019,6.952,6.079,5.77,11.458" transform="translate(-3118.067 5271.578)" fill="#1f1b4b"/>
      <path id="パス_1289" data-name="パス 1289" d="M415.313,48.087c0,2.9-2.74,5.242-6.118,5.242s-6.12-2.346-6.12-5.242,2.74-5.242,6.12-5.242,6.118,2.346,6.118,5.242" transform="translate(-3098.79 5283.096)" fill="#ffa798"/>
      <path id="パス_1290" data-name="パス 1290" d="M384.713,43.095c0,2.9-2.74,5.242-6.118,5.242s-6.12-2.346-6.12-5.242,2.74-5.242,6.12-5.242,6.118,2.346,6.118,5.242" transform="translate(-3120.225 5279.645)" fill="#ffa798"/>
      <path id="パス_1291" data-name="パス 1291" d="M390.958,43.951a.5.5,0,0,1-.385-.18,6.863,6.863,0,0,1-1.735-3.384,3.311,3.311,0,0,1,.479-2.2c1.372-2.274,5.214-2.987,5.377-3.017a.5.5,0,0,1,.177.984h0c-.035.006-3.561.664-4.7,2.549-.289.48-1.057,1.755,1.169,4.432a.5.5,0,0,1-.384.82Z" transform="translate(-3108.432 5278.127)" fill="#1f1b4b"/>
      <path id="パス_1292" data-name="パス 1292" d="M399.452,53.033a25.9,25.9,0,0,1-2.92-.166,19.1,19.1,0,0,1-10.767-4.849,17.239,17.239,0,0,1-3.377-4.034.5.5,0,0,1,.876-.482,16.621,16.621,0,0,0,3.2,3.8,18.228,18.228,0,0,0,10.181,4.571,24.472,24.472,0,0,0,11.313-1.364,18.488,18.488,0,0,0,4.206-2.143.5.5,0,1,1,.6.8,19.2,19.2,0,0,1-4.455,2.28A25.345,25.345,0,0,1,399.452,53.033Z" transform="translate(-3112.974 5283.717)" fill="#1f1b4b"/>
      <path id="パス_1293" data-name="パス 1293" d="M389.714,29.623c-.345-1.866,1.728,3.39,7.163,3.843,8.276.692,11.2-6.466,12.723-8.718.667-.984,1.26,10.225,9.708,11.531,9.555,1.477,12.422-4.924,13.854-6.749.624-.8.9,10.215,9.453,12.1,7.921,1.744,11.417-4.751,13.167-6.94C456.7,33.542,453.1,49,454.016,59.968c.752,9.027,3.955,18.875,13.4,18.875,10.725,0,14.38-7.689,15.6-10.314s-3.921,2.87-9.878-6.372c-2.976-4.618-2.9-12.143-3.341-16.725-1.309-13.677-4.25-19.107-9.117-25.277C450.92,7.775,440.975,3.925,433.455,2.127a55.279,55.279,0,0,0-49.761,12.6c-15.383,13.829-11.955,34.079-27.423,30.58-4.972-1.125-2.493,3.809-.449,6.881,2.452,3.684,8.205,11,19,7.809,12.1-3.579,16.05-24.112,14.892-30.373" transform="translate(-3133.613 5253.915)" fill="#1f1b4b"/>
      <path id="パス_1294" data-name="パス 1294" d="M420.6.142a55.878,55.878,0,0,1,12.976,1.5,45.639,45.639,0,0,1,12.91,5.1,47.38,47.38,0,0,1,7.216,5.251,59.6,59.6,0,0,1,7.379,7.852,38.1,38.1,0,0,1,5.965,9.95c1.592,4.054,2.626,9.007,3.257,15.589.08.831.142,1.756.209,2.736.3,4.494.684,10.086,3.055,13.765s4.858,5.45,7.626,5.45a10.127,10.127,0,0,0,1.077-.068c.219-.023.409-.042.573-.042a.852.852,0,0,1,.754.339,1.231,1.231,0,0,1-.119,1.176,19.632,19.632,0,0,1-4.351,6.3,16.535,16.535,0,0,1-11.706,4.308c-4.479,0-7.976-2.12-10.393-6.3-1.876-3.246-3.056-7.63-3.505-13.031-.593-7.139.683-16,1.446-21.3.135-.94.267-1.853.357-2.564a19.689,19.689,0,0,1-3.5,3.876,10.345,10.345,0,0,1-6.622,2.395,12.564,12.564,0,0,1-2.691-.306,10.634,10.634,0,0,1-6.939-5.152,22.282,22.282,0,0,1-2.372-6.094c-.033-.126-.067-.257-.1-.382l-.112.165a16,16,0,0,1-3.52,3.982A11.941,11.941,0,0,1,422.028,37a18.4,18.4,0,0,1-2.8-.225c-6.589-1.018-8.613-7.732-9.477-10.6-.049-.163-.1-.334-.15-.492-.079.132-.161.272-.248.419-1.631,2.765-4.666,7.911-11.377,7.911-.374,0-.759-.016-1.145-.049a9.964,9.964,0,0,1-6.492-3.379,28.277,28.277,0,0,1-.27,5.991,45.593,45.593,0,0,1-2.363,9.413,31.422,31.422,0,0,1-4.9,8.947,16.039,16.039,0,0,1-7.841,5.539,18.624,18.624,0,0,1-5.266.807,14.866,14.866,0,0,1-9.314-3.259,23.222,23.222,0,0,1-4.978-5.56c-1.516-2.279-3.148-5.323-2.312-6.884A1.96,1.96,0,0,1,355,44.642a6.365,6.365,0,0,1,1.379.176,14.473,14.473,0,0,0,3.163.387,8.208,8.208,0,0,0,6.771-3.347c1.741-2.148,3.084-5.143,4.639-8.61a87.6,87.6,0,0,1,4.714-9.421,40.5,40.5,0,0,1,7.692-9.473A54.883,54.883,0,0,1,401.98,3.271,56.173,56.173,0,0,1,420.6.142Zm60.593,68.193a7.349,7.349,0,0,1-3.773-1.042,14.631,14.631,0,0,1-4.694-4.866c-2.511-3.9-2.9-9.631-3.212-14.239-.066-.973-.128-1.892-.207-2.709-1.259-13.153-3.909-18.546-9.011-25.015-9.938-12.6-20.142-16.222-26.952-17.851A54.878,54.878,0,0,0,420.6,1.142,53.935,53.935,0,0,0,384.029,15.1c-6.434,5.784-9.477,12.571-12.162,18.56-1.583,3.532-2.951,6.582-4.774,8.831a9.142,9.142,0,0,1-7.547,3.717,15.467,15.467,0,0,1-3.383-.412A5.383,5.383,0,0,0,355,45.642c-.808,0-.973.308-1.027.409-.45.84.417,3.085,2.263,5.858,3.75,5.634,8.153,8.373,13.459,8.373a17.627,17.627,0,0,0,4.982-.766c6.8-2.01,10.492-9.556,12.091-13.875,2.337-6.315,3.007-12.92,2.451-15.928a.916.916,0,0,1,.09-.8.534.534,0,0,1,.412-.193c.3,0,.469.191.874.651a9.472,9.472,0,0,0,6.319,3.593c.358.03.716.045,1.062.045,6.14,0,8.879-4.644,10.516-7.419.259-.44.483-.82.69-1.125a.592.592,0,0,1,.5-.281h0c.444,0,.619.463.7.686.095.249.2.586.325,1.013.878,2.914,2.706,8.977,8.672,9.9a17.4,17.4,0,0,0,2.643.213c6.142,0,8.735-3.842,10.128-5.906.23-.341.429-.636.613-.871a.574.574,0,0,1,.457-.233h0c.447,0,.6.458.673.679s.16.549.264.949c.715,2.742,2.388,9.163,8.559,10.521a11.564,11.564,0,0,0,2.477.282c5.059,0,7.832-3.82,9.488-6.1.264-.364.492-.679.7-.944a.593.593,0,0,1,.471-.248h0a.537.537,0,0,1,.406.186c.266.307.24.689-.315,4.543-.757,5.253-2.023,14.045-1.439,21.071.431,5.179,1.6,9.541,3.375,12.614,2.226,3.85,5.431,5.8,9.527,5.8,10.475,0,13.994-7.546,15.151-10.026l.036-.078-.234.023A10.971,10.971,0,0,1,481.188,68.335Z" transform="translate(-3133.613 5253.915)" fill="#ff9e17"/>
    </g>
    <g id="グループ_189" data-name="グループ 189" transform="matrix(0.966, 0.259, -0.259, 0.966, 5170.733, 1089.895)">
      <path id="パス_1295" data-name="パス 1295" d="M297.437,43.312c-1.607,3.226-5.978,4.331-9.763,2.466s-5.55-5.993-3.943-9.219,5.978-4.331,9.763-2.466,5.55,5.993,3.943,9.219" transform="translate(-3177.427 5279.218)" fill="#ffe1b0"/>
      <path id="パス_1296" data-name="パス 1296" d="M291.487,47.184a9.187,9.187,0,0,1-4.033-.958,8.7,8.7,0,0,1-4.445-4.908,6.465,6.465,0,0,1,.275-4.982,6.977,6.977,0,0,1,6.4-3.65,9.189,9.189,0,0,1,4.034.958,8.7,8.7,0,0,1,4.444,4.906,6.467,6.467,0,0,1-.274,4.984A6.977,6.977,0,0,1,291.487,47.184Zm-1.806-13.5a5.987,5.987,0,0,0-5.5,3.1A5.473,5.473,0,0,0,283.956,41,7.7,7.7,0,0,0,287.9,45.33a8.182,8.182,0,0,0,3.591.855,5.987,5.987,0,0,0,5.5-3.1,5.474,5.474,0,0,0,.222-4.219,7.691,7.691,0,0,0-3.939-4.329A8.184,8.184,0,0,0,289.681,33.686Z" transform="translate(-3177.427 5279.218)" fill="#ff9e17"/>
      <path id="パス_1297" data-name="パス 1297" d="M343.878,34.662c1.955,3.031,6.421,3.649,9.977,1.38s4.85-6.564,2.9-9.6-6.421-3.649-9.977-1.38-4.85,6.564-2.9,9.6" transform="translate(-3130.454 5271.86)" fill="#ffe1b0"/>
      <path id="パス_1298" data-name="パス 1298" d="M349.3,37.909h0a7.528,7.528,0,0,1-3.326-.751,6.316,6.316,0,0,1-2.512-2.225,6.47,6.47,0,0,1-.825-4.927,8.685,8.685,0,0,1,3.872-5.36,8.982,8.982,0,0,1,4.828-1.446,7.527,7.527,0,0,1,3.326.751,6.316,6.316,0,0,1,2.512,2.225A6.471,6.471,0,0,1,358,31.1a8.685,8.685,0,0,1-3.872,5.36A8.981,8.981,0,0,1,349.3,37.909ZM351.332,24.2a7.984,7.984,0,0,0-4.29,1.289,7.68,7.68,0,0,0-3.433,4.731,5.478,5.478,0,0,0,.688,4.172,5.767,5.767,0,0,0,5,2.519h0a7.983,7.983,0,0,0,4.289-1.289,7.679,7.679,0,0,0,3.433-4.731,5.478,5.478,0,0,0-.688-4.172A5.766,5.766,0,0,0,351.332,24.2Z" transform="translate(-3130.454 5271.86)" fill="#ff9e17"/>
      <path id="パス_1299" data-name="パス 1299" d="M287.309,51.523c0,28.1,23.294,50.881,52.027,50.881s52.029-22.781,52.029-50.881S368.071.642,339.336.642s-52.027,22.781-52.027,50.881" transform="translate(-3174.152 5253.978)" fill="#ffe1b0"/>
      <path id="パス_1300" data-name="パス 1300" d="M339.336.142a53.209,53.209,0,0,1,20.443,4.037,52.434,52.434,0,0,1,16.7,11.009,51.162,51.162,0,0,1,11.259,16.332,50.511,50.511,0,0,1,0,40.007,51.162,51.162,0,0,1-11.259,16.332,52.434,52.434,0,0,1-16.7,11.009,53.783,53.783,0,0,1-40.885,0,52.433,52.433,0,0,1-16.7-11.009,51.164,51.164,0,0,1-11.259-16.332,50.511,50.511,0,0,1,0-40.007A51.164,51.164,0,0,1,302.2,15.187a52.433,52.433,0,0,1,16.7-11.009A53.2,53.2,0,0,1,339.336.142Zm0,101.762c28.413,0,51.529-22.6,51.529-50.381S367.749,1.142,339.336,1.142s-51.527,22.6-51.527,50.381S310.924,101.9,339.336,101.9Z" transform="translate(-3174.152 5253.978)" fill="#ff9e17"/>
      <path id="パス_1301" data-name="パス 1301" d="M300.185,41.625c1.241,5.646,5.962,9.414,10.548,8.418s7.3-6.381,6.057-12.028S310.828,28.6,306.242,29.6s-7.3,6.381-6.057,12.028" transform="translate(-3164.279 5276.312)" fill="#1f1b4b"/>
      <path id="パス_1302" data-name="パス 1302" d="M326.939,36.913c1.241,5.646,5.962,9.414,10.548,8.418s7.3-6.381,6.057-12.028S337.582,23.89,333,24.886s-7.3,6.381-6.057,12.028" transform="translate(-3143.274 5272.657)" fill="#1f1b4b"/>
      <path id="パス_1303" data-name="パス 1303" d="M300.407,48.9c0,3.04,2.876,5.5,6.423,5.5s6.425-2.463,6.425-5.5-2.876-5.5-6.425-5.5-6.423,2.463-6.423,5.5" transform="translate(-3163.869 5287.135)" fill="#ffa798"/>
      <path id="パス_1304" data-name="パス 1304" d="M332.077,42.795c0,3.04,2.876,5.5,6.423,5.5s6.425-2.463,6.425-5.5-2.876-5.5-6.425-5.5-6.423,2.465-6.423,5.5" transform="translate(-3139.004 5282.403)" fill="#ffa798"/>
      <path id="パス_1305" data-name="パス 1305" d="M321.377,43.35a.5.5,0,0,1-.384-.82,6.473,6.473,0,0,0,1.614-3.044,2.218,2.218,0,0,0-.37-1.614c-1.482-2.172-4.405-1.9-4.435-1.9a.5.5,0,1,1-.1-.995c.144-.015,3.548-.328,5.362,2.33,1.069,1.566.631,3.538-1.3,5.861A.5.5,0,0,1,321.377,43.35Z" transform="translate(-3150.251 5280.983)" fill="#1f1b4b"/>
      <path id="パス_1306" data-name="パス 1306" d="M323.054,52.64a26.578,26.578,0,0,1-9.289-1.665,20.133,20.133,0,0,1-4.671-2.39.5.5,0,0,1,.6-.8,19.607,19.607,0,0,0,4.459,2.267A25.722,25.722,0,0,0,326,51.473a19.159,19.159,0,0,0,10.732-4.832,17.319,17.319,0,0,0,3.333-3.967.5.5,0,0,1,.876.482,18.068,18.068,0,0,1-3.54,4.228,20.03,20.03,0,0,1-11.289,5.083A27.177,27.177,0,0,1,323.054,52.64Z" transform="translate(-3156.813 5286.763)" fill="#1f1b4b"/>
      <path id="パス_1307" data-name="パス 1307" d="M288.357,61.507a50.224,50.224,0,0,1-1.184-9.915C287.173,23.237,310.845.25,340.048.25,366.307.25,386.7,19.4,390.822,43.768l-.751-.357c-10.161-4.483-13.544-20.78-14.056-19.318-.982,2.8-4.425,9.455-11.11,10.043-9.238.811-13.717-11.021-14.209-9.553-.778,2.326-.85,10.769-10.975,12.307-10.739,1.63-13.574-9.4-13.76-8.157-.666,4.489-3.236,11.621-9.659,13.141-5.991,1.417-10.207-.6-13.049-5.556-.816-1.424-.86-1.222-1.557,1.223-.669,2.354-4.8,20.448-12.828,23.789Z" transform="translate(-3174.259 5253.674)" fill="#1f1b4b"/>
      <path id="パス_1308" data-name="パス 1308" d="M288.357,62.007a.5.5,0,0,1-.49-.4,50.955,50.955,0,0,1-1.193-10.014,50.245,50.245,0,0,1,4.2-20.185,51.612,51.612,0,0,1,11.441-16.479A53.31,53.31,0,0,1,319.276,3.822,54.4,54.4,0,0,1,340.048-.25a51.716,51.716,0,0,1,18.61,3.407,50.791,50.791,0,0,1,15.407,9.34,52.52,52.52,0,0,1,11.212,13.949,53.921,53.921,0,0,1,6.037,17.238.5.5,0,0,1-.707.535l-.745-.354c-3.3-1.459-6.288-4.305-8.87-8.458A55.379,55.379,0,0,1,376.63,26.3c-.164-.418-.331-.843-.475-1.187a19.56,19.56,0,0,1-3.181,5.162,13.839,13.839,0,0,1-3.4,2.871,10.978,10.978,0,0,1-4.628,1.49c-.316.028-.635.042-.949.042-6.359,0-10.384-5.7-12.319-8.442-.226-.32-.468-.664-.665-.921-.052.226-.106.482-.163.757a16.841,16.841,0,0,1-2.419,6.382c-1.862,2.686-4.769,4.345-8.638,4.933a14.659,14.659,0,0,1-2.189.17h0a11.456,11.456,0,0,1-8.077-3.2,17.467,17.467,0,0,1-3.277-4.381,21.446,21.446,0,0,1-2.532,6.7,13.7,13.7,0,0,1-2.973,3.521,10.584,10.584,0,0,1-4.328,2.164,15.955,15.955,0,0,1-3.65.456,10.469,10.469,0,0,1-5.745-1.609,13.131,13.131,0,0,1-4.2-4.641c-.041-.071-.122-.213-.206-.35-.116.339-.262.852-.414,1.384l-.022.077c-.051.18-.126.465-.22.825a84.638,84.638,0,0,1-3.974,12c-2.655,6.132-5.657,9.93-8.922,11.289l-.028.011-.511.178A.5.5,0,0,1,288.357,62.007ZM340.048.75c-28.88,0-52.375,22.808-52.375,50.843a48.309,48.309,0,0,0,1.061,9.251c4.731-2.018,8.854-9.619,12.254-22.594.1-.366.172-.655.226-.845l.022-.077c.2-.713.35-1.228.483-1.581.1-.265.308-.817.825-.817.489,0,.777.5,1.142,1.14,2.218,3.867,5.188,5.747,9.08,5.747a14.957,14.957,0,0,0,3.42-.43c7.291-1.725,9.009-10.905,9.28-12.728a.557.557,0,0,1,.548-.525c.375,0,.524.273.921,1,1.1,2.028,4.035,7.417,10.67,7.417h0a13.658,13.658,0,0,0,2.039-.159c8.291-1.259,9.551-7.29,10.228-10.531a14.035,14.035,0,0,1,.347-1.44.635.635,0,0,1,.6-.468c.475,0,.8.463,1.675,1.7,1.837,2.6,5.66,8.019,11.5,8.019.284,0,.574-.013.861-.038,7.3-.641,10.357-8.784,10.682-9.71a.581.581,0,0,1,.553-.427c.438,0,.645.459.828.863.17.377.376.9.638,1.567,1.615,4.111,5.387,13.709,12.6,16.972C385.562,18.419,364.638.75,340.048.75Z" transform="translate(-3174.259 5253.674)" fill="#ff9e17"/>
    </g>
  </g>
</svg>
