<svg id="グループ_183" data-name="グループ 183" xmlns="http://www.w3.org/2000/svg" xmlns:xlink="http://www.w3.org/1999/xlink" width="64" height="84.897" viewBox="0 0 64 84.897">
  <defs>
    <clipPath id="clip-path">
      <rect id="長方形_178" data-name="長方形 178" width="64" height="84.897" fill="none"/>
    </clipPath>
  </defs>
  <g id="グループ_182" data-name="グループ 182" clip-path="url(#clip-path)">
    <path id="長方形_177" data-name="長方形 177" d="M2.835,0H44.753a2.834,2.834,0,0,1,2.834,2.834V27.088a2.835,2.835,0,0,1-2.835,2.835H2.835A2.835,2.835,0,0,1,0,27.088V2.835A2.835,2.835,0,0,1,2.835,0Z" transform="translate(7.507 43.552)" fill="#de041d"/>
    <path id="パス_1256" data-name="パス 1256" d="M24.981,89.138l1.869,3,3.432.852L28.007,95.7l.25,3.527-3.276-1.327-3.274,1.327.25-3.527L19.682,92.99l3.431-.852Z" transform="translate(-8.192 -37.1)" fill="#fff"/>
    <path id="パス_1257" data-name="パス 1257" d="M49.776,89.138l1.872,3,3.437.852L52.807,95.7l.252,3.527-3.283-1.327L46.5,99.222l.25-3.527L44.474,92.99l3.432-.852Z" transform="translate(-18.51 -37.1)" fill="#fff"/>
    <path id="パス_1258" data-name="パス 1258" d="M74.586,89.138l1.869,3,3.432.852L77.612,95.7l.25,3.527-3.276-1.327-3.277,1.327.25-3.527L69.284,92.99l3.432-.852Z" transform="translate(-28.836 -37.1)" fill="#fff"/>
    <path id="パス_1259" data-name="パス 1259" d="M61.12,126.351a7.862,7.862,0,1,0,7.861-7.862,7.862,7.862,0,0,0-7.861,7.862" transform="translate(-25.439 -49.316)" fill="#5dc2f2"/>
    <path id="パス_1260" data-name="パス 1260" d="M70.829,133.469a5.27,5.27,0,1,0-5.27-5.27,5.276,5.276,0,0,0,5.27,5.27" transform="translate(-27.286 -51.164)" fill="#0092e5"/>
    <path id="パス_1261" data-name="パス 1261" d="M19.476,123.569a9.008,9.008,0,1,0,9.009-9.008,9.008,9.008,0,0,0-9.009,9.008" transform="translate(-8.106 -47.681)" fill="#5dc2f2"/>
    <path id="パス_1262" data-name="パス 1262" d="M30.6,131.726a6.039,6.039,0,1,0-6.039-6.04,6.046,6.046,0,0,0,6.039,6.04" transform="translate(-10.223 -49.798)" fill="#0092e5"/>
    <path id="パス_1263" data-name="パス 1263" d="M57.24,131.474a1.168,1.168,0,0,0,.057-2.334l-23.165-1.146a1.167,1.167,0,0,0-.115,2.332l23.165,1.147h.059" transform="translate(-13.696 -53.272)" fill="#fca518"/>
    <path id="パス_1264" data-name="パス 1264" d="M64.934,60.854A32.772,32.772,0,0,1,67.09,68.7c.429,5.955,5.185,5.837,5.87,1.737,1.325-7.936-5.533-16.595-5.676-16.461l-1.267,1.3s-4.417-.807-4.418-.8c.2-.266,2.621,4.821,3.336,6.377" transform="translate(-25.638 -22.466)" fill="#a6a7a7"/>
    <path id="パス_1265" data-name="パス 1265" d="M35.809,60.854A32.772,32.772,0,0,0,33.653,68.7c-.429,5.955-5.185,5.837-5.87,1.737-1.325-7.936,5.533-16.595,5.676-16.461l1.267,1.3s5.648-2.934,2.948,2.965c-.2-.266-1.15,1.053-1.865,2.609" transform="translate(-11.493 -22.466)" fill="#a6a7a7"/>
    <path id="パス_1266" data-name="パス 1266" d="M60.382,20c0,9.709-8.682,14.729-19.4,14.729S21.592,29.713,21.592,20,29.72.1,40.983,0c11.459-.106,19.4,10.293,19.4,20" transform="translate(-8.987 0)" fill="#a6a7a7"/>
    <path id="パス_1267" data-name="パス 1267" d="M96.2,13.464a4.292,4.292,0,0,0-.283-.838c-.738-2.46-3.352-4.6-6.119-5.738-5.141-2.1-12.691-.15-12.177,5.9,0,.025,1.869,9.269,1.869,9.269l2.9,1.838a3.714,3.714,0,0,0,3.3.91A3.764,3.764,0,0,0,88.5,21.987a3.637,3.637,0,0,0,1.959.115,3.838,3.838,0,0,0,2.929-3.95,3.887,3.887,0,0,0,2.8-4.688" transform="translate(-32.294 -2.527)" fill="#a6a7a7"/>
    <path id="パス_1268" data-name="パス 1268" d="M.1,13.464a4.217,4.217,0,0,1,.284-.838c.737-2.46,3.35-4.6,6.12-5.738,5.141-2.1,12.691-.15,12.177,5.9,0,.025-1.869,9.269-1.869,9.269l-2.9,1.838a3.713,3.713,0,0,1-3.3.91,3.762,3.762,0,0,1-2.815-2.816,3.639,3.639,0,0,1-1.959.115A3.838,3.838,0,0,1,2.9,18.152,3.886,3.886,0,0,1,.1,13.464" transform="translate(0 -2.527)" fill="#a6a7a7"/>
    <path id="パス_1269" data-name="パス 1269" d="M38.771,32.555a1.708,1.708,0,1,1-1.708-1.708,1.707,1.707,0,0,1,1.708,1.708" transform="translate(-14.715 -12.839)" fill="#1a1311"/>
    <path id="パス_1270" data-name="パス 1270" d="M71.838,32.555a1.708,1.708,0,1,1-1.708-1.708,1.706,1.706,0,0,1,1.708,1.708" transform="translate(-28.478 -12.839)" fill="#1a1311"/>
    <path id="パス_1271" data-name="パス 1271" d="M48.71,44.944a2.68,2.68,0,0,1-2.166-1.04.477.477,0,1,1,.759-.577,1.889,1.889,0,0,0,2.116.548c.86-.284,1.391-1.256,1.418-2.6a.477.477,0,1,1,.954.019c-.035,1.767-.811,3.071-2.074,3.487a3.246,3.246,0,0,1-1.006.164" transform="translate(-19.331 -16.984)" fill="#4a2300"/>
    <path id="パス_1272" data-name="パス 1272" d="M57.1,44.944a3.246,3.246,0,0,1-1.008-.164c-1.266-.416-2.042-1.72-2.079-3.487a.478.478,0,0,1,.468-.487.47.47,0,0,1,.487.468c.027,1.344.559,2.317,1.422,2.6a1.892,1.892,0,0,0,2.119-.548.477.477,0,1,1,.76.577,2.682,2.682,0,0,1-2.168,1.04" transform="translate(-22.482 -16.983)" fill="#4a2300"/>
    <path id="パス_1273" data-name="パス 1273" d="M76.542,39.995c0-.774-.939-1.4-2.1-1.4s-2.1.626-2.1,1.4.939,1.4,2.1,1.4,2.1-.626,2.1-1.4" transform="translate(-30.111 -16.064)" fill="#e86b66"/>
    <path id="パス_1274" data-name="パス 1274" d="M34.294,39.995c0-.774-.939-1.4-2.1-1.4s-2.1.626-2.1,1.4.939,1.4,2.1,1.4,2.1-.626,2.1-1.4" transform="translate(-12.527 -16.064)" fill="#e86b66"/>
    <path id="パス_1275" data-name="パス 1275" d="M54.6,30.794a2.822,2.822,0,0,0-2.035-1.154v0H52.5v0a2.808,2.808,0,0,0-2.029,1.154c-1.084,1.5-1.959,4.858.224,5.87a5.619,5.619,0,0,0,3.688,0c2.186-1.012,1.311-4.375.225-5.87" transform="translate(-20.537 -12.335)" fill="#4a2300"/>
  </g>
</svg>
