<svg xmlns="http://www.w3.org/2000/svg" xmlns:xlink="http://www.w3.org/1999/xlink" width="140" height="128" viewBox="0 0 140 128">
  <defs>
    <clipPath id="clip-path">
      <rect id="長方形_133" data-name="長方形 133" width="140" height="128" transform="translate(461.621 3)" fill="#fff" stroke="#707070" stroke-width="1"/>
    </clipPath>
  </defs>
  <g id="マスクグループ_21" data-name="マスクグループ 21" transform="translate(-461.621 -3)" clip-path="url(#clip-path)">
    <g id="グループ_155" data-name="グループ 155" transform="translate(1.699 6.001)">
      <g id="グループ_154" data-name="グループ 154" transform="translate(461.594 -3.001)">
        <path id="パス_298" data-name="パス 298" d="M680.71,79.49a42.088,42.088,0,0,0,8.22-6.242c4.981-5.619,9.84-2.033,7.43,2.546-4.665,8.865-18.393,12.491-18.44,12.253,0,0-9.258-7.116-1.14-7.32,0,.408,2-.208,3.93-1.237" transform="translate(-620.629 -16.699)" fill="#ffb727"/>
        <path id="パス_299" data-name="パス 299" d="M640.558,74.55s-12.8,20.913-12.8,29.845,46.925,3.136,45.932-4.868S661.81,74.306,661.81,74.306Z" transform="translate(-611.361 -17.632)" fill="#ffb727"/>
        <path id="パス_300" data-name="パス 300" d="M642.235.09l5.254,4.086L652.791,0l3.889,5.2,6.292-2.8,2.261,5.95L672.088,7.1l.473,6.3,6.951.4-1.342,6.221,6.573,2.023-3.067,5.718,5.746,3.5-4.582,4.825,4.528,4.747-5.786,3.6,3,5.665-6.6,2.135,1.273,6.2-6.957.522-.548,6.311-6.841-1.127-2.327,5.989-6.262-2.7L652.379,72.7l-5.255-4.086-5.3,4.176L637.934,67.6l-6.293,2.806-2.26-5.952L622.525,65.7l-.473-6.3-6.951-.4,1.342-6.221-6.573-2.023,3.067-5.718-5.747-3.5,4.583-4.825-4.528-4.746,5.787-3.6-3-5.666,6.6-2.136-1.271-6.2,6.956-.523.547-6.309L629.7,8.645l2.327-5.99,6.263,2.7Z" transform="translate(-607.19 0.001)" fill="#844d26"/>
        <path id="パス_301" data-name="パス 301" d="M679.427,43.871c1.711,12.255-9.975,20.2-25.482,22.18s-28.964-2.744-30.676-15,8.261-26.624,24.553-28.842c16.565-2.254,29.893,9.4,31.606,21.661" transform="translate(-610.412 -5.203)" fill="#ffb727"/>
        <path id="パス_302" data-name="パス 302" d="M686.139,23.092a7.925,7.925,0,0,0-8.967-6.557,7.707,7.707,0,0,0-6.853,8.58,7.926,7.926,0,0,0,8.967,6.557,7.706,7.706,0,0,0,6.853-8.58" transform="translate(-619.981 -3.907)" fill="#ffb727"/>
        <path id="パス_303" data-name="パス 303" d="M635.868,29.81a7.922,7.922,0,0,0-8.967-6.556,7.7,7.7,0,0,0-6.852,8.579,7.924,7.924,0,0,0,8.966,6.557,7.7,7.7,0,0,0,6.853-8.58" transform="translate(-609.784 -5.501)" fill="#ffb727"/>
        <path id="パス_304" data-name="パス 304" d="M643.027,55.231a2.407,2.407,0,0,1-2.142,2.68,2.475,2.475,0,0,1-2.8-2.049,2.408,2.408,0,0,1,2.142-2.682,2.476,2.476,0,0,1,2.8,2.05" transform="translate(-613.452 -12.614)" fill="#1a1311"/>
        <path id="パス_305" data-name="パス 305" d="M677.355,50.643a2.409,2.409,0,0,1-2.144,2.68,2.473,2.473,0,0,1-2.8-2.048,2.407,2.407,0,0,1,2.141-2.682,2.479,2.479,0,0,1,2.8,2.049" transform="translate(-620.415 -11.526)" fill="#1a1311"/>
        <path id="パス_306" data-name="パス 306" d="M654.807,68.479a4.026,4.026,0,0,1-3.338-1.04.647.647,0,0,1,0-.943.72.72,0,0,1,.985,0,2.852,2.852,0,0,0,3.167.366c1.193-.551,1.773-2,1.551-3.865a.675.675,0,0,1,.6-.735l.013,0a.691.691,0,0,1,.77.587c.29,2.456-.581,4.406-2.329,5.216a4.894,4.894,0,0,1-1.423.413" transform="translate(-616.13 -14.773)" fill="#4a2300"/>
        <path id="パス_307" data-name="パス 307" d="M663.9,67.509a4.945,4.945,0,0,1-1.487-.041c-1.91-.342-3.285-2.005-3.679-4.447a.67.67,0,0,1,.583-.76l.014,0a.691.691,0,0,1,.781.558c.3,1.858,1.256,3.107,2.558,3.341a2.814,2.814,0,0,0,2.956-1.15.713.713,0,0,1,.949-.249.652.652,0,0,1,.264.908,3.933,3.933,0,0,1-2.938,1.842" transform="translate(-617.643 -14.772)" fill="#4a2300"/>
        <path id="パス_308" data-name="パス 308" d="M653.977,59.511c.258,1.844,2.275,3.108,4.507,2.823s3.833-2.012,3.576-3.856l-.024-.162a13.256,13.256,0,0,0-4.017.192l-.136.018a13.165,13.165,0,0,0-3.928.824Z" transform="translate(-616.676 -13.817)" fill="#4a2300"/>
        <path id="パス_309" data-name="パス 309" d="M670.2,59.939a.549.549,0,0,0-.619-.452.532.532,0,0,0-.474.591.546.546,0,0,0,.619.452.532.532,0,0,0,.474-.59" transform="translate(-619.748 -14.114)" fill="#844d26"/>
        <path id="パス_310" data-name="パス 310" d="M668.964,62.609a.545.545,0,0,0-.616-.453.531.531,0,0,0-.473.592.544.544,0,0,0,.617.451.53.53,0,0,0,.472-.59" transform="translate(-619.498 -14.748)" fill="#844d26"/>
        <path id="パス_311" data-name="パス 311" d="M671.971,62.206a.547.547,0,0,0-.619-.452.529.529,0,0,0-.471.591.544.544,0,0,0,.617.451.532.532,0,0,0,.473-.59" transform="translate(-620.108 -14.653)" fill="#844d26"/>
        <path id="パス_312" data-name="パス 312" d="M649.455,62.71a.547.547,0,0,0-.618-.452.532.532,0,0,0-.473.591.546.546,0,0,0,.618.451.53.53,0,0,0,.473-.59" transform="translate(-615.541 -14.772)" fill="#844d26"/>
        <path id="パス_313" data-name="パス 313" d="M648.225,65.38a.546.546,0,0,0-.617-.452.531.531,0,0,0-.473.592.546.546,0,0,0,.618.452.532.532,0,0,0,.472-.591" transform="translate(-615.291 -15.406)" fill="#844d26"/>
        <path id="パス_314" data-name="パス 314" d="M651.232,64.978a.545.545,0,0,0-.617-.452.531.531,0,0,0-.472.592.545.545,0,0,0,.618.451.529.529,0,0,0,.471-.59" transform="translate(-615.902 -15.31)" fill="#844d26"/>
        <path id="長方形_105" data-name="長方形 105" d="M2.834,0h59.3a2.835,2.835,0,0,1,2.835,2.835V36.258a2.835,2.835,0,0,1-2.835,2.835H2.835A2.835,2.835,0,0,1,0,36.258V2.834A2.834,2.834,0,0,1,2.834,0Z" transform="translate(6.117 73.985)" fill="#ef7500"/>
        <path id="パス_315" data-name="パス 315" d="M663.677,151.161a10.745,10.745,0,1,0,10.735-10.271,10.51,10.51,0,0,0-10.735,10.271" transform="translate(-618.648 -33.433)" fill="#de041d"/>
        <path id="パス_316" data-name="パス 316" d="M675.312,159.1a6.892,6.892,0,1,0-7.2-6.886,7.055,7.055,0,0,0,7.2,6.886" transform="translate(-619.548 -34.486)" fill="#fff258"/>
        <path id="パス_317" data-name="パス 317" d="M622.047,148.731a12.312,12.312,0,1,0,12.3-11.768,12.043,12.043,0,0,0-12.3,11.768" transform="translate(-610.203 -32.501)" fill="#de041d"/>
        <path id="パス_318" data-name="パス 318" d="M635.38,157.829a7.9,7.9,0,1,0-8.246-7.89,8.083,8.083,0,0,0,8.246,7.89" transform="translate(-611.236 -33.708)" fill="#fff258"/>
        <path id="パス_319" data-name="パス 319" d="M668.693,154.942a1.525,1.525,0,1,0,.077-3.049l-31.62-1.5a1.58,1.58,0,0,0-1.671,1.448,1.552,1.552,0,0,0,1.513,1.6l31.62,1.5.081,0" transform="translate(-612.928 -35.688)" fill="#008129"/>
        <path id="パス_320" data-name="パス 320" d="M628.952,111.539l2.553,3.92,4.686,1.113-3.107,3.535.342,4.607-4.474-1.734-4.471,1.734.341-4.607-3.106-3.535,4.685-1.113Z" transform="translate(-610.136 -26.468)" fill="#fff042"/>
        <path id="パス_321" data-name="パス 321" d="M653.747,111.539l2.552,3.92,4.686,1.113-3.106,3.535.342,4.607-4.474-1.734-4.474,1.734.342-4.607-3.107-3.535,4.686-1.113Z" transform="translate(-615.165 -26.468)" fill="#fff042"/>
        <path id="パス_322" data-name="パス 322" d="M678.543,111.539l2.552,3.92,4.686,1.113-3.107,3.535.342,4.607-4.474-1.734-4.474,1.734.342-4.607-3.107-3.535,4.686-1.113Z" transform="translate(-620.195 -26.468)" fill="#fff042"/>
      </g>
      <g id="グループ_153" data-name="グループ 153" transform="translate(579.418 86.824)">
        <path id="パス_323" data-name="パス 323" d="M14.684,132.956c-1.517,7.321-2.335,16.577-.645,25.255-.364.155-.729.314-1.09.474-1.774-8.863-.972-18.322.562-25.81.395.019.783.052,1.173.081" transform="translate(-2.422 -122.496)" fill="#8ab92e"/>
        <path id="パス_324" data-name="パス 324" d="M6.172,121.244a4.247,4.247,0,0,0,.368,3.54,4.649,4.649,0,0,0,.485.754,5.134,5.134,0,0,0-.926-.055,4.689,4.689,0,0,0-3.436,1.375,2.794,2.794,0,0,0,0,4,4.491,4.491,0,0,0,4.025,1.105,5.346,5.346,0,0,0,.9-.2,4.533,4.533,0,0,0-.339.821A4.09,4.09,0,0,0,8,136.708a3.082,3.082,0,0,0,1.532.882,3.332,3.332,0,0,0,2.47-.468,4.4,4.4,0,0,0,1.877-3.068,4.747,4.747,0,0,0,.072-.882,4.842,4.842,0,0,0,.713.561,4.776,4.776,0,0,0,3.625.821,3,3,0,0,0,1.433-5.281,5.853,5.853,0,0,0-1.55-1.117,4.977,4.977,0,0,0-.852-.338,5.221,5.221,0,0,0,.776-.475,4.363,4.363,0,0,0,1.936-3.046,2.954,2.954,0,0,0-.706-2.287l-.046-.049A3.3,3.3,0,0,0,17,121a5.282,5.282,0,0,0-3.965,2.1,4.619,4.619,0,0,0-.231-.854,5.232,5.232,0,0,0-1.1-1.785,3.55,3.55,0,0,0-3.819-.982,3.134,3.134,0,0,0-1.712,1.766" transform="translate(-0.369 -119.267)" fill="#ef7500"/>
        <path id="パス_325" data-name="パス 325" d="M10.67,130.835a2.756,2.756,0,1,0,2.753-2.635,2.7,2.7,0,0,0-2.753,2.635" transform="translate(-2.165 -121.387)" fill="#fff042"/>
        <path id="パス_326" data-name="パス 326" d="M.265,155.5c.552-.725,2.116-.642,2.875-.551a8.687,8.687,0,0,1,7.306,5.586,8.689,8.689,0,0,1,7.306-5.586c.76-.092,2.325-.175,2.876.551.484.638.2,2.1-.057,2.858a9.266,9.266,0,0,1-6.073,6.032,9.439,9.439,0,0,1-2.715.362c-.885.008-1.792.008-2.67,0a9.45,9.45,0,0,1-2.717-.362,9.265,9.265,0,0,1-6.074-6.032c-.261-.763-.54-2.22-.057-2.858" transform="translate(-0.001 -127.72)" fill="#8ab92e"/>
      </g>
    </g>
  </g>
</svg>
