<svg xmlns="http://www.w3.org/2000/svg" xmlns:xlink="http://www.w3.org/1999/xlink" width="140" height="128" viewBox="0 0 140 128">
  <defs>
    <clipPath id="clip-path">
      <rect id="長方形_128" data-name="長方形 128" width="140" height="128" transform="translate(439.646 0)" fill="#fff" stroke="#707070" stroke-width="1"/>
    </clipPath>
  </defs>
  <g id="マスクグループ_19" data-name="マスクグループ 19" transform="translate(-439.646 0)" clip-path="url(#clip-path)">
    <g id="グループ_151" data-name="グループ 151">
      <path id="パス_223" data-name="パス 223" d="M686.9,84.482s-9.535,16.28-9.535,23.233,34.949,2.441,34.21-3.789-8.846-19.634-8.846-19.634Z" transform="translate(-180.52 -19.464)" fill="#eb90a6"/>
      <path id="パス_224" data-name="パス 224" d="M678.221,87.991a38.926,38.926,0,0,1-9.043-3.387c-6.022-3.732-9.217.924-5.752,4.433,6.706,6.793,19.8,6.226,19.769,6l-.369-2.125s-.8-4.891-.8-4.9c.118.375-1.812.375-3.806-.02" transform="translate(-176.423 -19.18)" fill="#eb90a6"/>
      <path id="パス_225" data-name="パス 225" d="M715.974,61.088c0,10.985-10.781,16.664-24.081,16.664s-24.081-5.679-24.081-16.664,10.094-22.516,24.081-22.634c14.222-.12,24.081,11.646,24.081,22.634" transform="translate(-177.973 -7.248)" fill="#eb90a6"/>
      <path id="パス_226" data-name="パス 226" d="M721.264,14.012a5.919,5.919,0,0,0-3.2-.471c-5,.911-7.586,7.184-8.7,11.534-.849,3.313-3.662,15.21,1.478,16.935,3.035,1.018,7.655-4.266,11.275-12.393,3.792,1.857,6.846,2.293,8.221.853,4.211-4.41-3.125-14.081-9.078-16.458" transform="translate(-188.639 -0.591)" fill="#eb90a6"/>
      <path id="パス_227" data-name="パス 227" d="M670.956,22.482c-3.731-11.113-3.775-21.124-.1-22.357s9.681,6.774,13.411,17.888,3.775,21.124.1,22.358-9.681-6.775-13.412-17.889" transform="translate(-178.057 3)" fill="#eb90a6"/>
      <path id="パス_228" data-name="パス 228" d="M686,67.774a2.121,2.121,0,1,1-2.12-2.12,2.12,2.12,0,0,1,2.12,2.12" transform="translate(-181.689 -14.497)" fill="#1a1311"/>
      <path id="パス_229" data-name="パス 229" d="M717.989,67.774a2.121,2.121,0,1,1-2.121-2.12,2.12,2.12,0,0,1,2.121,2.12" transform="translate(-190.215 -14.497)" fill="#1a1311"/>
      <path id="パス_230" data-name="パス 230" d="M701.962,71.082a2.073,2.073,0,1,1-2.073-2.072,2.073,2.073,0,0,1,2.073,2.072" transform="translate(-185.969 -15.391)" fill="#4a2300"/>
      <path id="パス_231" data-name="パス 231" d="M695.188,79.074a3.329,3.329,0,0,1-2.689-1.291.593.593,0,1,1,.943-.717,2.34,2.34,0,0,0,2.626.679c1.069-.352,1.727-1.559,1.762-3.23a.6.6,0,0,1,.6-.58.594.594,0,0,1,.58.6c-.046,2.2-1.009,3.814-2.577,4.33a4,4,0,0,1-1.25.2" transform="translate(-184.52 -16.704)" fill="#4a2300"/>
      <path id="パス_232" data-name="パス 232" d="M703.686,79.074a4,4,0,0,1-1.25-.2c-1.568-.516-2.531-2.134-2.576-4.33a.592.592,0,1,1,1.185-.024c.034,1.67.692,2.878,1.762,3.23a2.341,2.341,0,0,0,2.626-.679.592.592,0,1,1,.943.717,3.329,3.329,0,0,1-2.69,1.292" transform="translate(-186.514 -16.704)" fill="#4a2300"/>
      <path id="パス_233" data-name="パス 233" d="M723.174,75.228c0-.959-1.168-1.738-2.607-1.738s-2.6.778-2.6,1.738,1.166,1.737,2.6,1.737,2.607-.777,2.607-1.737" transform="translate(-191.338 -16.585)" fill="#e97e8c"/>
      <path id="パス_234" data-name="パス 234" d="M681.43,75.228c0-.959-1.166-1.738-2.605-1.738s-2.606.778-2.606,1.738,1.166,1.737,2.606,1.737,2.605-.777,2.605-1.737" transform="translate(-180.213 -16.585)" fill="#e97e8c"/>
      <path id="長方形_97" data-name="長方形 97" d="M2.834,0H56.946A2.834,2.834,0,0,1,59.78,2.834V34.761A2.835,2.835,0,0,1,56.945,37.6H2.835A2.835,2.835,0,0,1,0,34.761V2.834A2.834,2.834,0,0,1,2.834,0Z" transform="translate(481.131 75.136)" fill="#8ab92e"/>
      <path id="パス_235" data-name="パス 235" d="M682.31,152.11a9.878,9.878,0,1,1-9.877-9.877,9.878,9.878,0,0,1,9.877,9.877" transform="translate(-176.572 -34.905)" fill="#f38200"/>
      <path id="パス_236" data-name="パス 236" d="M673.616,159.915a6.622,6.622,0,1,1,6.621-6.622,6.63,6.63,0,0,1-6.621,6.622" transform="translate(-177.755 -36.088)" fill="#fc1"/>
      <path id="パス_237" data-name="パス 237" d="M722.894,149.623A11.318,11.318,0,1,1,711.575,138.3a11.318,11.318,0,0,1,11.319,11.318" transform="translate(-186.62 -33.858)" fill="#f38200"/>
      <path id="パス_238" data-name="パス 238" d="M712.931,158.567a7.587,7.587,0,1,1,7.587-7.588,7.6,7.6,0,0,1-7.587,7.588" transform="translate(-187.975 -35.214)" fill="#fc1"/>
      <path id="パス_239" data-name="パス 239" d="M675.487,156.11a1.467,1.467,0,0,1-.071-2.932l29.095-1.441a1.467,1.467,0,1,1,.145,2.93l-29.095,1.441h-.074" transform="translate(-179.628 -37.438)" fill="#008ed7"/>
      <path id="パス_240" data-name="パス 240" d="M724.881,127.767a2.388,2.388,0,1,0,2.388-2.388,2.387,2.387,0,0,0-2.388,2.388" transform="translate(-193.182 -30.414)" fill="#fff"/>
      <path id="パス_241" data-name="パス 241" d="M718.184,120.342a2.388,2.388,0,1,0,2.388-2.388,2.387,2.387,0,0,0-2.388,2.388" transform="translate(-191.397 -28.435)" fill="#fff"/>
      <path id="パス_242" data-name="パス 242" d="M697.957,127.767a2.388,2.388,0,1,1-2.388-2.388,2.387,2.387,0,0,1,2.388,2.388" transform="translate(-184.734 -30.414)" fill="#fff"/>
      <path id="パス_243" data-name="パス 243" d="M704.655,120.342a2.388,2.388,0,1,1-2.387-2.388,2.387,2.387,0,0,1,2.387,2.388" transform="translate(-186.519 -28.435)" fill="#fff"/>
      <path id="パス_244" data-name="パス 244" d="M708.99,117.81a2.388,2.388,0,1,0,2.387-2.388,2.387,2.387,0,0,0-2.387,2.388" transform="translate(-188.947 -27.76)" fill="#fff"/>
      <path id="パス_245" data-name="パス 245" d="M686.967,120.342a2.388,2.388,0,1,0,2.388-2.388,2.388,2.388,0,0,0-2.388,2.388" transform="translate(-183.078 -28.435)" fill="#fff"/>
      <path id="パス_246" data-name="パス 246" d="M666.741,127.767a2.388,2.388,0,1,1-2.388-2.388,2.388,2.388,0,0,1,2.388,2.388" transform="translate(-176.415 -30.414)" fill="#fff"/>
      <path id="パス_247" data-name="パス 247" d="M673.437,120.342a2.388,2.388,0,1,1-2.388-2.388,2.388,2.388,0,0,1,2.388,2.388" transform="translate(-178.199 -28.435)" fill="#fff"/>
      <path id="パス_248" data-name="パス 248" d="M677.772,117.81a2.388,2.388,0,1,0,2.388-2.388,2.387,2.387,0,0,0-2.388,2.388" transform="translate(-180.627 -27.76)" fill="#fff"/>
      <path id="パス_270" data-name="パス 270" d="M14.61,138.236,13.1,160.815h5.663S17.9,148,17.217,137.831q-1.307.2-2.607.4" transform="translate(550.853 -33.732)" fill="#73390f"/>
      <path id="パス_271" data-name="パス 271" d="M24.622,139.273l-4.312-13.367-1.589-4.929L15.6,111.294c0,.011-.009.021-.012.033-1.871-5.088-4.742-4.884-6.526.647L4.718,125.43.253,139.273a3.775,3.775,0,0,0,3.813,5.236H20.809a3.776,3.776,0,0,0,3.813-5.236" transform="translate(554.343 -25.692)" fill="#49a123"/>
      <path id="パス_272" data-name="パス 272" d="M557.707,5.395a6.52,6.52,0,0,0,.52,5.225,6.916,6.916,0,0,0,.686,1.113,7.012,7.012,0,0,0-1.308-.081,6.492,6.492,0,0,0-4.852,2.03A4.49,4.49,0,0,0,551.578,17a4.458,4.458,0,0,0,1.178,2.591c.737.8,2.456,2.077,5.685,1.631a7.338,7.338,0,0,0,1.268-.3,6.912,6.912,0,0,0-.479,1.212,6.245,6.245,0,0,0,1.056,6.086,4.308,4.308,0,0,0,2.163,1.3,4.537,4.537,0,0,0,3.489-.69,6.523,6.523,0,0,0,2.65-4.529,7.234,7.234,0,0,0,.1-1.3,6.826,6.826,0,0,0,1.008.828,6.513,6.513,0,0,0,5.118,1.212,4.485,4.485,0,0,0,2.9-1.994,4.822,4.822,0,0,0-.876-5.8,8.272,8.272,0,0,0-2.19-1.649,6.841,6.841,0,0,0-1.2-.5,7.3,7.3,0,0,0,1.1-.7,6.488,6.488,0,0,0,2.732-4.5,4.49,4.49,0,0,0-1-3.375l-.065-.071A4.57,4.57,0,0,0,573,5.031a6.527,6.527,0,0,0-4.751,2.11,6.99,6.99,0,0,0-.847.989,7.112,7.112,0,0,0-.326-1.259,7.8,7.8,0,0,0-1.554-2.635,4.869,4.869,0,0,0-5.394-1.449,4.544,4.544,0,0,0-2.417,2.608" transform="translate(-110.992 -2.404)" fill="#ef7500"/>
      <path id="パス_273" data-name="パス 273" d="M565.143,20.074a3.888,3.888,0,1,0,3.888-3.889,3.888,3.888,0,0,0-3.888,3.889" transform="translate(-114.611 -6.057)" fill="#fff042"/>
    </g>
  </g>
</svg>
