<svg xmlns="http://www.w3.org/2000/svg" width="17.208" height="67.882" viewBox="0 0 17.208 67.882">
  <g id="グループ_262" data-name="グループ 262" transform="translate(1447.604 -889.75)">
    <path id="パス_1330" data-name="パス 1330" d="M8.252,3.147a2,2,0,0,1,3.5,0l6.6,11.882A2,2,0,0,1,16.6,18H3.4a2,2,0,0,1-1.748-2.971Z" transform="translate(-1429 907.75) rotate(180)" fill="#b40f0f"/>
    <path id="パス_1331" data-name="パス 1331" d="M8.252,3.147a2,2,0,0,1,3.5,0l6.6,11.882A2,2,0,0,1,16.6,18H3.4a2,2,0,0,1-1.748-2.971Z" transform="translate(-1429 933.75) rotate(180)" fill="#b40f0f"/>
    <path id="パス_1332" data-name="パス 1332" d="M8.252,3.147a2,2,0,0,1,3.5,0l6.6,11.882A2,2,0,0,1,16.6,18H3.4a2,2,0,0,1-1.748-2.971Z" transform="translate(-1429 959.75) rotate(180)" fill="#b40f0f"/>
  </g>
</svg>
