<svg xmlns="http://www.w3.org/2000/svg" xmlns:xlink="http://www.w3.org/1999/xlink" width="140" height="128" viewBox="0 0 140 128">
  <defs>
    <clipPath id="clip-path">
      <rect id="長方形_138" data-name="長方形 138" width="140" height="128" transform="translate(1052.336 5169)" fill="#fff" stroke="#707070" stroke-width="1"/>
    </clipPath>
    <clipPath id="clip-path-2">
      <path id="パス_367" data-name="パス 367" d="M653.652,30.27c-13.515.126-23.265,12.351-23.265,24S640.8,71.946,653.652,71.946s23.266-6.023,23.266-17.672c0-11.595-9.428-24.005-23.058-24h-.208" transform="translate(-630.387 -30.269)" fill="none"/>
    </clipPath>
  </defs>
  <g id="マスクグループ_23" data-name="マスクグループ 23" transform="translate(-1052.336 -5169)" clip-path="url(#clip-path)">
    <g id="グループ_157" data-name="グループ 157" transform="translate(615.587 5166.908)">
      <path id="パス_347" data-name="パス 347" d="M23.175,90.387c.011-1.357-1.094-1.328-1.182-.126l-2.984,56.368h7.134s-2.968-56.044-2.967-56.241" transform="translate(535.097 -16.676)" fill="#73390f"/>
      <path id="パス_348" data-name="パス 348" d="M37.874,121.4,31.7,102.266l-2.471-7.657L24.469,79.844l-1.633-5.06c-2.067-6.408-5.449-6.408-7.517,0l-2.113,6.552L.282,121.4c-1.035,3.2.875,5.826,4.241,5.826h29.11c3.366,0,5.275-2.622,4.241-5.826" transform="translate(538.595 -13.109)" fill="#80b639"/>
      <path id="パス_349" data-name="パス 349" d="M732.767,128.655l-1.686,25.119h6.3s-.956-14.254-1.714-25.57q-1.454.22-2.9.45" transform="translate(-192.486 -23.822)" fill="#73390f"/>
      <path id="パス_350" data-name="パス 350" d="M745.377,133.2l-4.8-14.871-1.768-5.484-3.475-10.771c0,.012-.01.024-.013.037-2.082-5.661-5.275-5.434-7.26.72l-4.83,14.97-4.967,15.4c-1.034,3.2.875,5.825,4.242,5.825h18.627c3.366,0,5.276-2.623,4.242-5.825" transform="translate(-190.077 -18.272)" fill="#49a123"/>
      <path id="パス_351" data-name="パス 351" d="M666.768,78.435c-.732-.444,3.1-12.461,3.409-13.518,2.527-8.615,8.417-20.353,17.665-22.794,7.7-2.033,16.208.372,19.329,8.961a14.813,14.813,0,0,1,.277,8.983c-1.707,5.187-7.013,8.065-10.6,7.283a68.4,68.4,0,0,1-1.15,15.428c-.824,4.805-.952,6.037-2.826,10.257Z" transform="translate(-196.801 -7.859)" fill="#ae631e"/>
      <path id="パス_352" data-name="パス 352" d="M696.587,68.714a.743.743,0,0,1-.45-.152c-3.418-2.6-6.69-7.278-4.658-11.909a6.431,6.431,0,0,1,6.885-3.781A4.764,4.764,0,0,1,702.55,58.3a3.916,3.916,0,0,1-4.859,3.1.744.744,0,0,1,.243-1.468c2.023.336,2.953-.755,3.148-1.887a3.311,3.311,0,0,0-2.98-3.71,4.979,4.979,0,0,0-5.26,2.913c-1.683,3.84,1.208,7.855,4.2,10.127a.744.744,0,0,1-.451,1.337" transform="translate(-201.25 -9.944)" fill="#634131"/>
      <path id="パス_353" data-name="パス 353" d="M646.931,77.524s-9.839,16.8-9.839,23.973,36.061,2.518,35.3-3.91-9.126-20.258-9.126-20.258Z" transform="translate(-191.358 -14.461)" fill="#dc9646"/>
      <path id="パス_354" data-name="パス 354" d="M643.28,78.646a35.9,35.9,0,0,1-8.324-3.2c-5.532-3.495-8.521.779-5.348,4.047,6.138,6.328,18.234,5.91,18.208,5.7l-.325-1.965s-.694-4.524-.7-4.529c.105.348-1.676.331-3.515-.048" transform="translate(-189.743 -13.875)" fill="#dc9646"/>
      <path id="パス_355" data-name="パス 355" d="M670.2,78.93a35.9,35.9,0,0,0,8.324-3.2c5.533-3.495,8.521.779,5.348,4.047-6.138,6.328-18.234,5.91-18.209,5.7l.325-1.965s.694-4.524.7-4.528c-.1.347,1.676.33,3.515-.049" transform="translate(-196.615 -13.927)" fill="#dc9646"/>
      <path id="パス_356" data-name="パス 356" d="M676.919,54.274c0,11.649-10.416,17.672-23.267,17.672s-23.264-6.022-23.264-17.672,9.75-23.878,23.264-24c13.741-.127,23.267,12.35,23.267,24" transform="translate(-190.124 -5.803)" fill="#dc9646"/>
      <path id="パス_357" data-name="パス 357" d="M684.322,35.348c0-3.974-2.935-7.195-6.555-7.195s-6.553,3.221-6.553,7.195,2.934,7.193,6.553,7.193,6.555-3.22,6.555-7.193" transform="translate(-197.636 -5.414)" fill="#dc9646"/>
      <path id="パス_358" data-name="パス 358" d="M643.628,35.348c0-3.974-2.934-7.195-6.553-7.195s-6.554,3.221-6.554,7.195,2.934,7.193,6.554,7.193,6.553-3.22,6.553-7.193" transform="translate(-190.149 -5.414)" fill="#dc9646"/>
      <path id="パス_359" data-name="パス 359" d="M646.038,58.734a2.249,2.249,0,1,1-2.25-2.247,2.248,2.248,0,0,1,2.25,2.247" transform="translate(-192.177 -10.627)" fill="#1a1311"/>
      <path id="パス_360" data-name="パス 360" d="M675.241,58.734a2.248,2.248,0,1,1-2.249-2.247,2.248,2.248,0,0,1,2.249,2.247" transform="translate(-197.55 -10.627)" fill="#1a1311"/>
      <path id="パス_361" data-name="パス 361" d="M661,61.479a2.713,2.713,0,1,1-2.714-2.713A2.713,2.713,0,0,1,661,61.479" transform="translate(-194.758 -11.046)" fill="#4a2300"/>
      <path id="パス_362" data-name="パス 362" d="M654,69.541a3.528,3.528,0,0,1-2.853-1.369.628.628,0,1,1,1-.76,2.487,2.487,0,0,0,2.786.72c1.133-.373,1.832-1.653,1.869-3.425a.611.611,0,0,1,.641-.615.627.627,0,0,1,.614.641c-.048,2.329-1.069,4.045-2.731,4.593a4.248,4.248,0,0,1-1.325.216" transform="translate(-193.92 -12.026)" fill="#4a2300"/>
      <path id="パス_363" data-name="パス 363" d="M662.21,69.541a4.244,4.244,0,0,1-1.325-.216c-1.662-.548-2.684-2.264-2.733-4.593a.628.628,0,1,1,1.256-.025c.038,1.772.737,3.052,1.87,3.425a2.483,2.483,0,0,0,2.784-.72.628.628,0,1,1,1,.76,3.528,3.528,0,0,1-2.852,1.369" transform="translate(-195.233 -12.026)" fill="#4a2300"/>
      <path id="パス_364" data-name="パス 364" d="M680.288,66.073c0-1.018-1.236-1.843-2.763-1.843s-2.764.825-2.764,1.843,1.238,1.843,2.764,1.843,2.763-.825,2.763-1.843" transform="translate(-198.289 -12.052)" fill="#f2a59a"/>
      <path id="パス_365" data-name="パス 365" d="M641.79,66.073c0-1.018-1.239-1.843-2.765-1.843s-2.762.825-2.762,1.843,1.235,1.843,2.762,1.843,2.765-.825,2.765-1.843" transform="translate(-191.205 -12.052)" fill="#f2a59a"/>
      <path id="長方形_111" data-name="長方形 111" d="M2.834,0H63.67A2.835,2.835,0,0,1,66.5,2.835V38.99a2.835,2.835,0,0,1-2.835,2.835H2.835A2.835,2.835,0,0,1,0,38.99V2.834A2.834,2.834,0,0,1,2.834,0Z" transform="translate(436.749 72.162)" fill="#5dc2f2"/>
      <path id="パス_368" data-name="パス 368" d="M654.957,143.6a10.989,10.989,0,1,1-10.988-10.988A10.989,10.989,0,0,1,654.957,143.6" transform="translate(-190.601 -24.632)" fill="#fbe619"/>
      <path id="パス_369" data-name="パス 369" d="M644.786,151.779a7.367,7.367,0,1,1,7.366-7.367,7.375,7.375,0,0,1-7.366,7.367" transform="translate(-191.418 -25.449)" fill="#7cb21b"/>
      <path id="パス_370" data-name="パス 370" d="M695.865,141.27a12.591,12.591,0,1,1-12.593-12.591,12.592,12.592,0,0,1,12.593,12.591" transform="translate(-197.538 -23.91)" fill="#fbe619"/>
      <path id="パス_371" data-name="パス 371" d="M684.209,150.648a8.441,8.441,0,1,1,8.441-8.442,8.451,8.451,0,0,1-8.441,8.442" transform="translate(-198.474 -24.845)" fill="#7cb21b"/>
      <path id="パス_372" data-name="パス 372" d="M646.077,146.976a1.632,1.632,0,0,1-.079-3.262l32.368-1.6a1.632,1.632,0,0,1,.162,3.26l-32.368,1.6-.082,0" transform="translate(-192.711 -26.38)" fill="#de041d"/>
      <path id="パス_373" data-name="パス 373" d="M649.836,102.877a2.592,2.592,0,0,0-2.516-1.589,4.162,4.162,0,0,0-1.592.343,3.786,3.786,0,0,0-.611.327,3.745,3.745,0,0,0,.081-.689,3.488,3.488,0,0,0-.889-2.624,2.435,2.435,0,0,0-1.719-.746h-.051a2.4,2.4,0,0,0-1.683.828,3.459,3.459,0,0,0-.773,2.693,3.842,3.842,0,0,0,.122.684,3.68,3.68,0,0,0-.63-.291,4.418,4.418,0,0,0-1.437-.262,2.569,2.569,0,0,0-2.588,1.751,2.393,2.393,0,0,0,.267,1.856,3.467,3.467,0,0,0,2.323,1.568,3.819,3.819,0,0,0,.689.1,3.777,3.777,0,0,0-.472.509,3.475,3.475,0,0,0-.818,2.674,2.421,2.421,0,0,0,.991,1.615,2.3,2.3,0,0,0,1.29.379,3.331,3.331,0,0,0,2.765-1.785,3.767,3.767,0,0,0,.3-.624,3.873,3.873,0,0,0,.339.6,3.29,3.29,0,0,0,2.692,1.638,2.267,2.267,0,0,0,2.314-2.133,3.459,3.459,0,0,0-.958-2.633,3.685,3.685,0,0,0-.5-.481,3.708,3.708,0,0,0,.683-.135,3.47,3.47,0,0,0,2.234-1.683,2.42,2.42,0,0,0,.148-1.888" transform="translate(-191.059 -18.246)" fill="#fff"/>
      <path id="パス_374" data-name="パス 374" d="M694.808,102.877a2.592,2.592,0,0,0-2.516-1.589,4.161,4.161,0,0,0-1.592.343,3.778,3.778,0,0,0-.611.327,3.74,3.74,0,0,0,.081-.689,3.488,3.488,0,0,0-.889-2.624,2.436,2.436,0,0,0-1.719-.746h-.051a2.4,2.4,0,0,0-1.683.828,3.459,3.459,0,0,0-.773,2.693,3.842,3.842,0,0,0,.122.684,3.676,3.676,0,0,0-.63-.291,4.414,4.414,0,0,0-1.437-.262,2.569,2.569,0,0,0-2.588,1.751,2.392,2.392,0,0,0,.267,1.856,3.467,3.467,0,0,0,2.323,1.568,3.816,3.816,0,0,0,.689.1,3.777,3.777,0,0,0-.472.509,3.479,3.479,0,0,0-.818,2.674,2.421,2.421,0,0,0,.991,1.615,2.3,2.3,0,0,0,1.29.379,3.331,3.331,0,0,0,2.765-1.785,3.753,3.753,0,0,0,.3-.624,3.858,3.858,0,0,0,.339.6,3.29,3.29,0,0,0,2.692,1.638A2.267,2.267,0,0,0,693.2,109.7a3.46,3.46,0,0,0-.958-2.633,3.689,3.689,0,0,0-.5-.481,3.708,3.708,0,0,0,.683-.135,3.468,3.468,0,0,0,2.234-1.683,2.419,2.419,0,0,0,.148-1.888" transform="translate(-199.333 -18.246)" fill="#fff"/>
      <path id="パス_375" data-name="パス 375" d="M672.323,117.544a2.592,2.592,0,0,0-2.516-1.589,4.161,4.161,0,0,0-1.592.343,3.781,3.781,0,0,0-.611.327,3.82,3.82,0,0,0,.081-.689,3.488,3.488,0,0,0-.889-2.624,2.435,2.435,0,0,0-1.719-.746h-.051a2.4,2.4,0,0,0-1.683.828,3.459,3.459,0,0,0-.773,2.693,3.831,3.831,0,0,0,.122.684,3.679,3.679,0,0,0-.63-.291,4.417,4.417,0,0,0-1.437-.262,2.569,2.569,0,0,0-2.588,1.751,2.393,2.393,0,0,0,.267,1.856,3.467,3.467,0,0,0,2.323,1.568,3.807,3.807,0,0,0,.689.1,3.777,3.777,0,0,0-.472.509,3.475,3.475,0,0,0-.818,2.674,2.423,2.423,0,0,0,.99,1.615,2.3,2.3,0,0,0,1.291.379,3.331,3.331,0,0,0,2.765-1.785,3.758,3.758,0,0,0,.3-.624,3.873,3.873,0,0,0,.339.6A3.29,3.29,0,0,0,668.4,126.5a2.267,2.267,0,0,0,2.314-2.133,3.46,3.46,0,0,0-.958-2.633,3.685,3.685,0,0,0-.5-.481,3.707,3.707,0,0,0,.683-.135,3.47,3.47,0,0,0,2.234-1.683,2.42,2.42,0,0,0,.148-1.888" transform="translate(-195.196 -20.945)" fill="#fff"/>
      <g id="グループ_121" data-name="グループ 121" transform="translate(440.263 24.466)">
        <g id="グループ_120" data-name="グループ 120" clip-path="url(#clip-path-2)">
          <path id="パス_366" data-name="パス 366" d="M656.235,50.907,644.427,27.88h23.618Z" transform="translate(-632.97 -29.829)" fill="#73390f"/>
        </g>
      </g>
    </g>
  </g>
</svg>
