<svg xmlns="http://www.w3.org/2000/svg" width="58.003" height="58.003" viewBox="0 0 58.003 58.003">
  <path id="パス_1333" data-name="パス 1333" d="M18.68-47.963a4.517,4.517,0,0,0-5.37-2.628L3.342-47.873A4.545,4.545,0,0,0,0-43.5,50.753,50.753,0,0,0,50.75,7.25a4.545,4.545,0,0,0,4.373-3.342l2.719-9.969a4.517,4.517,0,0,0-2.628-5.37L44.338-15.961a4.517,4.517,0,0,0-5.245,1.314L34.517-9.062a38.286,38.286,0,0,1-18.2-18.2L21.9-31.832a4.521,4.521,0,0,0,1.314-5.245L18.68-47.952Z" transform="translate(0 50.753)" fill="#b40f0f"/>
</svg>
