<svg xmlns="http://www.w3.org/2000/svg" width="49.63" height="72.254" viewBox="0 0 49.63 72.254">
  <g id="グループ_427" data-name="グループ 427" transform="translate(-498.487)">
    <g id="グループ_148" data-name="グループ 148" transform="translate(523.242 27.141)">
      <path id="パス_270" data-name="パス 270" d="M14.61,138.236,13.1,160.815h5.663S17.9,148,17.217,137.831q-1.307.2-2.607.4" transform="translate(-3.49 -115.702)" fill="#73390f"/>
      <path id="パス_271" data-name="パス 271" d="M24.622,139.273l-4.312-13.367-1.589-4.929L15.6,111.294c0,.011-.009.021-.012.033-1.871-5.088-4.742-4.884-6.526.647L4.718,125.43.253,139.273a3.775,3.775,0,0,0,3.813,5.236H20.809a3.776,3.776,0,0,0,3.813-5.236" transform="translate(-0.001 -107.662)" fill="#49a123"/>
    </g>
    <g id="グループ_149" data-name="グループ 149" transform="translate(498.487)">
      <path id="パス_663" data-name="パス 663" d="M557.707,5.395a6.52,6.52,0,0,0,.52,5.225,6.916,6.916,0,0,0,.686,1.113,7.012,7.012,0,0,0-1.308-.081,6.492,6.492,0,0,0-4.852,2.03A4.49,4.49,0,0,0,551.578,17a4.458,4.458,0,0,0,1.178,2.591c.737.8,2.456,2.077,5.685,1.631a7.338,7.338,0,0,0,1.268-.3,6.912,6.912,0,0,0-.479,1.212,6.245,6.245,0,0,0,1.056,6.086,4.308,4.308,0,0,0,2.163,1.3,4.537,4.537,0,0,0,3.489-.69,6.523,6.523,0,0,0,2.65-4.529,7.234,7.234,0,0,0,.1-1.3,6.826,6.826,0,0,0,1.008.828,6.513,6.513,0,0,0,5.118,1.212,4.485,4.485,0,0,0,2.9-1.994,4.822,4.822,0,0,0-.876-5.8,8.272,8.272,0,0,0-2.19-1.649,6.841,6.841,0,0,0-1.2-.5,7.3,7.3,0,0,0,1.1-.7,6.488,6.488,0,0,0,2.732-4.5,4.49,4.49,0,0,0-1-3.375l-.065-.071A4.57,4.57,0,0,0,573,5.031a6.527,6.527,0,0,0-4.751,2.11,6.99,6.99,0,0,0-.847.989,7.112,7.112,0,0,0-.326-1.259,7.8,7.8,0,0,0-1.554-2.635,4.869,4.869,0,0,0-5.394-1.449,4.544,4.544,0,0,0-2.417,2.608" transform="translate(-551.563 -2.477)" fill="#ef7500"/>
      <path id="パス_664" data-name="パス 664" d="M565.143,20.074a3.888,3.888,0,1,0,3.888-3.889,3.888,3.888,0,0,0-3.888,3.889" transform="translate(-555.182 -6.13)" fill="#fff042"/>
    </g>
  </g>
</svg>
