<svg id="グループ_185" data-name="グループ 185" xmlns="http://www.w3.org/2000/svg" xmlns:xlink="http://www.w3.org/1999/xlink" width="55.601" height="79.068" viewBox="0 0 55.601 79.068">
  <defs>
    <clipPath id="clip-path">
      <rect id="長方形_179" data-name="長方形 179" width="55.601" height="79.068" fill="none"/>
    </clipPath>
  </defs>
  <g id="グループ_184" data-name="グループ 184" clip-path="url(#clip-path)">
    <path id="パス_1276" data-name="パス 1276" d="M35.611,18.221c.012-1.468-1.184-1.436-1.279-.136L31.1,79.068h7.718s-3.21-60.634-3.21-60.847" transform="translate(0 0)" fill="#73390f"/>
    <path id="パス_1277" data-name="パス 1277" d="M55.3,55.632l-6.677-20.7-2.674-8.285L40.794,10.674,39.028,5.2c-2.236-6.932-5.9-6.932-8.132,0l-2.288,7.089L14.626,55.632c-1.119,3.467.946,6.3,4.588,6.3H50.708c3.642,0,5.708-2.835,4.589-6.3" transform="translate(0 0)" fill="#aeca4e"/>
    <path id="パス_1278" data-name="パス 1278" d="M13.385,51.892,11.562,79.068h6.816s-1.035-15.421-1.855-27.662q-1.574.237-3.138.486" transform="translate(0 0)" fill="#73390f"/>
    <path id="パス_1279" data-name="パス 1279" d="M29.635,62.817,24.446,46.729,22.532,40.8,18.773,29.142c0,.014-.011.026-.014.04-2.253-6.125-5.708-5.878-7.855.778l-5.225,16.2L.3,62.817c-1.118,3.466.947,6.3,4.589,6.3H25.046c3.642,0,5.708-2.836,4.589-6.3" transform="translate(0 0)" fill="#80b639"/>
  </g>
</svg>
