<svg id="グループ_175" data-name="グループ 175" xmlns="http://www.w3.org/2000/svg" xmlns:xlink="http://www.w3.org/1999/xlink" width="84.213" height="116" viewBox="0 0 84.213 116">
  <defs>
    <clipPath id="clip-path">
      <rect id="長方形_171" data-name="長方形 171" width="84.213" height="116" fill="none"/>
    </clipPath>
  </defs>
  <g id="グループ_174" data-name="グループ 174" clip-path="url(#clip-path)">
    <path id="パス_1211" data-name="パス 1211" d="M35.806,53.3A17.9,17.9,0,1,0,17.9,71.2a17.9,17.9,0,0,0,17.9-17.9" transform="translate(0 -10.769)" fill="#8ab92e"/>
    <path id="パス_1212" data-name="パス 1212" d="M105.382,53.3a17.9,17.9,0,1,0-17.9,17.9,17.9,17.9,0,0,0,17.9-17.9" transform="translate(-21.169 -10.769)" fill="#8ab92e"/>
    <path id="パス_1213" data-name="パス 1213" d="M48.7,79.029a17.9,17.9,0,1,0-17.9,17.9,17.9,17.9,0,0,0,17.9-17.9" transform="translate(-3.922 -18.598)" fill="#8ab92e"/>
    <path id="パス_1214" data-name="パス 1214" d="M56.685,79.029a17.9,17.9,0,1,1,17.9,17.9,17.9,17.9,0,0,1-17.9-17.9" transform="translate(-17.247 -18.598)" fill="#8ab92e"/>
    <path id="パス_1215" data-name="パス 1215" d="M48.7,27.564a17.9,17.9,0,1,0-17.9,17.9,17.9,17.9,0,0,0,17.9-17.9" transform="translate(-3.922 -2.939)" fill="#8ab92e"/>
    <path id="パス_1216" data-name="パス 1216" d="M56.685,27.564a17.9,17.9,0,1,1,17.9,17.9,17.9,17.9,0,0,1-17.9-17.9" transform="translate(-17.247 -2.939)" fill="#8ab92e"/>
    <path id="パス_1217" data-name="パス 1217" d="M70.594,17.91a17.9,17.9,0,1,0-17.9,17.9,17.91,17.91,0,0,0,17.9-17.9" transform="translate(-10.585)" fill="#8ab92e"/>
    <path id="パス_1218" data-name="パス 1218" d="M70.594,88.678a17.9,17.9,0,1,0-17.9,17.9,17.9,17.9,0,0,0,17.9-17.9" transform="translate(-10.585 -21.535)" fill="#8ab92e"/>
    <path id="パス_1219" data-name="パス 1219" d="M70.594,53.3a17.9,17.9,0,1,0-17.9,17.9,17.9,17.9,0,0,0,17.9-17.9" transform="translate(-10.585 -10.769)" fill="#8ab92e"/>
    <path id="パス_1220" data-name="パス 1220" d="M58.559,52.9c.015-1.9-1.533-1.858-1.657-.175L52.723,131.66h9.991S58.557,53.175,58.559,52.9" transform="translate(-16.042 -15.66)" fill="#73390f"/>
    <path id="パス_1221" data-name="パス 1221" d="M60.7,69.271c3.332.284,8.51-4.045,11.389-7.9.305-.409,1.436-2.411,2.17-2,.654.366.258,1.464-.99,3.422A25.506,25.506,0,0,1,59.9,73.7c-.093.031-1.083-1.316-1.083-1.205A4,4,0,0,1,60.7,69.271" transform="translate(-17.895 -18.047)" fill="#73390f"/>
    <path id="パス_1222" data-name="パス 1222" d="M62.3,97.678c3.333.284,8.51-4.045,11.389-7.9.306-.408,1.437-2.411,2.171-2,.653.365.257,1.462-.99,3.422A25.513,25.513,0,0,1,61.5,102.107c-.093.031-1.084-1.316-1.084-1.205A4,4,0,0,1,62.3,97.678" transform="translate(-18.383 -26.691)" fill="#73390f"/>
    <path id="パス_1223" data-name="パス 1223" d="M51.417,85.388c-4.079.348-10.415-4.95-13.94-9.669-.373-.5-1.757-2.952-2.656-2.448-.8.448-.314,1.791,1.212,4.188,3.9,6.121,9.392,11.051,16.359,13.348.115.038,1.327-1.611,1.327-1.475a4.906,4.906,0,0,0-2.3-3.945" transform="translate(-10.479 -22.273)" fill="#73390f"/>
    <path id="パス_1224" data-name="パス 1224" d="M26.649,45.973a2.46,2.46,0,0,0-2.726.732,3.926,3.926,0,0,0-.785,1.332,3.538,3.538,0,0,0-.165.637,3.563,3.563,0,0,0-.429-.5,3.3,3.3,0,0,0-2.4-1.067,2.307,2.307,0,0,0-1.625.718l-.032.037a2.262,2.262,0,0,0-.5,1.7,3.281,3.281,0,0,0,1.38,2.273,3.669,3.669,0,0,0,.555.353,3.407,3.407,0,0,0-.609.253,4.192,4.192,0,0,0-1.106.833,2.437,2.437,0,0,0-.442,2.93,2.27,2.27,0,0,0,1.465,1.007,3.285,3.285,0,0,0,2.587-.612,3.511,3.511,0,0,0,.509-.418,3.641,3.641,0,0,0,.051.657,3.3,3.3,0,0,0,1.339,2.289,2.3,2.3,0,0,0,1.763.349,2.189,2.189,0,0,0,1.094-.657,3.16,3.16,0,0,0,.534-3.076,3.559,3.559,0,0,0-.242-.612,3.608,3.608,0,0,0,.641.152,3.122,3.122,0,0,0,2.873-.824,2.15,2.15,0,0,0,0-2.985,3.28,3.28,0,0,0-2.452-1.026,3.733,3.733,0,0,0-.66.04,3.476,3.476,0,0,0,.346-.561,3.291,3.291,0,0,0,.263-2.64,2.3,2.3,0,0,0-1.222-1.318" transform="translate(-5.311 -13.94)" fill="#fff"/>
    <path id="パス_1225" data-name="パス 1225" d="M27.934,55.086a1.964,1.964,0,1,1-1.964-1.965,1.964,1.964,0,0,1,1.964,1.965" transform="translate(-7.304 -16.163)" fill="#ffc900"/>
    <path id="パス_1226" data-name="パス 1226" d="M67.051,23.762a2.459,2.459,0,0,0-1.593-2.329,3.94,3.94,0,0,0-1.517-.3,3.619,3.619,0,0,0-.655.055,3.373,3.373,0,0,0,.329-.569A3.292,3.292,0,0,0,63.826,18a2.311,2.311,0,0,0-1.216-1.3l-.045-.019a2.265,2.265,0,0,0-1.776.089A3.278,3.278,0,0,0,59.1,18.83a3.8,3.8,0,0,0-.151.641,3.4,3.4,0,0,0-.439-.491,4.21,4.21,0,0,0-1.153-.767,2.435,2.435,0,0,0-2.912.553,2.271,2.271,0,0,0-.465,1.716,3.294,3.294,0,0,0,1.435,2.238,3.471,3.471,0,0,0,.564.341,3.618,3.618,0,0,0-.6.266,3.3,3.3,0,0,0-1.716,2.023,2.288,2.288,0,0,0,.255,1.779,2.173,2.173,0,0,0,.981.813,3.16,3.16,0,0,0,3.079-.515,3.437,3.437,0,0,0,.5-.432,3.843,3.843,0,0,0,.068.655,3.118,3.118,0,0,0,1.73,2.436,2.149,2.149,0,0,0,2.817-.986,3.283,3.283,0,0,0,.157-2.654,3.576,3.576,0,0,0-.259-.611,3.6,3.6,0,0,0,.646.141,3.3,3.3,0,0,0,2.578-.628,2.3,2.3,0,0,0,.838-1.588" transform="translate(-16.305 -5.034)" fill="#de041d"/>
    <path id="パス_1227" data-name="パス 1227" d="M62.117,27.57a1.965,1.965,0,1,1,1.2-2.505,1.966,1.966,0,0,1-1.2,2.505" transform="translate(-18.103 -7.226)" fill="#ffc900"/>
    <path id="パス_1228" data-name="パス 1228" d="M102.947,63.744a2.46,2.46,0,0,0-1.593-2.329,3.912,3.912,0,0,0-1.517-.3,3.549,3.549,0,0,0-.655.054,3.421,3.421,0,0,0,.329-.569,3.3,3.3,0,0,0,.212-2.618,2.3,2.3,0,0,0-1.216-1.3l-.045-.019a2.262,2.262,0,0,0-1.776.09A3.277,3.277,0,0,0,95,58.812a3.717,3.717,0,0,0-.15.641,3.53,3.53,0,0,0-.439-.492,4.255,4.255,0,0,0-1.154-.767,2.436,2.436,0,0,0-2.91.554,2.263,2.263,0,0,0-.466,1.716A3.288,3.288,0,0,0,91.315,62.7a3.46,3.46,0,0,0,.563.342,3.669,3.669,0,0,0-.6.266,3.3,3.3,0,0,0-1.716,2.021,2.29,2.29,0,0,0,.255,1.78,2.181,2.181,0,0,0,.981.813,3.158,3.158,0,0,0,3.079-.516,3.338,3.338,0,0,0,.5-.431,3.775,3.775,0,0,0,.07.655,3.113,3.113,0,0,0,1.73,2.436,2.149,2.149,0,0,0,2.817-.987,3.285,3.285,0,0,0,.155-2.653,3.477,3.477,0,0,0-.259-.612,3.424,3.424,0,0,0,.646.141,3.3,3.3,0,0,0,2.578-.626,2.3,2.3,0,0,0,.839-1.589" transform="translate(-27.226 -17.199)" fill="#fff"/>
    <path id="パス_1229" data-name="パス 1229" d="M98.011,67.551a1.965,1.965,0,1,1,1.2-2.5,1.967,1.967,0,0,1-1.2,2.5" transform="translate(-29.025 -19.391)" fill="#ffc900"/>
  </g>
</svg>
